<svg xmlns="http://www.w3.org/2000/svg" xmlns:xlink="http://www.w3.org/1999/xlink" version="1.1" width="256" height="256" viewBox="0 0 256 256" xml:space="preserve">
<g style="stroke: none; stroke-width: 0; stroke-dasharray: none; stroke-linecap: butt; stroke-linejoin: miter; stroke-miterlimit: 10; fill: none; fill-rule: nonzero; opacity: 1;" transform="translate(1.4065934065934016 1.4065934065934016) scale(2.81 2.81)">
	<path d="M 75.712 12.984 C 64.973 11.03 55.602 6.991 47.859 0.979 c -1.684 -1.307 -4.035 -1.307 -5.719 0 C 34.398 6.991 25.028 11.03 14.288 12.984 h 0 c -2.231 0.405 -3.85 2.352 -3.85 4.628 v 32.527 c 0 17.479 12.668 32.98 32.272 39.492 c 0.738 0.245 1.514 0.368 2.29 0.368 s 1.552 -0.123 2.29 -0.368 c 19.604 -6.511 32.271 -22.013 32.271 -39.492 V 17.612 C 79.562 15.335 77.942 13.389 75.712 12.984 z M 45 65.5 c -11.855 0 -21.5 -9.645 -21.5 -21.5 c 0 -11.855 9.645 -21.5 21.5 -21.5 c 11.855 0 21.5 9.645 21.5 21.5 C 66.5 55.855 56.855 65.5 45 65.5 z" style="stroke: none; stroke-width: 1; stroke-dasharray: none; stroke-linecap: butt; stroke-linejoin: miter; stroke-miterlimit: 10; fill: rgb(0,0,0); fill-rule: nonzero; opacity: 1;" transform=" matrix(1 0 0 1 0 0) " stroke-linecap="round"/>
	<path d="M 46.591 57.444 h -3.182 c -1.641 0 -2.976 -1.335 -2.976 -2.977 v -5.901 h -5.901 c -1.641 0 -2.976 -1.335 -2.976 -2.976 v -3.182 c 0 -1.641 1.335 -2.976 2.976 -2.976 h 5.901 v -5.901 c 0 -1.641 1.335 -2.976 2.976 -2.976 h 3.182 c 1.641 0 2.976 1.335 2.976 2.976 v 5.901 h 5.901 c 1.642 0 2.977 1.335 2.977 2.976 v 3.182 c 0 1.641 -1.335 2.976 -2.977 2.976 h -5.901 v 5.901 C 49.566 56.109 48.231 57.444 46.591 57.444 z" style="stroke: none; stroke-width: 1; stroke-dasharray: none; stroke-linecap: butt; stroke-linejoin: miter; stroke-miterlimit: 10; fill: rgb(0,0,0); fill-rule: nonzero; opacity: 1;" transform=" matrix(1 0 0 1 0 0) " stroke-linecap="round"/>
</g>
</svg>