<svg xmlns="http://www.w3.org/2000/svg" xmlns:xlink="http://www.w3.org/1999/xlink" version="1.1" width="256" height="256" viewBox="0 0 256 256" xml:space="preserve">
<g style="stroke: none; stroke-width: 0; stroke-dasharray: none; stroke-linecap: butt; stroke-linejoin: miter; stroke-miterlimit: 10; fill: none; fill-rule: nonzero; opacity: 1;" transform="translate(1.4065934065934016 1.4065934065934016) scale(2.81 2.81)">
	<path d="M 45 90.225 c -0.154 0 -0.308 -0.023 -0.457 -0.071 l -2.511 -0.803 C 20.794 82.558 5.961 60.971 5.961 36.855 V 13.394 c 0 -0.677 0.454 -1.271 1.107 -1.448 l 3.558 -0.965 c 2.954 -0.802 5.286 -3.135 6.087 -6.09 l 0.965 -3.559 c 0.177 -0.654 0.771 -1.107 1.448 -1.107 h 51.748 c 0.678 0 1.271 0.454 1.447 1.107 l 0.965 3.559 c 0.801 2.955 3.134 5.288 6.088 6.09 l 3.558 0.965 c 0.653 0.177 1.107 0.771 1.107 1.448 v 23.461 c 0 24.116 -14.833 45.703 -36.072 52.496 l -2.509 0.803 C 45.309 90.201 45.155 90.225 45 90.225 z M 8.961 14.541 v 22.314 c 0 22.826 13.976 43.238 33.986 49.638 L 45 87.149 l 2.052 -0.656 c 20.011 -6.4 33.986 -26.813 33.986 -49.638 V 14.541 l -2.45 -0.665 c -3.979 -1.08 -7.119 -4.222 -8.198 -8.2 l -0.664 -2.451 H 20.273 l -0.665 2.451 c -1.079 3.978 -4.22 7.12 -8.197 8.2 L 8.961 14.541 z" style="stroke: none; stroke-width: 1; stroke-dasharray: none; stroke-linecap: butt; stroke-linejoin: miter; stroke-miterlimit: 10; fill: rgb(0,0,0); fill-rule: nonzero; opacity: 1;" transform=" matrix(1 0 0 1 0 0) " stroke-linecap="round"/>
	<path d="M 45 81.186 c -0.16 0 -0.321 -0.025 -0.475 -0.077 C 26.964 75.25 14.7 56.944 14.7 36.593 V 19.589 c 0 -0.571 0.324 -1.092 0.835 -1.345 c 3.724 -1.841 6.788 -4.906 8.628 -8.63 c 0.252 -0.512 0.774 -0.835 1.345 -0.835 h 38.984 c 0.57 0 1.092 0.324 1.345 0.836 c 1.84 3.724 4.903 6.788 8.629 8.629 c 0.511 0.253 0.835 0.774 0.835 1.345 v 17.004 c 0 20.352 -12.265 38.656 -29.827 44.516 C 45.32 81.16 45.16 81.186 45 81.186 z M 17.7 20.498 v 16.095 C 17.7 55.486 28.9 72.475 45 78.101 c 16.1 -5.627 27.301 -22.614 27.301 -41.508 V 20.498 c -3.659 -2.011 -6.708 -5.061 -8.718 -8.719 H 26.417 C 24.407 15.438 21.358 18.487 17.7 20.498 z" style="stroke: none; stroke-width: 1; stroke-dasharray: none; stroke-linecap: butt; stroke-linejoin: miter; stroke-miterlimit: 10; fill: rgb(0,0,0); fill-rule: nonzero; opacity: 1;" transform=" matrix(1 0 0 1 0 0) " stroke-linecap="round"/>
	<path d="M 59.46 38.688 c -0.828 0 -1.5 0.671 -1.5 1.5 v 0.428 h -3.15 c -0.247 -1.62 -0.883 -3.109 -1.815 -4.374 l 2.23 -2.23 l 0.303 0.303 c 0.293 0.293 0.677 0.439 1.061 0.439 s 0.768 -0.146 1.061 -0.439 c 0.586 -0.585 0.586 -1.536 0 -2.121 l -2.727 -2.727 c -0.586 -0.586 -1.535 -0.586 -2.121 0 c -0.586 0.585 -0.586 1.536 0 2.121 l 0.303 0.303 l -2.23 2.23 c -1.265 -0.932 -2.754 -1.568 -4.374 -1.815 v -3.15 h 0.428 c 0.828 0 1.5 -0.671 1.5 -1.5 s -0.672 -1.5 -1.5 -1.5 h -3.855 c -0.829 0 -1.5 0.671 -1.5 1.5 s 0.671 1.5 1.5 1.5 H 43.5 v 3.15 c -1.62 0.247 -3.109 0.883 -4.374 1.815 l -2.23 -2.23 l 0.303 -0.303 c 0.586 -0.585 0.586 -1.536 0 -2.121 c -0.586 -0.586 -1.535 -0.586 -2.121 0 l -2.727 2.727 c -0.586 0.585 -0.586 1.536 0 2.121 c 0.293 0.293 0.677 0.439 1.061 0.439 s 0.768 -0.146 1.061 -0.439 l 0.303 -0.303 l 2.23 2.23 c -0.932 1.265 -1.568 2.754 -1.815 4.374 h -3.15 v -0.428 c 0 -0.829 -0.671 -1.5 -1.5 -1.5 s -1.5 0.671 -1.5 1.5 v 3.856 c 0 0.829 0.671 1.5 1.5 1.5 s 1.5 -0.671 1.5 -1.5 v -0.428 h 3.15 c 0.247 1.62 0.883 3.109 1.815 4.374 l -2.23 2.23 l -0.303 -0.303 c -0.586 -0.586 -1.535 -0.586 -2.121 0 s -0.586 1.535 0 2.121 l 2.727 2.727 c 0.293 0.293 0.677 0.439 1.061 0.439 s 0.768 -0.146 1.061 -0.439 c 0.586 -0.586 0.586 -1.535 0 -2.121 l -0.303 -0.303 l 2.23 -2.23 c 1.265 0.932 2.754 1.568 4.374 1.815 v 3.15 h -0.428 c -0.829 0 -1.5 0.672 -1.5 1.5 s 0.671 1.5 1.5 1.5 h 3.855 c 0.828 0 1.5 -0.672 1.5 -1.5 s -0.672 -1.5 -1.5 -1.5 H 46.5 v -3.15 c 1.62 -0.247 3.109 -0.883 4.374 -1.815 l 2.23 2.23 l -0.303 0.303 c -0.586 0.586 -0.586 1.535 0 2.121 c 0.293 0.293 0.677 0.439 1.061 0.439 s 0.768 -0.146 1.061 -0.439 l 2.727 -2.727 c 0.586 -0.586 0.586 -1.535 0 -2.121 s -1.535 -0.586 -2.121 0 l -0.303 0.303 l -2.23 -2.23 c 0.932 -1.265 1.568 -2.754 1.815 -4.374 h 3.15 v 0.428 c 0 0.829 0.672 1.5 1.5 1.5 s 1.5 -0.671 1.5 -1.5 v -3.856 C 60.96 39.359 60.288 38.688 59.46 38.688 z M 45 49.052 c -3.824 0 -6.936 -3.111 -6.936 -6.936 s 3.111 -6.936 6.936 -6.936 s 6.936 3.111 6.936 6.936 S 48.824 49.052 45 49.052 z" style="stroke: none; stroke-width: 1; stroke-dasharray: none; stroke-linecap: butt; stroke-linejoin: miter; stroke-miterlimit: 10; fill: rgb(0,0,0); fill-rule: nonzero; opacity: 1;" transform=" matrix(1 0 0 1 0 0) " stroke-linecap="round"/>
</g>
</svg>