<svg xmlns="http://www.w3.org/2000/svg" xmlns:xlink="http://www.w3.org/1999/xlink" version="1.1" width="256" height="256" viewBox="0 0 256 256" xml:space="preserve">
<g style="stroke: none; stroke-width: 0; stroke-dasharray: none; stroke-linecap: butt; stroke-linejoin: miter; stroke-miterlimit: 10; fill: none; fill-rule: nonzero; opacity: 1;" transform="translate(1.4065934065934016 1.4065934065934016) scale(2.81 2.81)">
	<path d="M 89 77.437 H 74.777 c -0.553 0 -1 -0.447 -1 -1 V 64.439 c 0 -0.553 0.447 -1 1 -1 H 89 c 0.553 0 1 0.447 1 1 v 11.997 C 90 76.989 89.553 77.437 89 77.437 z M 75.777 75.437 H 88 v -9.997 H 75.777 V 75.437 z" style="stroke: none; stroke-width: 1; stroke-dasharray: none; stroke-linecap: butt; stroke-linejoin: miter; stroke-miterlimit: 10; fill: rgb(0,0,0); fill-rule: nonzero; opacity: 1;" transform=" matrix(1 0 0 1 0 0) " stroke-linecap="round"/>
	<path d="M 89 54.736 H 74.777 c -0.553 0 -1 -0.447 -1 -1 V 41.739 c 0 -0.552 0.447 -1 1 -1 H 89 c 0.553 0 1 0.448 1 1 v 11.997 C 90 54.289 89.553 54.736 89 54.736 z M 75.777 52.736 H 88 v -9.997 H 75.777 V 52.736 z" style="stroke: none; stroke-width: 1; stroke-dasharray: none; stroke-linecap: butt; stroke-linejoin: miter; stroke-miterlimit: 10; fill: rgb(0,0,0); fill-rule: nonzero; opacity: 1;" transform=" matrix(1 0 0 1 0 0) " stroke-linecap="round"/>
	<path d="M 89 32.036 H 74.777 c -0.553 0 -1 -0.448 -1 -1 V 19.039 c 0 -0.552 0.447 -1 1 -1 H 89 c 0.553 0 1 0.448 1 1 v 11.997 C 90 31.588 89.553 32.036 89 32.036 z M 75.777 30.036 H 88 v -9.997 H 75.777 V 30.036 z" style="stroke: none; stroke-width: 1; stroke-dasharray: none; stroke-linecap: butt; stroke-linejoin: miter; stroke-miterlimit: 10; fill: rgb(0,0,0); fill-rule: nonzero; opacity: 1;" transform=" matrix(1 0 0 1 0 0) " stroke-linecap="round"/>
	<path d="M 74.777 48.737 H 48.963 c -0.553 0 -1 -0.447 -1 -1 s 0.447 -1 1 -1 h 25.814 c 0.553 0 1 0.447 1 1 S 75.33 48.737 74.777 48.737 z" style="stroke: none; stroke-width: 1; stroke-dasharray: none; stroke-linecap: butt; stroke-linejoin: miter; stroke-miterlimit: 10; fill: rgb(0,0,0); fill-rule: nonzero; opacity: 1;" transform=" matrix(1 0 0 1 0 0) " stroke-linecap="round"/>
	<path d="M 74.777 71.438 H 59.87 c -0.553 0 -1 -0.447 -1 -1 V 25.037 c 0 -0.552 0.447 -1 1 -1 h 14.907 c 0.553 0 1 0.448 1 1 s -0.447 1 -1 1 H 60.87 v 43.401 h 13.907 c 0.553 0 1 0.447 1 1 S 75.33 71.438 74.777 71.438 z" style="stroke: none; stroke-width: 1; stroke-dasharray: none; stroke-linecap: butt; stroke-linejoin: miter; stroke-miterlimit: 10; fill: rgb(0,0,0); fill-rule: nonzero; opacity: 1;" transform=" matrix(1 0 0 1 0 0) " stroke-linecap="round"/>
	<path d="M 44.213 77.524 H 1 c -0.552 0 -1 -0.447 -1 -1 V 62.242 c 0 -3.367 2.581 -6.246 6.136 -6.846 l 5.83 -0.981 c 1.774 -0.299 3.062 -1.694 3.062 -3.319 l 0.037 -1.534 c 0.014 -0.552 0.481 -0.96 1.024 -0.976 c 0.552 0.014 0.989 0.472 0.975 1.024 l -0.037 1.51 c 0 2.58 -1.989 4.806 -4.729 5.268 l -5.83 0.981 C 3.879 57.806 2 59.854 2 62.242 v 13.282 h 41.213 V 62.242 c 0 -2.388 -1.879 -4.437 -4.468 -4.873 l -5.83 -0.981 c -2.74 -0.462 -4.729 -2.688 -4.729 -5.292 L 28.15 49.61 c -0.014 -0.553 0.423 -1.011 0.975 -1.024 c 0.544 -0.013 1.01 0.423 1.024 0.976 l 0.037 1.51 c 0 1.649 1.288 3.045 3.062 3.344 l 5.83 0.981 c 3.555 0.6 6.136 3.479 6.136 6.846 v 14.282 C 45.213 77.077 44.766 77.524 44.213 77.524 z" style="stroke: none; stroke-width: 1; stroke-dasharray: none; stroke-linecap: butt; stroke-linejoin: miter; stroke-miterlimit: 10; fill: rgb(0,0,0); fill-rule: nonzero; opacity: 1;" transform=" matrix(1 0 0 1 0 0) " stroke-linecap="round"/>
	<path d="M 34.185 34.213 c -0.107 0 -0.214 -0.017 -0.32 -0.052 c -0.427 -0.145 -0.705 -0.557 -0.678 -1.007 c 0.134 -2.275 -0.042 -3.021 -0.188 -3.263 c -2.695 0.417 -5.888 0.63 -9.587 -0.786 c -2.89 -1.209 -6.95 -2.641 -9.176 -1.252 c -1.298 0.81 -2.041 2.633 -2.206 5.419 c -0.025 0.431 -0.325 0.797 -0.742 0.908 c -0.418 0.109 -0.858 -0.06 -1.094 -0.422 c -2.622 -4.035 -3.471 -7.969 -2.391 -11.076 c 0.742 -2.133 2.379 -3.762 4.63 -4.618 c 4.171 -6.325 12.764 -6.635 19.516 -4.097 c 0.378 0.142 0.633 0.497 0.648 0.9 c 0.014 0.403 -0.215 0.776 -0.582 0.944 c -0.812 0.373 -1.337 0.688 -1.678 0.935 c 3.92 1.775 6.338 4.068 7.195 6.828 c 0.909 2.927 0.062 6.357 -2.517 10.196 C 34.825 34.053 34.511 34.213 34.185 34.213 z M 24.021 14.476 c -4.057 0 -7.893 1.408 -10.08 4.94 c -0.123 0.198 -0.31 0.347 -0.531 0.421 c -1.854 0.625 -3.14 1.835 -3.719 3.501 c -0.662 1.903 -0.377 4.268 0.791 6.827 c 0.502 -1.875 1.394 -3.198 2.695 -4.009 c 2.979 -1.858 7.432 -0.393 10.978 1.092 c 3.254 1.245 6.034 1.056 8.549 0.664 c 0.573 -0.107 1.143 0.04 1.575 0.42 c 0.361 0.318 0.599 0.759 0.748 1.318 c 0.887 -2.061 1.087 -3.897 0.595 -5.483 c -0.754 -2.43 -3.192 -4.476 -7.245 -6.08 c -0.462 -0.183 -0.72 -0.678 -0.604 -1.162 c 0.15 -0.628 0.58 -1.202 1.343 -1.766 C 27.448 14.722 25.715 14.476 24.021 14.476 z" style="stroke: none; stroke-width: 1; stroke-dasharray: none; stroke-linecap: butt; stroke-linejoin: miter; stroke-miterlimit: 10; fill: rgb(0,0,0); fill-rule: nonzero; opacity: 1;" transform=" matrix(1 0 0 1 0 0) " stroke-linecap="round"/>
	<path d="M 22.595 53.65 c -0.794 0 -1.575 -0.137 -2.321 -0.406 c -5.473 -1.978 -9.322 -7.002 -9.807 -12.8 l -0.434 -7.17 c -0.034 -0.551 0.386 -1.025 0.938 -1.059 c 0.548 -0.028 1.025 0.386 1.059 0.938 l 0.433 7.147 c 0.418 4.999 3.752 9.351 8.492 11.063 c 1.053 0.38 2.227 0.381 3.282 0 c 4.74 -1.713 8.073 -6.064 8.493 -11.086 l 0.458 -7.127 c 0.036 -0.551 0.52 -0.965 1.062 -0.934 c 0.551 0.036 0.969 0.511 0.934 1.062 l -0.459 7.147 c -0.486 5.818 -4.335 10.842 -9.808 12.82 C 24.169 53.514 23.389 53.65 22.595 53.65 z" style="stroke: none; stroke-width: 1; stroke-dasharray: none; stroke-linecap: butt; stroke-linejoin: miter; stroke-miterlimit: 10; fill: rgb(0,0,0); fill-rule: nonzero; opacity: 1;" transform=" matrix(1 0 0 1 0 0) " stroke-linecap="round"/>
	<path d="M 22.595 67.105 c -0.269 0 -0.527 -0.108 -0.715 -0.301 L 11.416 56.101 c -0.386 -0.396 -0.378 -1.028 0.016 -1.414 c 0.396 -0.387 1.028 -0.378 1.415 0.016 l 9.748 9.973 l 9.748 -9.973 c 0.388 -0.394 1.019 -0.402 1.415 -0.016 c 0.395 0.386 0.402 1.019 0.016 1.414 L 23.31 66.805 C 23.122 66.997 22.864 67.105 22.595 67.105 z" style="stroke: none; stroke-width: 1; stroke-dasharray: none; stroke-linecap: butt; stroke-linejoin: miter; stroke-miterlimit: 10; fill: rgb(0,0,0); fill-rule: nonzero; opacity: 1;" transform=" matrix(1 0 0 1 0 0) " stroke-linecap="round"/>
	<path d="M 22.521 47.673 c -2.237 0 -4.204 -1.189 -4.783 -2.892 c -0.178 -0.522 0.102 -1.091 0.625 -1.269 c 0.521 -0.178 1.091 0.102 1.269 0.625 c 0.259 0.763 1.335 1.535 2.89 1.535 c 1.555 0 2.63 -0.772 2.89 -1.535 c 0.178 -0.522 0.744 -0.803 1.269 -0.625 c 0.523 0.178 0.803 0.746 0.625 1.269 C 26.725 46.483 24.758 47.673 22.521 47.673 z" style="stroke: none; stroke-width: 1; stroke-dasharray: none; stroke-linecap: butt; stroke-linejoin: miter; stroke-miterlimit: 10; fill: rgb(0,0,0); fill-rule: nonzero; opacity: 1;" transform=" matrix(1 0 0 1 0 0) " stroke-linecap="round"/>
	<path d="M 20.047 38.002 h -3.051 c -0.552 0 -1 -0.448 -1 -1 s 0.448 -1 1 -1 h 3.051 c 0.552 0 1 0.448 1 1 S 20.599 38.002 20.047 38.002 z" style="stroke: none; stroke-width: 1; stroke-dasharray: none; stroke-linecap: butt; stroke-linejoin: miter; stroke-miterlimit: 10; fill: rgb(0,0,0); fill-rule: nonzero; opacity: 1;" transform=" matrix(1 0 0 1 0 0) " stroke-linecap="round"/>
	<path d="M 28.045 38.002 h -3.051 c -0.552 0 -1 -0.448 -1 -1 s 0.448 -1 1 -1 h 3.051 c 0.552 0 1 0.448 1 1 S 28.597 38.002 28.045 38.002 z" style="stroke: none; stroke-width: 1; stroke-dasharray: none; stroke-linecap: butt; stroke-linejoin: miter; stroke-miterlimit: 10; fill: rgb(0,0,0); fill-rule: nonzero; opacity: 1;" transform=" matrix(1 0 0 1 0 0) " stroke-linecap="round"/>
	<path d="M 10.998 77.524 c -0.552 0 -1 -0.447 -1 -1 v -5.999 c 0 -0.553 0.448 -1 1 -1 s 1 0.447 1 1 v 5.999 C 11.998 77.077 11.55 77.524 10.998 77.524 z" style="stroke: none; stroke-width: 1; stroke-dasharray: none; stroke-linecap: butt; stroke-linejoin: miter; stroke-miterlimit: 10; fill: rgb(0,0,0); fill-rule: nonzero; opacity: 1;" transform=" matrix(1 0 0 1 0 0) " stroke-linecap="round"/>
	<path d="M 34.216 77.524 c -0.552 0 -1 -0.447 -1 -1 v -5.999 c 0 -0.553 0.448 -1 1 -1 s 1 0.447 1 1 v 5.999 C 35.216 77.077 34.768 77.524 34.216 77.524 z" style="stroke: none; stroke-width: 1; stroke-dasharray: none; stroke-linecap: butt; stroke-linejoin: miter; stroke-miterlimit: 10; fill: rgb(0,0,0); fill-rule: nonzero; opacity: 1;" transform=" matrix(1 0 0 1 0 0) " stroke-linecap="round"/>
</g>
</svg>