<svg xmlns="http://www.w3.org/2000/svg" xmlns:xlink="http://www.w3.org/1999/xlink" version="1.1" width="256" height="256" viewBox="0 0 256 256" xml:space="preserve">
<g style="stroke: none; stroke-width: 0; stroke-dasharray: none; stroke-linecap: butt; stroke-linejoin: miter; stroke-miterlimit: 10; fill: none; fill-rule: nonzero; opacity: 1;" transform="translate(1.4065934065934016 1.4065934065934016) scale(2.81 2.81)">
	<path d="M 12.53 17.094 c -0.311 -0.342 -0.628 -0.694 -0.992 -0.947 l -0.133 -0.105 l -0.139 -0.087 c -0.094 -0.056 -0.185 -0.122 -0.281 -0.176 c -0.194 -0.093 -0.386 -0.205 -0.589 -0.27 c -0.802 -0.319 -1.684 -0.348 -2.499 -0.092 c -0.411 0.124 -0.787 0.346 -1.127 0.624 l -0.13 0.103 l -0.103 0.11 l -0.108 0.109 c -0.039 0.034 -0.073 0.073 -0.1 0.118 c -0.06 0.085 -0.123 0.17 -0.189 0.255 c -0.05 0.097 -0.101 0.195 -0.156 0.292 c -0.399 0.811 -0.513 1.912 -0.368 3.023 c 0.128 1.118 0.498 2.254 1.006 3.333 c 0.121 0.274 0.265 0.537 0.411 0.8 c 0.137 0.269 0.308 0.517 0.465 0.777 c 0.316 0.503 0.696 0.98 1.097 1.455 c 0.805 0.946 1.69 1.85 2.612 2.711 c 0.925 0.859 1.813 1.686 2.867 2.399 c -1.151 -0.547 -2.169 -1.228 -3.227 -1.949 c -1.059 -0.725 -2.087 -1.496 -3.071 -2.349 c -0.489 -0.427 -0.979 -0.88 -1.424 -1.392 c -0.213 -0.255 -0.442 -0.501 -0.639 -0.773 c -0.205 -0.266 -0.408 -0.533 -0.591 -0.817 c -0.751 -1.12 -1.384 -2.351 -1.764 -3.723 c -0.204 -0.68 -0.315 -1.405 -0.358 -2.154 c -0.039 -0.751 0.05 -1.542 0.276 -2.33 c 0.211 -0.789 0.674 -1.573 1.22 -2.21 c 0.545 -0.627 1.209 -1.174 1.962 -1.559 c 1.499 -0.787 3.293 -1.016 4.941 -0.671 c 0.419 0.072 0.814 0.201 1.215 0.33 c 0.196 0.071 0.385 0.155 0.577 0.235 l 0.287 0.124 l 0.273 0.144 c 0.746 0.37 1.391 0.861 2.013 1.374 c 0.987 0.813 1.128 2.272 0.315 3.258 c -0.813 0.987 -2.272 1.128 -3.258 0.315 c -0.084 -0.069 -0.161 -0.143 -0.233 -0.22 L 12.53 17.094 z" style="stroke: none; stroke-width: 1; stroke-dasharray: none; stroke-linecap: butt; stroke-linejoin: miter; stroke-miterlimit: 10; fill: rgb(229,56,85); fill-rule: nonzero; opacity: 1;" transform=" matrix(2.81 0 0 2.81 1.4065934065934016 1.4065934065934016) " stroke-linecap="round"/>
	<circle cx="27.948" cy="21.338" r="7.928" style="stroke: none; stroke-width: 1; stroke-dasharray: none; stroke-linecap: butt; stroke-linejoin: miter; stroke-miterlimit: 10; fill: rgb(229,56,85); fill-rule: nonzero; opacity: 1;" transform="  matrix(1 0 0 1 0 0) "/>
	<path d="M 40.956 90 c 3.492 -2.3 6.832 -4.969 9.935 -7.729 c 3.082 -2.784 6.059 -5.683 8.829 -8.728 c 1.382 -1.52 2.729 -3.072 3.935 -4.67 c 0.605 -0.8 1.165 -1.585 1.698 -2.449 c 0.54 -0.845 1.089 -1.678 1.556 -2.562 c 1.964 -3.466 3.501 -7.14 4.461 -10.871 c 0.988 -3.719 1.254 -7.539 0.739 -10.959 c -0.321 -1.681 -0.741 -3.308 -1.523 -4.631 c -0.089 -0.171 -0.167 -0.348 -0.26 -0.513 l -0.328 -0.457 c -0.228 -0.294 -0.391 -0.634 -0.648 -0.895 c -0.254 -0.263 -0.499 -0.526 -0.736 -0.794 c -0.231 -0.269 -0.573 -0.507 -0.845 -0.765 c -2.371 -1.957 -5.345 -2.986 -8.326 -3.022 c -2.991 -0.049 -5.953 0.881 -8.575 2.491 c -3.06 1.878 -7.062 0.921 -8.941 -2.139 c -1.878 -3.06 -0.921 -7.062 2.139 -8.941 c 0.239 -0.147 0.484 -0.276 0.734 -0.389 l 0.192 -0.084 c 4.82 -2.135 10.329 -3.068 15.657 -2.215 c 5.316 0.813 10.355 3.444 13.929 7.361 c 0.431 0.511 0.884 0.963 1.28 1.528 c 0.398 0.56 0.788 1.124 1.168 1.689 c 0.383 0.563 0.644 1.191 0.96 1.785 l 0.445 0.903 c 0.125 0.307 0.228 0.621 0.34 0.931 c 0.979 2.477 1.292 5.025 1.411 7.473 c 0.082 4.906 -0.964 9.498 -2.656 13.671 c -1.682 4.186 -3.932 8.025 -6.56 11.52 c -0.634 0.891 -1.346 1.721 -2.046 2.554 c -0.679 0.835 -1.446 1.662 -2.208 2.437 c -1.528 1.555 -3.122 2.969 -4.743 4.345 c -3.239 2.747 -6.616 5.273 -10.075 7.668 C 48.418 85.911 44.72 88.168 40.956 90 z" style="stroke: none; stroke-width: 1; stroke-dasharray: none; stroke-linecap: butt; stroke-linejoin: miter; stroke-miterlimit: 10; fill: rgb(229,56,85); fill-rule: nonzero; opacity: 1;" transform=" matrix(1 0 0 1 0 0) " stroke-linecap="round"/>
	<circle cx="48.727999999999994" cy="7.928" r="7.928" style="stroke: none; stroke-width: 1; stroke-dasharray: none; stroke-linecap: butt; stroke-linejoin: miter; stroke-miterlimit: 10; fill: rgb(229,56,85); fill-rule: nonzero; opacity: 1;" transform="  matrix(1 0 0 1 0 0) "/>
	<path d="M 40.956 90 c 4.223 -5.274 7.994 -10.919 10.543 -16.922 c 1.267 -2.994 2.205 -6.073 2.656 -9.128 c 0.455 -3.054 0.409 -6.071 -0.182 -8.886 c -0.452 -2.153 0.927 -4.266 3.081 -4.718 c 2.153 -0.452 4.266 0.927 4.718 3.081 c 0.054 0.256 0.082 0.512 0.085 0.764 l 0 0.111 c 0.033 3.899 -0.709 7.681 -1.952 11.139 c -1.243 3.467 -2.964 6.633 -4.933 9.541 C 51.01 80.794 46.121 85.638 40.956 90 z" style="stroke: none; stroke-width: 1; stroke-dasharray: none; stroke-linecap: butt; stroke-linejoin: miter; stroke-miterlimit: 10; fill: rgb(229,56,85); fill-rule: nonzero; opacity: 1;" transform=" matrix(1 0 0 1 0 0) " stroke-linecap="round"/>
	<circle cx="57.323" cy="42.863" r="4.723" style="stroke: none; stroke-width: 1; stroke-dasharray: none; stroke-linecap: butt; stroke-linejoin: miter; stroke-miterlimit: 10; fill: rgb(229,56,85); fill-rule: nonzero; opacity: 1;" transform="  matrix(1 0 0 1 0 0) "/>
	<path d="M 40.956 90 c -2.784 -2.686 -5.292 -5.808 -7.175 -9.448 c -1.893 -3.626 -3.087 -7.779 -3.428 -12.073 l -0.01 -0.13 c -0.155 -1.954 1.303 -3.663 3.256 -3.818 c 1.953 -0.155 3.663 1.303 3.818 3.256 c 0.029 0.364 -0.003 0.736 -0.079 1.075 c -0.771 3.356 -0.898 6.937 -0.253 10.543 C 37.717 83.011 39.093 86.605 40.956 90 z" style="stroke: none; stroke-width: 1; stroke-dasharray: none; stroke-linecap: butt; stroke-linejoin: miter; stroke-miterlimit: 10; fill: rgb(229,56,85); fill-rule: nonzero; opacity: 1;" transform=" matrix(1 0 0 1 0 0) " stroke-linecap="round"/>
	<circle cx="34.241" cy="58.471" r="4.171" style="stroke: none; stroke-width: 1; stroke-dasharray: none; stroke-linecap: butt; stroke-linejoin: miter; stroke-miterlimit: 10; fill: rgb(229,56,85); fill-rule: nonzero; opacity: 1;" transform="  matrix(1 0 0 1 0 0) "/>
</g>
</svg>