<svg xmlns="http://www.w3.org/2000/svg" xmlns:xlink="http://www.w3.org/1999/xlink" version="1.1" width="256" height="256" viewBox="0 0 256 256" xml:space="preserve">
<g style="stroke: none; stroke-width: 0; stroke-dasharray: none; stroke-linecap: butt; stroke-linejoin: miter; stroke-miterlimit: 10; fill: none; fill-rule: nonzero; opacity: 1;" transform="translate(1.4065934065934016 1.4065934065934016) scale(2.81 2.81)">
	<path d="M 8.5 18.218 l 2.58 2.58 c 0.231 0.231 0.586 0.283 0.874 0.129 l 3.092 -1.66 c 0.229 -0.123 0.505 -0.117 0.728 0.016 l 4.511 2.677 c 0.322 0.191 0.451 0.59 0.301 0.933 c -0.385 0.877 -1.087 2.485 -1.366 3.196 c -0.059 0.15 -0.146 0.287 -0.267 0.392 c -3.007 2.606 -8.988 -0.569 -13.567 -5.148 C 0.807 16.754 -2.368 10.772 0.238 7.766 C 0.343 7.644 0.48 7.557 0.63 7.498 C 1.34 7.22 2.949 6.518 3.826 6.132 c 0.343 -0.151 0.742 -0.021 0.933 0.301 l 2.677 4.511 c 0.132 0.223 0.138 0.5 0.016 0.728 l -1.66 3.092 c -0.154 0.288 -0.102 0.643 0.129 0.874 L 8.5 18.218 z" style="stroke: none; stroke-width: 1; stroke-dasharray: none; stroke-linecap: butt; stroke-linejoin: miter; stroke-miterlimit: 10; fill: rgb(226,82,82); fill-rule: nonzero; opacity: 1;" transform=" matrix(2.8008 0 0 2.8008 1.9639999999999986 1.9639999999999702) " stroke-linecap="round"/>
	<path d="M 35.342 13.264 v 24.199 c 0 1.119 0.907 2.026 2.026 2.026 h 11.894 v 7.923 c 0 0.866 0.988 1.361 1.682 0.843 l 11.727 -8.766 h 25.303 c 1.119 0 2.026 -0.907 2.026 -2.026 V 13.264 c 0 -1.119 -0.907 -2.026 -2.026 -2.026 H 37.368 C 36.249 11.238 35.342 12.145 35.342 13.264 z" style="stroke: none; stroke-width: 1; stroke-dasharray: none; stroke-linecap: butt; stroke-linejoin: miter; stroke-miterlimit: 10; fill: rgb(255,226,102); fill-rule: nonzero; opacity: 1;" transform=" matrix(1 0 0 1 0 0) " stroke-linecap="round"/>
	<path d="M 48.707 31.766 h -5.64 c -0.383 0 -0.734 -0.214 -0.909 -0.554 s -0.146 -0.75 0.075 -1.062 l 5.146 -7.233 c 0.36 -0.506 0.41 -1.146 0.136 -1.71 c -0.126 -0.257 -0.508 -0.86 -1.35 -0.898 c -0.001 0 -0.003 0 -0.004 0 c -1.184 0 -2.071 0.889 -2.071 1.981 c 0 0.565 -0.458 1.023 -1.023 1.023 s -1.023 -0.458 -1.023 -1.023 c 0 -2.221 1.807 -4.028 4.028 -4.028 l 0.183 0.004 c 1.345 0.061 2.503 0.825 3.098 2.045 c 0.599 1.229 0.481 2.682 -0.309 3.792 l -3.996 5.617 h 3.658 c 0.565 0 1.023 0.458 1.023 1.023 S 49.273 31.766 48.707 31.766 z" style="stroke: none; stroke-width: 1; stroke-dasharray: none; stroke-linecap: butt; stroke-linejoin: miter; stroke-miterlimit: 10; fill: rgb(226,82,82); fill-rule: nonzero; opacity: 1;" transform=" matrix(1 0 0 1 0 0) " stroke-linecap="round"/>
	<path d="M 58.635 31.766 c -0.565 0 -1.023 -0.458 -1.023 -1.023 v -1.107 h -5.669 c -0.384 0 -0.735 -0.215 -0.91 -0.556 s -0.145 -0.752 0.079 -1.063 l 6.692 -9.329 c 0.26 -0.361 0.724 -0.512 1.144 -0.378 c 0.423 0.136 0.71 0.529 0.71 0.974 v 8.306 h 1.12 c 0.565 0 1.023 0.458 1.023 1.023 c 0 0.565 -0.457 1.023 -1.023 1.023 h -1.12 v 1.107 C 59.658 31.309 59.2 31.766 58.635 31.766 z M 53.936 27.592 h 3.676 v -5.126 L 53.936 27.592 z" style="stroke: none; stroke-width: 1; stroke-dasharray: none; stroke-linecap: butt; stroke-linejoin: miter; stroke-miterlimit: 10; fill: rgb(226,82,82); fill-rule: nonzero; opacity: 1;" transform=" matrix(1 0 0 1 0 0) " stroke-linecap="round"/>
	<path d="M 77.506 31.766 c -0.176 0 -0.354 -0.045 -0.516 -0.141 c -0.487 -0.286 -0.65 -0.912 -0.365 -1.399 l 5.818 -9.918 h -4.936 c -0.565 0 -1.023 -0.458 -1.023 -1.023 c 0 -0.565 0.457 -1.023 1.023 -1.023 h 6.722 c 0.367 0 0.705 0.196 0.888 0.514 c 0.182 0.318 0.18 0.71 -0.006 1.026 l -6.722 11.458 C 78.199 31.586 77.856 31.766 77.506 31.766 z" style="stroke: none; stroke-width: 1; stroke-dasharray: none; stroke-linecap: butt; stroke-linejoin: miter; stroke-miterlimit: 10; fill: rgb(226,82,82); fill-rule: nonzero; opacity: 1;" transform=" matrix(1 0 0 1 0 0) " stroke-linecap="round"/>
	<path d="M 63.859 34.216 c -0.176 0 -0.354 -0.045 -0.516 -0.141 c -0.487 -0.286 -0.65 -0.912 -0.365 -1.399 l 9.596 -16.358 c 0.285 -0.487 0.912 -0.65 1.399 -0.365 c 0.487 0.286 0.65 0.912 0.365 1.399 l -9.596 16.358 C 64.552 34.036 64.209 34.216 63.859 34.216 z" style="stroke: none; stroke-width: 1; stroke-dasharray: none; stroke-linecap: butt; stroke-linejoin: miter; stroke-miterlimit: 10; fill: rgb(226,82,82); fill-rule: nonzero; opacity: 1;" transform=" matrix(1 0 0 1 0 0) " stroke-linecap="round"/>
</g>
</svg>