<svg xmlns="http://www.w3.org/2000/svg" xmlns:xlink="http://www.w3.org/1999/xlink" version="1.1" width="256" height="256" viewBox="0 0 256 256" xml:space="preserve">
<g style="stroke: none; stroke-width: 0; stroke-dasharray: none; stroke-linecap: butt; stroke-linejoin: miter; stroke-miterlimit: 10; fill: none; fill-rule: nonzero; opacity: 1;" transform="translate(1.4065934065934016 1.4065934065934016) scale(2.81 2.81)">
	<path d="M 60.453 60.43 C 54.04 44.998 43.689 34.778 29.57 29.547 L 6.408 52.709 c -8.528 8.528 -8.528 22.355 0 30.883 l 0 0 c 8.528 8.528 22.355 8.528 30.883 0 L 60.453 60.43 z" style="stroke: none; stroke-width: 1; stroke-dasharray: none; stroke-linecap: butt; stroke-linejoin: miter; stroke-miterlimit: 10; fill: rgb(240,240,240); fill-rule: nonzero; opacity: 1;" transform=" matrix(1 0 0 1 0 0) " stroke-linecap="round"/>
	<path d="M 5.955 83.116 l 0.012 -0.012 c 0.147 0.163 0.284 0.331 0.441 0.488 C 6.252 83.436 6.104 83.275 5.955 83.116 L 5.955 83.116 z" style="stroke: none; stroke-width: 1; stroke-dasharray: none; stroke-linecap: butt; stroke-linejoin: miter; stroke-miterlimit: 10; fill: rgb(204,204,204); fill-rule: nonzero; opacity: 1;" transform=" matrix(1 0 0 1 0 0) " stroke-linecap="round"/>
	<path d="M 6.408 83.592 c 4.988 4.988 13.076 4.988 18.065 0 l 29.572 -29.572 l 6.409 6.409 L 37.291 83.592 C 28.763 92.12 14.936 92.12 6.408 83.592 z" style="stroke: none; stroke-width: 1; stroke-dasharray: none; stroke-linecap: butt; stroke-linejoin: miter; stroke-miterlimit: 10; fill: rgb(204,204,204); fill-rule: nonzero; opacity: 1;" transform=" matrix(1 0 0 1 0 0) " stroke-linecap="round"/>
	<path d="M 60.43 60.453 L 29.547 29.57 L 52.709 6.408 c 8.528 -8.528 22.355 -8.528 30.883 0 l 0 0 c 8.528 8.528 8.528 22.355 0 30.883 L 60.43 60.453 z" style="stroke: none; stroke-width: 1; stroke-dasharray: none; stroke-linecap: butt; stroke-linejoin: miter; stroke-miterlimit: 10; fill: rgb(198,16,16); fill-rule: nonzero; opacity: 1;" transform=" matrix(1 0 0 1 0 0) " stroke-linecap="round"/>
	<path d="M 83.116 5.955 l -0.012 0.012 c 0.163 0.147 0.331 0.284 0.488 0.441 C 83.436 6.252 83.275 6.104 83.116 5.955 L 83.116 5.955 z" style="stroke: none; stroke-width: 1; stroke-dasharray: none; stroke-linecap: butt; stroke-linejoin: miter; stroke-miterlimit: 10; fill: rgb(170,15,15); fill-rule: nonzero; opacity: 1;" transform=" matrix(1 0 0 1 0 0) " stroke-linecap="round"/>
	<path d="M 83.592 6.408 c 4.988 4.988 4.988 13.076 0 18.065 L 54.021 54.044 l 6.409 6.409 l 23.162 -23.162 C 92.12 28.763 92.12 14.936 83.592 6.408 z" style="stroke: none; stroke-width: 1; stroke-dasharray: none; stroke-linecap: butt; stroke-linejoin: miter; stroke-miterlimit: 10; fill: rgb(170,15,15); fill-rule: nonzero; opacity: 1;" transform=" matrix(1 0 0 1 0 0) " stroke-linecap="round"/>
</g>
</svg>