<svg xmlns="http://www.w3.org/2000/svg" xmlns:xlink="http://www.w3.org/1999/xlink" version="1.1" width="256" height="256" viewBox="0 0 256 256" xml:space="preserve">
<g style="stroke: none; stroke-width: 0; stroke-dasharray: none; stroke-linecap: butt; stroke-linejoin: miter; stroke-miterlimit: 10; fill: none; fill-rule: nonzero; opacity: 1;" transform="translate(1.4065934065934016 1.4065934065934016) scale(2.81 2.81)">
	<path d="M 45 0 C 25.463 0 9.625 15.838 9.625 35.375 c 0 8.722 3.171 16.693 8.404 22.861 L 45 90 l 26.97 -31.765 c 5.233 -6.167 8.404 -14.139 8.404 -22.861 C 80.375 15.838 64.537 0 45 0 z" style="stroke: none; stroke-width: 1; stroke-dasharray: none; stroke-linecap: butt; stroke-linejoin: miter; stroke-miterlimit: 10; fill: rgb(204,0,0); fill-rule: nonzero; opacity: 1;" transform=" matrix(1 0 0 1 0 0) " stroke-linecap="round"/>
	<circle cx="45" cy="34.16" r="28" style="stroke: none; stroke-width: 1; stroke-dasharray: none; stroke-linecap: butt; stroke-linejoin: miter; stroke-miterlimit: 10; fill: rgb(243,244,245); fill-rule: nonzero; opacity: 1;" transform="  matrix(1 0 0 1 0 0) "/>
	<circle cx="45" cy="34.16" r="25" style="stroke: none; stroke-width: 1; stroke-dasharray: none; stroke-linecap: butt; stroke-linejoin: miter; stroke-miterlimit: 10; fill: rgb(0,0,102); fill-rule: nonzero; opacity: 1;" transform="  matrix(1 0 0 1 0 0) "/>
	<path d="M 34.058 22.27 v -5.827 h -4.404 v 5.827 l -4.527 -3.274 c -0.701 0.917 -1.337 1.884 -1.907 2.894 l 1.278 0.924 h -1.773 c -1.013 1.986 -1.774 4.122 -2.228 6.371 h 4.001 l -4.427 3.202 C 20.028 32.972 20 33.561 20 34.157 c 0 0.469 0.016 0.936 0.041 1.398 h 1.556 l 8.057 -5.827 v 5.827 h 4.404 v -5.827 l 8.057 5.827 h 2.954 v -2.137 l -5.854 -4.234 h 5.854 v -6.371 h -5.854 l 5.854 -4.234 v -2.137 h -2.954 L 34.058 22.27 z" style="stroke: none; stroke-width: 1; stroke-dasharray: none; stroke-linecap: butt; stroke-linejoin: miter; stroke-miterlimit: 10; fill: rgb(243,244,245); fill-rule: nonzero; opacity: 1;" transform=" matrix(1 0 0 1 0 0) " stroke-linecap="round"/>
	<path d="M 41.558 46.451 l -3.337 0.29 l 0.459 3.318 l -2.308 -2.428 l -2.308 2.428 l 0.46 -3.318 l -3.337 -0.29 l 2.881 -1.709 l -1.853 -2.79 l 3.132 1.186 l 1.026 -3.189 l 1.026 3.189 l 3.132 -1.186 l -1.853 2.79 M 55.837 49.509 l -0.806 -1.212 l 1.362 0.516 l 0.445 -1.386 l 0.446 1.386 l 1.361 -0.516 l -0.806 1.212 l 1.252 0.743 l -1.45 0.126 l 0.2 1.441 l -1.003 -1.054 l -1.003 1.054 l 0.2 -1.441 l -1.45 -0.126 M 55.837 27.944 l -0.806 -1.212 l 1.362 0.516 l 0.445 -1.386 l 0.446 1.385 l 1.361 -0.515 l -0.806 1.212 l 1.252 0.743 l -1.45 0.126 l 0.2 1.441 l -1.003 -1.054 l -1.003 1.054 l 0.2 -1.441 l -1.45 -0.126 M 47.749 36.705 l -0.806 -1.212 l 1.362 0.516 l 0.446 -1.386 l 0.446 1.386 l 1.362 -0.516 l -0.806 1.212 l 1.252 0.743 l -1.45 0.126 l 0.2 1.441 l -1.003 -1.054 l -1.003 1.054 l 0.2 -1.441 l -1.45 -0.126 M 63.027 34.548 l -0.807 -1.212 l 1.362 0.516 l 0.442 -1.386 l 0.448 1.386 l 1.359 -0.516 l -0.803 1.212 l 1.251 0.743 l -1.45 0.126 l 0.199 1.441 l -1.003 -1.054 l -1.003 1.054 l 0.199 -1.441 l -1.448 -0.126 M 60.073 40.902 l -0.793 0.491 l 0.223 -0.905 l -0.712 -0.601 l 0.93 -0.068 l 0.352 -0.863 l 0.352 0.863 l 0.93 0.068 l -0.712 0.601 l 0.223 0.905" style="stroke: none; stroke-width: 1; stroke-dasharray: none; stroke-linecap: butt; stroke-linejoin: miter; stroke-miterlimit: 10; fill: rgb(255,255,255); fill-rule: nonzero; opacity: 1;" transform=" matrix(1 0 0 1 0 0) " stroke-linecap="round"/>
	<path d="M 33.177 16.443 h -2.643 v 7.645 h -8.417 c -0.541 1.227 -0.991 2.502 -1.331 3.822 h 9.748 v 7.645 h 2.643 V 27.91 h 11.892 v -3.822 H 33.177 V 16.443 z" style="stroke: none; stroke-width: 1; stroke-dasharray: none; stroke-linecap: butt; stroke-linejoin: miter; stroke-miterlimit: 10; fill: rgb(204,0,0); fill-rule: nonzero; opacity: 1;" transform=" matrix(1 0 0 1 0 0) " stroke-linecap="round"/>
	<path d="M 27.451 29.185 l -7.441 5.381 c 0.006 0.331 0.013 0.662 0.031 0.989 h 0.571 l 8.809 -6.371 H 27.451 z" style="stroke: none; stroke-width: 1; stroke-dasharray: none; stroke-linecap: butt; stroke-linejoin: miter; stroke-miterlimit: 10; fill: rgb(204,0,0); fill-rule: nonzero; opacity: 1;" transform=" matrix(1 0 0 1 0 0) " stroke-linecap="round"/>
	<polygon points="36.26,29.18 45.07,35.55 45.07,35.55 45.07,34.13 38.23,29.18 " style="stroke: none; stroke-width: 1; stroke-dasharray: none; stroke-linecap: butt; stroke-linejoin: miter; stroke-miterlimit: 10; fill: rgb(204,0,0); fill-rule: nonzero; opacity: 1;" transform="  matrix(1 0 0 1 0 0) "/>
	<polygon points="45.07,16.44 43.1,16.44 34.29,22.81 36.26,22.81 " style="stroke: none; stroke-width: 1; stroke-dasharray: none; stroke-linecap: butt; stroke-linejoin: miter; stroke-miterlimit: 10; fill: rgb(204,0,0); fill-rule: nonzero; opacity: 1;" transform="  matrix(1 0 0 1 0 0) "/>
	<path d="M 24.123 20.407 c -0.212 0.322 -0.418 0.648 -0.615 0.979 l 1.973 1.427 h 1.969 L 24.123 20.407 z" style="stroke: none; stroke-width: 1; stroke-dasharray: none; stroke-linecap: butt; stroke-linejoin: miter; stroke-miterlimit: 10; fill: rgb(204,0,0); fill-rule: nonzero; opacity: 1;" transform=" matrix(1 0 0 1 0 0) " stroke-linecap="round"/>
</g>
</svg>