<svg xmlns="http://www.w3.org/2000/svg" xmlns:xlink="http://www.w3.org/1999/xlink" version="1.1" width="256" height="256" viewBox="0 0 256 256" xml:space="preserve">
<g style="stroke: none; stroke-width: 0; stroke-dasharray: none; stroke-linecap: butt; stroke-linejoin: miter; stroke-miterlimit: 10; fill: none; fill-rule: nonzero; opacity: 1;" transform="translate(1.4065934065934016 1.4065934065934016) scale(2.81 2.81)">
	<path d="M 82.391 18.148 H 66.624 V 16.3 c 0 -6.005 -4.886 -10.89 -10.89 -10.89 H 34.266 c -6.005 0 -10.89 4.885 -10.89 10.89 v 1.849 H 7.609 C 3.407 18.148 0 21.555 0 25.757 v 51.225 c 0 4.202 3.407 7.609 7.609 7.609 h 74.783 c 4.202 0 7.609 -3.407 7.609 -7.609 V 25.757 C 90 21.555 86.593 18.148 82.391 18.148 z M 29.512 16.3 c 0 -2.621 2.133 -4.754 4.754 -4.754 h 21.467 c 2.622 0 4.754 2.133 4.754 4.754 v 1.849 H 29.512 V 16.3 z M 45 74.381 c -12.709 0 -23.011 -10.303 -23.011 -23.011 S 32.291 28.358 45 28.358 c 12.709 0 23.011 10.303 23.011 23.011 S 57.709 74.381 45 74.381 z" style="stroke: none; stroke-width: 1; stroke-dasharray: none; stroke-linecap: butt; stroke-linejoin: miter; stroke-miterlimit: 10; fill: rgb(0,0,0); fill-rule: nonzero; opacity: 1;" transform=" matrix(1 0 0 1 0 0) " stroke-linecap="round"/>
	<polygon points="49.15,39.26 40.85,39.26 40.85,47.22 32.89,47.22 32.89,55.52 40.85,55.52 40.85,63.48 49.15,63.48 49.15,55.52 57.11,55.52 57.11,47.22 49.15,47.22 " style="stroke: none; stroke-width: 1; stroke-dasharray: none; stroke-linecap: butt; stroke-linejoin: miter; stroke-miterlimit: 10; fill: rgb(0,0,0); fill-rule: nonzero; opacity: 1;" transform="  matrix(1 0 0 1 0 0) "/>
</g>
</svg>