<svg xmlns="http://www.w3.org/2000/svg" xmlns:xlink="http://www.w3.org/1999/xlink" version="1.1" width="256" height="256" viewBox="0 0 256 256" xml:space="preserve">
<g style="stroke: none; stroke-width: 0; stroke-dasharray: none; stroke-linecap: butt; stroke-linejoin: miter; stroke-miterlimit: 10; fill: none; fill-rule: nonzero; opacity: 1;" transform="translate(1.4065934065934016 1.4065934065934016) scale(2.81 2.81)">
	<path d="M 88.842 28.045 L 49.63 1.206 c -2.314 -1.584 -5.357 -1.61 -7.698 -0.065 L 1.188 28.024 c -1.802 1.189 -0.96 3.994 1.199 3.994 h 4.188 v 53.029 c 0 2.735 2.218 4.953 4.953 4.953 h 66.726 c 2.735 0 4.953 -2.218 4.953 -4.953 V 32.018 h 4.405 C 89.753 32.018 90.608 29.253 88.842 28.045 z" style="stroke: none; stroke-width: 1; stroke-dasharray: none; stroke-linecap: butt; stroke-linejoin: miter; stroke-miterlimit: 10; fill: rgb(183,35,35); fill-rule: nonzero; opacity: 1;" transform=" matrix(1 0 0 1 0 0) " stroke-linecap="round"/>
	<circle cx="44.905" cy="51.685" r="24.885" style="stroke: none; stroke-width: 1; stroke-dasharray: none; stroke-linecap: butt; stroke-linejoin: miter; stroke-miterlimit: 10; fill: rgb(255,255,255); fill-rule: nonzero; opacity: 1;" transform="  matrix(1 0 0 1 0 0) "/>
	<path d="M 59.012 46.453 h -8.871 v -8.87 c 0 -0.55 -0.445 -0.995 -0.995 -0.995 h -8.479 c -0.55 0 -0.995 0.446 -0.995 0.995 v 8.87 h -8.87 c -0.55 0 -0.995 0.445 -0.995 0.995 v 8.479 c 0 0.55 0.446 0.995 0.995 0.995 h 8.87 v 8.87 c 0 0.55 0.446 0.995 0.995 0.995 h 8.479 c 0.55 0 0.995 -0.445 0.995 -0.995 v -8.87 h 8.871 c 0.55 0 0.995 -0.445 0.995 -0.995 v -8.479 C 60.008 46.898 59.563 46.453 59.012 46.453 z" style="stroke: none; stroke-width: 1; stroke-dasharray: none; stroke-linecap: butt; stroke-linejoin: miter; stroke-miterlimit: 10; fill: rgb(183,35,35); fill-rule: nonzero; opacity: 1;" transform=" matrix(1 0 0 1 0 0) " stroke-linecap="round"/>
</g>
</svg>