<svg xmlns="http://www.w3.org/2000/svg" xmlns:xlink="http://www.w3.org/1999/xlink" version="1.1" width="256" height="256" viewBox="0 0 256 256" xml:space="preserve">
<g style="stroke: none; stroke-width: 0; stroke-dasharray: none; stroke-linecap: butt; stroke-linejoin: miter; stroke-miterlimit: 10; fill: none; fill-rule: nonzero; opacity: 1;" transform="translate(1.4065934065934016 1.4065934065934016) scale(2.81 2.81)">
	<path d="M 16.673 63.854 c -0.006 0 -0.013 0 -0.02 0 c -0.406 -0.008 -0.767 -0.261 -0.913 -0.64 L 9.796 47.837 H 1 c -0.552 0 -1 -0.447 -1 -1 s 0.448 -1 1 -1 h 9.482 c 0.413 0 0.784 0.254 0.933 0.64 l 5.309 13.735 L 29.45 30.728 c 0.161 -0.372 0.551 -0.603 0.937 -0.604 c 0.406 0.008 0.767 0.26 0.914 0.638 l 8.202 21.147 l 3.145 -6.093 c 0.171 -0.333 0.515 -0.542 0.889 -0.542 H 89 c 0.553 0 1 0.448 1 1 c 0 0.553 -0.447 1 -1 1 H 44.144 L 40.261 54.8 c -0.181 0.349 -0.552 0.558 -0.942 0.54 c -0.393 -0.021 -0.737 -0.271 -0.879 -0.638 l -8.122 -20.94 L 17.591 63.25 C 17.433 63.617 17.071 63.854 16.673 63.854 z" style="stroke: none; stroke-width: 1; stroke-dasharray: none; stroke-linecap: butt; stroke-linejoin: miter; stroke-miterlimit: 10; fill: rgb(255,157,0); fill-rule: nonzero; opacity: 1;" transform=" matrix(1 0 0 1 0 0) " stroke-linecap="round"/>
	<path d="M 25.318 28.945 c 0.885 -2.05 2.913 -3.357 5.153 -3.319 c 2.232 0.042 4.217 1.429 5.025 3.51 l 4.897 12.625 c 0.906 -0.631 1.998 -0.986 3.143 -0.986 h 31.628 c 2.208 -7.422 1.667 -14.533 -2.452 -19.186 C 66.355 14.41 54.32 13.519 45 22.686 c -9.32 -9.167 -21.355 -8.276 -27.71 -1.097 c -5.308 5.996 -4.677 16.07 0.138 25.636 L 25.318 28.945 z" style="stroke: none; stroke-width: 1; stroke-dasharray: none; stroke-linecap: butt; stroke-linejoin: miter; stroke-miterlimit: 10; fill: rgb(201,39,39); fill-rule: nonzero; opacity: 1;" transform=" matrix(1 0 0 1 0 0) " stroke-linecap="round"/>
	<path d="M 46.885 51.774 l -2.625 5.089 c -0.993 1.922 -3.011 3.086 -5.18 2.97 c -2.16 -0.115 -4.052 -1.487 -4.835 -3.504 l -4.149 -10.695 L 24.84 57.81 C 30.174 63.452 39.027 70.661 45 73.993 c 7.077 -3.948 18.221 -13.35 22.731 -19.124 c 0.79 -1.011 1.528 -2.045 2.22 -3.094 H 46.885 z" style="stroke: none; stroke-width: 1; stroke-dasharray: none; stroke-linecap: butt; stroke-linejoin: miter; stroke-miterlimit: 10; fill: rgb(201,39,39); fill-rule: nonzero; opacity: 1;" transform=" matrix(1 0 0 1 0 0) " stroke-linecap="round"/>
</g>
</svg>