<svg xmlns="http://www.w3.org/2000/svg" xmlns:xlink="http://www.w3.org/1999/xlink" version="1.1" width="256" height="256" viewBox="0 0 256 256" xml:space="preserve">
<g style="stroke: none; stroke-width: 0; stroke-dasharray: none; stroke-linecap: butt; stroke-linejoin: miter; stroke-miterlimit: 10; fill: none; fill-rule: nonzero; opacity: 1;" transform="translate(1.4065934065934016 1.4065934065934016) scale(2.81 2.81)">
	<circle cx="58.76" cy="45" r="30.24" style="stroke: none; stroke-width: 1; stroke-dasharray: none; stroke-linecap: butt; stroke-linejoin: miter; stroke-miterlimit: 10; fill: rgb(249,246,249); fill-rule: nonzero; opacity: 1;" transform="  matrix(1 0 0 1 0 0) "/>
	<path d="M 58.76 76.24 c -17.226 0 -31.24 -14.015 -31.24 -31.24 c 0 -17.226 14.014 -31.24 31.24 -31.24 C 75.985 13.76 90 27.774 90 45 C 90 62.226 75.985 76.24 58.76 76.24 z M 58.76 15.76 c -16.123 0 -29.24 13.117 -29.24 29.24 s 13.117 29.24 29.24 29.24 S 88 61.123 88 45 S 74.883 15.76 58.76 15.76 z" style="stroke: none; stroke-width: 1; stroke-dasharray: none; stroke-linecap: butt; stroke-linejoin: miter; stroke-miterlimit: 10; fill: rgb(0,0,0); fill-rule: nonzero; opacity: 1;" transform=" matrix(1 0 0 1 0 0) " stroke-linecap="round"/>
	<path d="M 19.787 46 H 1 c -0.552 0 -1 -0.448 -1 -1 s 0.448 -1 1 -1 h 18.787 c 0.552 0 1 0.448 1 1 S 20.339 46 19.787 46 z" style="stroke: none; stroke-width: 1; stroke-dasharray: none; stroke-linecap: butt; stroke-linejoin: miter; stroke-miterlimit: 10; fill: rgb(0,0,0); fill-rule: nonzero; opacity: 1;" transform=" matrix(1 0 0 1 0 0) " stroke-linecap="round"/>
	<path d="M 23.28 37.268 H 4.493 c -0.552 0 -1 -0.448 -1 -1 s 0.448 -1 1 -1 H 23.28 c 0.552 0 1 0.448 1 1 S 23.833 37.268 23.28 37.268 z" style="stroke: none; stroke-width: 1; stroke-dasharray: none; stroke-linecap: butt; stroke-linejoin: miter; stroke-miterlimit: 10; fill: rgb(0,0,0); fill-rule: nonzero; opacity: 1;" transform=" matrix(1 0 0 1 0 0) " stroke-linecap="round"/>
	<path d="M 23.28 54.732 H 4.493 c -0.552 0 -1 -0.447 -1 -1 s 0.448 -1 1 -1 H 23.28 c 0.552 0 1 0.447 1 1 S 23.833 54.732 23.28 54.732 z" style="stroke: none; stroke-width: 1; stroke-dasharray: none; stroke-linecap: butt; stroke-linejoin: miter; stroke-miterlimit: 10; fill: rgb(0,0,0); fill-rule: nonzero; opacity: 1;" transform=" matrix(1 0 0 1 0 0) " stroke-linecap="round"/>
	<path d="M 26.773 28.536 H 7.986 c -0.552 0 -1 -0.448 -1 -1 s 0.448 -1 1 -1 h 18.787 c 0.552 0 1 0.448 1 1 S 27.325 28.536 26.773 28.536 z" style="stroke: none; stroke-width: 1; stroke-dasharray: none; stroke-linecap: butt; stroke-linejoin: miter; stroke-miterlimit: 10; fill: rgb(0,0,0); fill-rule: nonzero; opacity: 1;" transform=" matrix(1 0 0 1 0 0) " stroke-linecap="round"/>
	<path d="M 26.773 63.464 H 7.986 c -0.552 0 -1 -0.447 -1 -1 s 0.448 -1 1 -1 h 18.787 c 0.552 0 1 0.447 1 1 S 27.325 63.464 26.773 63.464 z" style="stroke: none; stroke-width: 1; stroke-dasharray: none; stroke-linecap: butt; stroke-linejoin: miter; stroke-miterlimit: 10; fill: rgb(0,0,0); fill-rule: nonzero; opacity: 1;" transform=" matrix(1 0 0 1 0 0) " stroke-linecap="round"/>
	<polygon points="77.53,39.33 64.44,39.33 64.44,26.23 53.09,26.23 53.09,39.33 39.99,39.33 39.99,50.67 53.09,50.67 53.09,63.77 64.44,63.77 64.44,50.67 77.53,50.67 " style="stroke: none; stroke-width: 1; stroke-dasharray: none; stroke-linecap: butt; stroke-linejoin: miter; stroke-miterlimit: 10; fill: rgb(226,66,78); fill-rule: nonzero; opacity: 1;" transform="  matrix(1 0 0 1 0 0) "/>
	<path d="M 64.435 64.767 h -11.35 c -0.553 0 -1 -0.447 -1 -1 V 51.675 H 39.993 c -0.552 0 -1 -0.447 -1 -1 v -11.35 c 0 -0.552 0.448 -1 1 -1 h 12.092 V 26.233 c 0 -0.552 0.447 -1 1 -1 h 11.35 c 0.553 0 1 0.448 1 1 v 12.092 h 12.092 c 0.553 0 1 0.448 1 1 v 11.35 c 0 0.553 -0.447 1 -1 1 H 65.435 v 12.092 C 65.435 64.319 64.987 64.767 64.435 64.767 z M 54.085 62.767 h 9.35 V 50.675 c 0 -0.553 0.447 -1 1 -1 h 12.092 v -9.35 H 64.435 c -0.553 0 -1 -0.448 -1 -1 V 27.233 h -9.35 v 12.092 c 0 0.552 -0.447 1 -1 1 H 40.993 v 9.35 h 12.092 c 0.553 0 1 0.447 1 1 V 62.767 z" style="stroke: none; stroke-width: 1; stroke-dasharray: none; stroke-linecap: butt; stroke-linejoin: miter; stroke-miterlimit: 10; fill: rgb(0,0,0); fill-rule: nonzero; opacity: 1;" transform=" matrix(1 0 0 1 0 0) " stroke-linecap="round"/>
</g>
</svg>