<?xml version="1.0" encoding="utf-8"?>
<!-- Uploaded to: SVG Repo, www.svgrepo.com, Generator: SVG Repo Mixer Tools -->
<svg width="800px" height="800px" viewBox="0 -34.8 358.509 358.509" xmlns="http://www.w3.org/2000/svg"><defs><style>.a{fill:#ffffff;}.b{fill:#a98a75;}.c{fill:#a095c1;}.d{fill:#211715;}.e{fill:#b3b3b3;}</style></defs><path class="a" d="M100.883,152.971c2.14-2.24,4.032-4.214,5.128-5.323h2.671c1.952,1.973,6.418,6.683,10.33,10.76l-.582.276a25.728,25.728,0,0,1-10.74,2.412,28.009,28.009,0,0,1-11.9-2.8C97.469,156.546,99.248,154.681,100.883,152.971Z"/><path class="a" d="M151.1,74.235a6.824,6.824,0,0,1,4.966-1.722,6.334,6.334,0,0,1,5.637,3.259c1.877,3.386,1.69,9.565.326,13.366-.965,2.693-2.542,6.809-6.223,9.718a7.526,7.526,0,0,1-5.832,1.575l-.555-.1a44.125,44.125,0,0,1-2.089,5.385c-1.43,3.686-8.738,15.889-18.081,21.879,0,1.687,0,3.067,0,3.067a212.457,212.457,0,0,1-20.566,16.989h-2.671a212.567,212.567,0,0,1-20.565-16.989s0-1.232,0-2.853A40.843,40.843,0,0,1,74,117.623a51.9,51.9,0,0,1-9.534-18.754,7.39,7.39,0,0,1-6.252-1.681c-3.58-3.033-5.015-7.2-5.888-9.925-1.233-3.846-1.209-10.027.782-13.348a6.34,6.34,0,0,1,5.746-3.064,6.829,6.829,0,0,1,4.905,1.891s-10.4-35.33,43.53-35.33S151.1,74.235,151.1,74.235Z"/><path class="a" d="M310.743,98.5a6.745,6.745,0,0,1,4.87-1.8,6.258,6.258,0,0,1,5.628,3.11c1.917,3.308,1.85,9.411.576,13.19-.9,2.676-2.38,6.771-5.959,9.712a7.431,7.431,0,0,1-5.727,1.667l-.55-.092a43.433,43.433,0,0,1-1.96,5.356c-1.328,3.632-8.193,15.626-17.181,21.767a24.477,24.477,0,0,0,2.782,8.645c1.888,3.065,6.6,5.716,11.712,8.035l-.42,4.385q-.086,1.511-.165,3.1c-14.778,3.707-22.6,4.88-34.748,4.884-20.351.006-25.285-2.426-32.693-4.857-.006-3.359-.01-6.4-.011-9.05a42.78,42.78,0,0,0,9.357-4.077,4.159,4.159,0,0,0,1.4-1.068,3.337,3.337,0,0,0,.348-1.128c.384-2.183.78-4.378,1.164-6.561-5.015-2.182-9.48-5.866-13.723-10.922a51.254,51.254,0,0,1-9.77-18.336,7.291,7.291,0,0,1-6.2-1.538c-3.592-2.926-5.088-7.014-6-9.686-1.29-3.773-1.384-9.876.518-13.193a6.257,6.257,0,0,1,5.614-3.135,6.746,6.746,0,0,1,4.878,1.774s-7.464-41.9,44.548-41.9S310.743,98.5,310.743,98.5Z"/><path class="b" d="M21.8,173a30.4,30.4,0,0,0-2.1,4.2,142.008,142.008,0,0,0-7.051,25.146C9.105,224.247,5.736,253.854,2.41,284.8H201.332V195.048l-9.424-19.46c-1.98-4.744-4.077-7.71-8.4-12.3a48.073,48.073,0,0,0-12.2-9.765c-10.307-5.727-22.037-8.363-32.767-12.057L118.43,158.684a25.728,25.728,0,0,1-10.74,2.412,28.009,28.009,0,0,1-11.9-2.8L74.661,140.408a277.232,277.232,0,0,0-33.389,13.846A55.426,55.426,0,0,0,28.941,163.6,55.643,55.643,0,0,0,21.8,173Z"/><path class="a" d="M176.932,286.424c.933-8.467,1.438-13.9,2.662-21.372,2.532-16.668,4.8-37.608,9.984-59.376,2.028-8.484,5.256-17.148,11.7-23.016,3.528-3.2,7.872-5.316,12.168-7.392,6.276-3.024,16.219-6.787,23.449-9.62,0,23.749.312,81.333,0,120.776Z"/><path class="a" d="M303.45,286.581c0-37.623-.518-86.533,1.064-114.1l.42-4.385.026-.268c13.943,5.983,29.008,12.708,36.526,25.941,4.416,7.8,5.652,16.944,6.792,25.836,1.884,14.628,7.12,58.54,7.824,66.816Z"/><path class="c" d="M303.45,286.581c0-36.253-.481-82.985.9-110.993-14.779,3.706-22.6,4.88-34.75,4.884-20.354.006-25.287-2.426-32.695-4.856.055,27.389.263,76.116-.011,110.808Z"/><path class="d" d="M4.81,284.8c2.654-24.687,5.287-49.4,8.937-73.968.758-5.1,1.518-10.191,2.739-15.206a148.692,148.692,0,0,1,4.594-15.311C24.531,170.766,31.689,163,40.2,157.635a68.319,68.319,0,0,1,7.689-3.88q4.56-2.125,9.187-4.107c5.98-2.546,12.075-4.81,18.22-6.925,2.9-1,1.656-5.638-1.276-4.629a275.108,275.108,0,0,0-33.962,14.088,49.808,49.808,0,0,0-11.6,8.49,48.466,48.466,0,0,0-10.187,13.839,92.685,92.685,0,0,0-5,14.494,133.571,133.571,0,0,0-3.446,15.92c-1.792,11.494-3.288,23.036-4.695,34.583C3.292,254.591,1.634,269.7.01,284.8a2.415,2.415,0,0,0,2.4,2.4,2.455,2.455,0,0,0,2.4-2.4Z"/><path class="d" d="M137.9,143.783c8.282,2.838,16.8,4.993,24.911,8.319a57.968,57.968,0,0,1,11.308,6.009,54.714,54.714,0,0,1,8.952,8.241,36.506,36.506,0,0,1,6.761,10.447,2.414,2.414,0,0,0,3.284.861,2.465,2.465,0,0,0,.861-3.284c-3.182-7.539-9.082-14-15.5-18.971-7.236-5.612-16.026-8.833-24.662-11.6-4.876-1.563-9.8-2.988-14.64-4.647-2.929-1-4.186,3.631-1.276,4.628Z"/><path class="a" d="M106.011,147.648a212.567,212.567,0,0,1-20.565-16.989,91.606,91.606,0,0,0-9.381,9.256c4.733,7.194,9.834,15.29,15.572,22.676C95.845,158.3,103.32,150.37,106.011,147.648Z"/><path class="a" d="M108.682,147.648a212.457,212.457,0,0,0,20.566-16.989,91.606,91.606,0,0,1,9.381,9.256c-4.734,7.194-9.835,15.29-15.572,22.676C118.849,158.3,111.374,150.37,108.682,147.648Z"/><path class="d" d="M107.223,145.576a219.4,219.4,0,0,1-20.08-16.614,2.453,2.453,0,0,0-3.394,0,96.438,96.438,0,0,0-9.381,9.256,2.472,2.472,0,0,0-.375,2.908c5.152,7.838,10.2,15.738,15.947,23.162a2.418,2.418,0,0,0,3.394,0c4.835-4.939,9.52-10.024,14.375-14.943,2.171-2.2-1.221-5.6-3.4-3.394-4.854,4.919-9.539,10-14.374,14.943h3.394c-5.491-7.093-10.274-14.7-15.2-22.191l-.375,2.909a96.438,96.438,0,0,1,9.381-9.256H83.749A229.768,229.768,0,0,0,104.8,149.72a2.414,2.414,0,0,0,3.284-.861A2.459,2.459,0,0,0,107.223,145.576Z"/><path class="d" d="M109.894,149.72a229.768,229.768,0,0,0,21.051-17.364h-3.394a96.55,96.55,0,0,1,9.381,9.256l-.376-2.909c-4.923,7.489-9.705,15.1-15.2,22.191h3.394c-4.835-4.939-9.52-10.024-14.375-14.943-2.173-2.2-5.566,1.192-3.394,3.394,4.855,4.919,9.54,10,14.375,14.943a2.41,2.41,0,0,0,3.394,0c5.747-7.424,10.794-15.324,15.947-23.162a2.454,2.454,0,0,0-.375-2.908,96.438,96.438,0,0,0-9.381-9.256,2.451,2.451,0,0,0-3.394,0,219.536,219.536,0,0,1-20.08,16.614,2.477,2.477,0,0,0-.861,3.283A2.416,2.416,0,0,0,109.894,149.72Z"/><path class="d" d="M94.575,160.372a28.866,28.866,0,0,0,25.067.384,2.419,2.419,0,0,0,.861-3.283,2.454,2.454,0,0,0-3.284-.861A23.714,23.714,0,0,1,97,156.228a2.46,2.46,0,0,0-3.284.861,2.422,2.422,0,0,0,.861,3.283Z"/><path class="d" d="M39.732,203.847c-.173,20.933-1.384,41.845-2.157,62.76-.212,5.726-.388,11.457-.729,17.177-.184,3.086,4.617,3.075,4.8,0,.618-10.371.8-20.766,1.277-31.144q.747-16.17,1.244-32.348c.164-5.48.32-10.962.365-16.445.025-3.089-4.775-3.092-4.8,0Z"/><path class="e" d="M159.782,45.031a56.478,56.478,0,0,0-4.9-14.8c-8.659-17.161-27.553-27.472-46.433-27.795C96.024,2.222,85.37,5.52,76.494,12.087a25.513,25.513,0,0,0-9.011,11.159s-1.408.1-3.149.213C57.865,29.9,54.277,41.83,54.411,53.993A67.518,67.518,0,0,0,56.237,71.3a8.019,8.019,0,0,1,2.613-.453,6.7,6.7,0,0,1,5.439,2.5c1.155-6.536,1.151-15.053,9.36-24.395,1.7-1.935,6.431-3.6,10.778-5.261,4.137-1.584,17.131-1.387,22.342-1.046,10.9-1.448,25.075.177,32.841,6.9a37.111,37.111,0,0,1,6.318,6.485c3.592,5.362,4.365,10.857,4.629,18.792a6.656,6.656,0,0,1,5.511-2.317,8.074,8.074,0,0,1,2.377.461C161.274,64.564,161.567,54.45,159.782,45.031Z"/><path class="d" d="M65.452,71.045a9.8,9.8,0,0,0-10.634-1.73,9.324,9.324,0,0,0-4.962,6.16c-1.906,6.377-.328,13.929,3.255,19.449,2.386,3.676,6.194,6.986,10.873,6.438a2.475,2.475,0,0,0,2.4-2.4,2.414,2.414,0,0,0-2.4-2.4c-3.615.423-6.036-2.6-7.576-5.5a20.843,20.843,0,0,1-2.484-8.413,18.006,18.006,0,0,1,.3-4.888,10.326,10.326,0,0,1,.594-1.957c.125-.283.3-.538.442-.81.063-.1.128-.2.2-.293q-.246.3-.075.1a4.8,4.8,0,0,1,6.675-.354c2.258,2.105,5.66-1.282,3.395-3.394Z"/><path class="d" d="M152.8,75.932a4.734,4.734,0,0,1,4.175-.892,4.329,4.329,0,0,1,1.683.741c-.179-.133.375.362.449.435s.45.6.156.171c1.6,2.333,1.594,5.645,1.308,8.349a21.054,21.054,0,0,1-2.7,7.969c-1.391,2.462-3.989,5.908-7.251,5.412a2.478,2.478,0,0,0-2.952,1.676,2.419,2.419,0,0,0,1.676,2.953c7.994,1.215,12.729-6.43,15.007-12.969a22.746,22.746,0,0,0,.9-10.517c-.412-2.915-1.512-5.687-3.948-7.468a9.741,9.741,0,0,0-11.888.746c-2.339,2.026,1.068,5.409,3.394,3.394Z"/><path class="d" d="M147.986,96.5a41.911,41.911,0,0,1-1.619,5.334c-.23.624-.475,1.272-.714,1.823-.124.286-.266.563-.393.847-.106.235-.516,1.17-.188.456a45.546,45.546,0,0,1-2.909,5.286,53.421,53.421,0,0,1-11.944,13.741,21.8,21.8,0,0,1-8.778,4.36c-3.019.645-1.741,5.273,1.276,4.628,6.7-1.432,12.348-6.24,16.788-11.238a59.23,59.23,0,0,0,9.473-13.829c.091-.194.178-.389.264-.586.049-.11.572-1.244.253-.579.414-.864.777-1.756,1.127-2.648a43.5,43.5,0,0,0,1.993-6.319c.673-3.009-3.954-4.294-4.629-1.276Z"/><path class="d" d="M61.336,96.137A54.882,54.882,0,0,0,68.85,114.58c3.861,5.986,8.967,11.6,15.184,15.187a30.747,30.747,0,0,0,10.317,3.705A2.472,2.472,0,0,0,97.3,131.8a2.419,2.419,0,0,0-1.676-2.953c-7.946-1.316-14.182-6.024-19.257-12.093a50.024,50.024,0,0,1-10.4-21.889c-.632-3.021-5.26-1.743-4.629,1.276Z"/><path class="d" d="M63.809,20.683c-4.718,4.071-7.622,9.965-9.407,15.84a65.809,65.809,0,0,0-2.35,21.26,67.755,67.755,0,0,0,1.707,13.5c.711,3,5.341,1.732,4.628-1.276A63.7,63.7,0,0,1,56.815,56.07a65.413,65.413,0,0,1,.829-12.5c1.291-7.116,3.934-14.635,9.559-19.489,2.342-2.022-1.065-5.405-3.394-3.394Z"/><path class="d" d="M83.789,41.379A34.984,34.984,0,0,0,73.73,45.758c-2.9,2.056-5.078,5.425-6.753,8.515C64.124,59.535,63.115,65.161,62.244,71a2.479,2.479,0,0,0,1.676,2.953,2.418,2.418,0,0,0,2.952-1.677c.763-5.11,1.5-10.217,3.878-14.876,1.313-2.571,3.072-5.723,5.4-7.5,2.543-1.935,5.9-2.979,8.912-3.894,2.948-.9,1.692-5.53-1.276-4.629Z"/><path class="d" d="M137.913,51.25c3.352,2.845,6.455,5.851,8.106,10.014,1.571,3.96,1.916,8.234,2.1,12.449.132,3.077,4.933,3.093,4.8,0-.2-4.733-.6-9.607-2.393-14.039-1.966-4.855-5.263-8.463-9.216-11.818a2.462,2.462,0,0,0-3.394,0,2.42,2.42,0,0,0,0,3.394Z"/><path class="d" d="M94.74,42.967a10.855,10.855,0,0,1,.366-1.183c-.179.49.036-.073.087-.18.09-.186.186-.369.285-.549.2-.363.42-.716.652-1.06.116-.173.236-.343.358-.512.084-.116.382-.513.127-.183a25.533,25.533,0,0,1,2.366-2.7c.4-.389.828-.736,1.249-1.1.159-.137-.45.321-.006.011.128-.089.254-.183.383-.271q.408-.281.831-.536a19.294,19.294,0,0,1,1.956-1.031c.062-.028.634-.278.368-.166s.336-.132.405-.159c.463-.178.93-.341,1.4-.5a2.4,2.4,0,0,0-1.276-4.628,22.127,22.127,0,0,0-8.7,4.982,29.314,29.314,0,0,0-2.681,3.112,14.546,14.546,0,0,0-2.8,5.376,2.4,2.4,0,0,0,4.629,1.276Z"/><path class="d" d="M104.281,44.929A20.8,20.8,0,0,1,112.3,41.6c1.1-.237,2.211-.466,3.325-.654q.462-.078.925-.148c.206-.031.411-.061.617-.089-.263.036.061-.008.146-.018q1.341-.162,2.686-.278a2.463,2.463,0,0,0,2.4-2.4,2.418,2.418,0,0,0-2.4-2.4c-6.284.542-12.827,1.565-18.143,5.174A2.461,2.461,0,0,0,101,44.068a2.424,2.424,0,0,0,3.284.861Z"/><path class="d" d="M160.947,73.038c3.165-10.056,2.974-21.142.577-31.34a52.224,52.224,0,0,0-14.369-25.87C132.633,1.834,110.6-3.364,91.258,2.182,80.649,5.223,70.043,11.65,65.411,22.035a2.475,2.475,0,0,0,.861,3.284,2.418,2.418,0,0,0,3.283-.861,25.1,25.1,0,0,1,7.866-10.086A45.629,45.629,0,0,1,89.733,7.7a53.4,53.4,0,0,1,27.954-1.881,52.729,52.729,0,0,1,23.9,11.422,46.652,46.652,0,0,1,14.379,22.247c3.1,10.359,3.62,21.888.352,32.27-.93,2.953,3.7,4.217,4.629,1.276Z"/><path class="d" d="M98.634,110.406a17.947,17.947,0,0,0,8.492,2.134c2.814.048,6.129-.354,8.456-2.1a2.463,2.463,0,0,0,.861-3.284,2.424,2.424,0,0,0-3.283-.861,6.53,6.53,0,0,1-.908.571c-.091.048-.184.09-.275.137-.348.177-.01-.03.143-.053a5.929,5.929,0,0,0-.791.282,12.722,12.722,0,0,1-1.919.427c.548-.081-.2.012-.246.017-.2.018-.4.031-.6.042-.479.026-.96.034-1.44.026q-.659-.01-1.316-.062c-.24-.019-.479-.044-.718-.07.344.037.044.006-.135-.023a14.38,14.38,0,0,1-1.931-.449c-.27-.084-.535-.181-.8-.279-.454-.168.073.086.132.06a1.832,1.832,0,0,1-.338-.154c-.328-.155-.646-.327-.963-.5a2.4,2.4,0,1,0-2.423,4.144Z"/><path class="d" d="M106.316,90.256c.344,1.41.652,2.836.863,4.272l-.086-.638a2.756,2.756,0,0,1,.016.673l.085-.638a1.391,1.391,0,0,1-.07.268l.242-.574a1.123,1.123,0,0,1-.1.172l.376-.486a.982.982,0,0,1-.144.137l.485-.375a2.736,2.736,0,0,1-.346.175l.574-.242a2.516,2.516,0,0,1-.581.159l.638-.086a2.294,2.294,0,0,1-.543-.01l.638.086c-.2-.032-.4-.085-.608-.116a2.624,2.624,0,0,0-1.85.242,2.4,2.4,0,0,0-.861,3.283,2.318,2.318,0,0,0,1.435,1.1c.481.073.945.192,1.437.222a4.549,4.549,0,0,0,2.144-.5,3.128,3.128,0,0,0,1.734-2.048,5.088,5.088,0,0,0-.005-2.2c-.217-1.4-.511-2.787-.847-4.162a2.422,2.422,0,0,0-2.952-1.676,2.45,2.45,0,0,0-1.676,2.952Z"/><path class="d" d="M83.7,77.514c-.763,2.338-.384,7.753,4.06,8.289,5.886.065,6.311-6.466,4.382-9.573C90.562,73.686,85.811,72.558,83.7,77.514Z"/><path class="d" d="M131.005,78.323c.684,2.363.12,7.761-4.34,8.145-5.884-.136-6.086-6.678-4.053-9.717C124.277,74.262,129.064,73.3,131.005,78.323Z"/><path class="d" d="M122.411,105.007a7.154,7.154,0,0,1,.609.693l-.375-.486a8.88,8.88,0,0,1,1.079,1.9l-.242-.573q.2.48.368.973a2.557,2.557,0,0,0,1.1,1.435,1.8,1.8,0,0,0,.893.285,1.823,1.823,0,0,0,.957-.043,2.429,2.429,0,0,0,1.434-1.1,2.4,2.4,0,0,0,.242-1.85,11.73,11.73,0,0,0-2.674-4.623,2.477,2.477,0,0,0-1.7-.7,2.439,2.439,0,0,0-1.7.7,2.412,2.412,0,0,0-.7,1.7,2.5,2.5,0,0,0,.7,1.7Z"/><path class="d" d="M281.469,129.04a7.143,7.143,0,0,1,.609.692l-.375-.485a8.856,8.856,0,0,1,1.079,1.9l-.242-.574c.134.32.256.646.368.974a2.552,2.552,0,0,0,1.1,1.434,1.778,1.778,0,0,0,.893.285,1.812,1.812,0,0,0,.957-.043,2.425,2.425,0,0,0,1.434-1.1,2.4,2.4,0,0,0,.242-1.849,11.723,11.723,0,0,0-2.674-4.623,2.471,2.471,0,0,0-1.7-.7,2.439,2.439,0,0,0-1.7.7,2.411,2.411,0,0,0-.7,1.7,2.506,2.506,0,0,0,.7,1.7Z"/><path class="d" d="M179.332,286.424c.518-4.713.993-9.431,1.6-14.133.55-4.244,1.265-8.466,1.869-12.7,1.364-9.568,2.638-19.15,4.216-28.686.881-5.33,1.85-10.645,2.948-15.934a140.637,140.637,0,0,1,3.609-14.715,42.611,42.611,0,0,1,5.8-11.91,29.665,29.665,0,0,1,10.423-8.571c8.862-4.75,18.389-8.152,27.731-11.811a2.472,2.472,0,0,0,1.676-2.952,2.417,2.417,0,0,0-2.952-1.676c-8.593,3.365-17.288,6.559-25.585,10.62-4.537,2.221-9.009,4.711-12.521,8.411a38.763,38.763,0,0,0-7.437,11.847,84.443,84.443,0,0,0-4.233,14.205c-1.207,5.348-2.267,10.729-3.222,16.128-1.774,10.026-3.165,20.111-4.579,30.191-.719,5.128-1.553,10.24-2.255,15.37-.742,5.426-1.294,10.875-1.893,16.318a2.415,2.415,0,0,0,2.4,2.4,2.457,2.457,0,0,0,2.4-2.4Z"/><path class="d" d="M304.383,170.176c9.907,4.261,20.268,8.723,28.206,16.229a36.118,36.118,0,0,1,9.158,13.569c2.2,5.875,3.157,12.127,3.962,18.32,2.077,15.984,3.948,32,5.8,48.008.773,6.7,1.619,13.4,2.195,20.122a2.463,2.463,0,0,0,2.4,2.4,2.417,2.417,0,0,0,2.4-2.4c-1.263-14.737-3.263-29.438-5.029-44.121-.889-7.4-1.782-14.8-2.73-22.189-.8-6.217-1.556-12.5-3.386-18.512a42.154,42.154,0,0,0-8.652-15.776c-8.4-9.534-20.463-14.876-31.9-19.794a2.48,2.48,0,0,0-3.284.861,2.417,2.417,0,0,0,.861,3.283Z"/><path class="d" d="M208.75,221.1c-.177,2.51-.475,5.008-.608,7.522-.236,4.454-.119,8.906,0,13.361.257,9.376.444,18.754.713,28.13.132,4.612.276,9.224.5,13.833.15,3.075,4.951,3.093,4.8,0-.429-8.766-.613-17.544-.825-26.317-.223-9.19-.816-18.455-.456-27.644.117-2.973.462-5.92.671-8.885a2.421,2.421,0,0,0-2.4-2.4,2.447,2.447,0,0,0-2.4,2.4Z"/><path class="d" d="M319.953,218.981c.831,16.931,1.173,33.885.927,50.834q-.109,7.518-.372,15.033c-.108,3.089,4.692,3.085,4.8,0q.9-25.776.031-51.572-.232-7.149-.586-14.3c-.151-3.074-4.951-3.093-4.8,0Z"/><path class="d" d="M305.85,286.581c0-17.2-.093-34.4-.079-51.6.012-16.321.07-32.649.57-48.964.184-5.986.422-11.954.993-17.916a2.417,2.417,0,0,0-2.4-2.4,2.454,2.454,0,0,0-2.4,2.4c-1.2,12.56-1.243,25.248-1.4,37.856-.215,17.353-.179,34.709-.138,52.063q.034,14.281.053,28.563c0,3.089,4.8,3.094,4.8,0Z"/><path class="d" d="M288.124,152.05c.577,3.259,1.328,6.746,3.224,9.528a18.769,18.769,0,0,0,5.682,5.094c5.042,3.179,10.743,5.254,16.23,7.514a2.415,2.415,0,0,0,2.953-1.676,2.46,2.46,0,0,0-1.677-2.952c-4.915-2.025-9.952-3.924-14.518-6.682a22.607,22.607,0,0,1-2.61-1.783,14.475,14.475,0,0,1-1.143-1.044,6.953,6.953,0,0,1-.7-.793c-1.733-2.448-2.3-5.59-2.808-8.482A2.421,2.421,0,0,0,289.8,149.1a2.454,2.454,0,0,0-1.676,2.952Z"/><path class="d" d="M232.636,170.5a93.081,93.081,0,0,0,12.7-4.726c1.792-.891,4.073-1.993,4.767-3.982a22.8,22.8,0,0,0,.683-3.489q.35-1.97.7-3.939a2.469,2.469,0,0,0-1.677-2.952,2.42,2.42,0,0,0-2.952,1.676q-.3,1.724-.611,3.446a32.95,32.95,0,0,0-.609,3.409c-.006.084-.1.266-.05.264q.574-.505.225-.261c-.107.072-.216.139-.329.2-.316.193-.627.395-.942.589a21.78,21.78,0,0,1-2.049,1.1c-.37.177-.743.344-1.119.509-.184.08.065-.023-.259.11-.207.085-.413.168-.62.25-.924.368-1.858.712-2.795,1.045-2.1.745-4.22,1.432-6.338,2.123a2.452,2.452,0,0,0-1.676,2.952,2.424,2.424,0,0,0,2.952,1.676Z"/><path class="e" d="M219.451,57.624a52.109,52.109,0,0,1,32.156-27.485,46.522,46.522,0,0,1,15.57-1.867c7.837.249,14.7,1.292,20.79,3.634a56.956,56.956,0,0,1,9.392,4.877l.378.246,7.814,6.888a40.54,40.54,0,0,1,9.169,12.83,44.234,44.234,0,0,1,3.6,10.478c1.487,7.138,3.347,21.319-.082,30a7.628,7.628,0,0,0-2.622-.514,7.058,7.058,0,0,0-3.236.668c-1.477-.541-3.915-1.441-3.915-1.441-6.019-1.783-13.615-12.114-16.1-16.824-1.728-3.273-3.817-10.046-5.324-15.514a64.757,64.757,0,0,1-32.964,23.743l-9.637-.645a202.86,202.86,0,0,1-19.019,13.146,6.522,6.522,0,0,0-5.813-2.921c-.139.006-.275.014-.408.027a27.543,27.543,0,0,1-2.907-8.1c-1.181-4.843-1.328-15.245-.094-21.332A44.4,44.4,0,0,1,219.451,57.624Z"/><path class="d" d="M312.44,100.2a4.673,4.673,0,0,1,4.121-.984,4.181,4.181,0,0,1,1.724.747c-.21-.158.294.282.291.279q.16.162.309.336-.228-.313,0,0c1.545,2.259,1.587,5.426,1.375,8.062a20.541,20.541,0,0,1-2.407,7.753c-1.557,2.953-4.037,6.069-7.722,5.59a2.412,2.412,0,0,0-2.4,2.4,2.461,2.461,0,0,0,2.4,2.4c7.641.994,12.3-7.414,14.141-13.588,1.621-5.429,1.616-13.8-3.564-17.381a9.662,9.662,0,0,0-11.662.988c-2.3,2.072,1.1,5.458,3.394,3.394Z"/><path class="d" d="M308.074,120.49a54.3,54.3,0,0,1-2.921,8.922c0-.009.2-.429-.01.015-.093.2-.181.4-.274.593-.2.428-.419.851-.639,1.271-.522,1-1.081,1.974-1.664,2.936a53.541,53.541,0,0,1-11.537,13.782,21.128,21.128,0,0,1-8.5,4.439c-3.006.7-1.734,5.333,1.276,4.628,6.6-1.545,12.08-6.368,16.377-11.394a58.907,58.907,0,0,0,9.075-13.761c.155-.346.305-.7.449-1.047.039-.1.27-.661.134-.338-.143.339.014-.02.038-.074.156-.347.3-.7.446-1.052q.236-.575.453-1.154a42.974,42.974,0,0,0,1.926-6.49,2.459,2.459,0,0,0-1.676-2.952,2.423,2.423,0,0,0-2.952,1.676Z"/><path class="d" d="M222.5,121.8a54.239,54.239,0,0,0,7.716,18.009c3.911,5.834,9.023,11.289,15.207,14.735a30.342,30.342,0,0,0,10.372,3.539,2.479,2.479,0,0,0,2.952-1.677,2.418,2.418,0,0,0-1.676-2.952c-7.934-1.159-14.213-5.725-19.361-11.682a49.3,49.3,0,0,1-10.582-21.248c-.69-3.009-5.319-1.736-4.628,1.276Z"/><path class="d" d="M258.03,135.114a17.779,17.779,0,0,0,8.57,1.97,13.979,13.979,0,0,0,8.679-2.593,2.4,2.4,0,0,0,0-3.394,2.473,2.473,0,0,0-3.394,0c.737-.577.209-.165.019-.043-.169.109-.344.21-.523.3-.092.049-.187.093-.28.141-.191.1-.4.066.137-.048a7.624,7.624,0,0,0-.721.264,13.578,13.578,0,0,1-2.019.465c.362-.058.055-.008-.139.011s-.4.038-.595.051c-.478.032-.957.045-1.436.043q-.643,0-1.286-.043-.3-.019-.589-.048c-.061-.006-.784-.118-.231-.022a16.433,16.433,0,0,1-1.889-.414q-.4-.119-.783-.262c-.085-.031-.168-.067-.253-.1-.456-.164.522.25.116.048-.321-.159-.644-.31-.96-.477a2.4,2.4,0,1,0-2.423,4.145Z"/><path class="d" d="M265.243,115.035a39.562,39.562,0,0,1,.944,4.275l-.085-.638a2.647,2.647,0,0,1,.017.59l.086-.638a1.434,1.434,0,0,1-.065.266l.242-.574a1.01,1.01,0,0,1-.093.171l.375-.485a.955.955,0,0,1-.139.138l.485-.376a2.6,2.6,0,0,1-.338.18l.574-.242a2.445,2.445,0,0,1-.571.168l.638-.086a2.288,2.288,0,0,1-.536,0l.638.085c-.415-.056-.824-.133-1.241-.188a2.386,2.386,0,0,0-1.7.7,2.4,2.4,0,0,0,0,3.395l.486.375a2.4,2.4,0,0,0,1.211.328l.051.006-.638-.086a10.066,10.066,0,0,0,1.445.2,4.7,4.7,0,0,0,2.154-.556,3.1,3.1,0,0,0,1.637-2.077,5.283,5.283,0,0,0-.043-2.154c-.241-1.365-.554-2.717-.908-4.057a2.477,2.477,0,0,0-1.1-1.434,2.4,2.4,0,0,0-3.526,2.71Z"/><path class="d" d="M242.8,102.923c-.709,2.322-.232,7.66,4.166,8.105,5.812-.048,6.107-6.5,4.144-9.534C249.506,99.012,244.793,97.989,242.8,102.923Z"/><path class="d" d="M289.343,102.82c.719,2.319.265,7.659-4.131,8.123-5.811-.022-6.135-6.476-4.186-9.516C282.623,98.939,287.33,97.9,289.343,102.82Z"/><path class="d" d="M298.571,34.71a52.141,52.141,0,0,0-13.713-6.371,68.744,68.744,0,0,0-15.13-2.355,58.5,58.5,0,0,0-13.391.591,51.717,51.717,0,0,0-12.128,3.762c-15.074,6.675-27.677,20.943-30.5,37.441a64.483,64.483,0,0,0-.669,14.385,39.466,39.466,0,0,0,3.358,14.7,2.42,2.42,0,0,0,3.283.861,2.451,2.451,0,0,0,.861-3.283,31.987,31.987,0,0,1-2.635-11.219,69.083,69.083,0,0,1,.18-12.346,42.849,42.849,0,0,1,8.463-20.5c9.063-12.265,24.212-20.189,39.537-19.749A73.7,73.7,0,0,1,281.832,32.5a47.687,47.687,0,0,1,14.316,6.356c2.6,1.679,5.013-2.474,2.423-4.145Z"/><path class="d" d="M226.178,97a9.737,9.737,0,0,0-10.792-1.459,9.46,9.46,0,0,0-4.719,6.558,24.345,24.345,0,0,0,3.784,18.831c2.7,3.9,6.479,6.624,11.394,5.962a2.413,2.413,0,0,0,1.676-2.952,2.464,2.464,0,0,0-2.952-1.676c-3.254.438-5.8-3.167-7.113-5.633A20.5,20.5,0,0,1,215,108.705c-.2-2.606-.161-5.746,1.4-7.966.095-.132.075-.107-.058.074.1-.116.2-.229.307-.337,0,0,.5-.443.288-.282a4.173,4.173,0,0,1,1.72-.758,4.672,4.672,0,0,1,4.128.956c2.3,2.052,5.7-1.331,3.394-3.394Z"/><path class="d" d="M284.821,64.622c1.939,6.926,3.925,13.9,8.052,19.873a58.082,58.082,0,0,0,6.777,8.243c2.325,2.306,5,4.518,8.174,5.512,2.955.926,4.219-3.706,1.276-4.628a11.839,11.839,0,0,1-3.323-1.85,28.515,28.515,0,0,1-3.218-2.919,52.493,52.493,0,0,1-5.889-7.29c-3.711-5.494-5.449-11.89-7.221-18.217-.831-2.97-5.464-1.708-4.628,1.276Z"/><path class="d" d="M255.87,72.969c-8.369,9.389-18.979,16.836-29.568,23.5-2.608,1.641-.2,5.8,2.423,4.144,5.561-3.5,10.97-7.237,16.169-11.257a105.188,105.188,0,0,0,14.37-12.994c2.05-2.3-1.334-5.706-3.394-3.394Z"/><path class="d" d="M285.042,62.28a63.628,63.628,0,0,1-31.608,22.746c-2.931.938-1.678,5.574,1.276,4.629A69.149,69.149,0,0,0,289.187,64.7a2.415,2.415,0,0,0-.861-3.283,2.457,2.457,0,0,0-3.284.861Z"/><path class="d" d="M303.851,45.618c6.013,5.373,10.073,13.327,11.9,21.11a76.033,76.033,0,0,1,2.007,19.064,31.881,31.881,0,0,1-1.847,10.79,2.419,2.419,0,0,0,1.676,2.953,2.455,2.455,0,0,0,2.952-1.677c2.594-6.716,2.327-14.517,1.586-21.558-.822-7.793-2.458-15.257-6.092-22.266a40.921,40.921,0,0,0-8.791-11.811c-2.3-2.053-5.7,1.331-3.394,3.4Z"/><path class="d" d="M303.647,173.29c-5.6,1.4-11.222,2.724-16.925,3.61a105.317,105.317,0,0,1-14.422,1.15c-8.936.147-17.944.065-26.449-2.123-2.828-.728-5.571-1.726-8.343-2.637-2.941-.966-4.2,3.667-1.276,4.629,2.519.827,5.013,1.733,7.572,2.431A65.533,65.533,0,0,0,254.1,182.2a132.694,132.694,0,0,0,31.815-.364,177.735,177.735,0,0,0,19.01-3.913c3-.749,1.726-5.38-1.276-4.629Z"/><path class="d" d="M239.3,286.424c.134-17.122.148-34.244.135-51.366q-.017-24.708-.1-49.414-.026-10-.035-20c0-3.089-4.8-3.094-4.8,0,0,13.388.055,26.776.087,40.164q.061,26.272.038,52.546-.025,14.033-.125,28.066c-.025,3.089,4.775,3.092,4.8,0Z"/><path class="a" d="M315.263,122.243a6.081,6.081,0,0,0-6.2,6.164c0,3.847,2.4,6.279,6.2,6.279,3.892,0,6.2-2.432,6.2-6.279A6.076,6.076,0,0,0,315.263,122.243Z"/><path class="a" d="M220.463,122.243a6.081,6.081,0,0,0-6.2,6.164c0,3.847,2.4,6.279,6.2,6.279,3.892,0,6.2-2.432,6.2-6.279A6.076,6.076,0,0,0,220.463,122.243Z"/><path class="d" d="M315.263,119.843A8.609,8.609,0,0,0,306.994,126a8.9,8.9,0,0,0,2.809,9.331,9.52,9.52,0,0,0,9.946.684,8.917,8.917,0,0,0,1.4-13.917,8.854,8.854,0,0,0-5.885-2.259,2.4,2.4,0,1,0,0,4.8c.18,0,.36.017.54.021.594.013-.517-.118.054,0a7.929,7.929,0,0,1,.816.208l.157.054q.368.141-.118-.058a1.444,1.444,0,0,1,.291.141q.213.111.417.239c.09.056.178.115.265.176q.312.228-.109-.088c.072-.031.513.479.569.54l.105.116c.132.159.135.159.011,0l-.091-.12c.063.084.123.169.181.256.157.235.26.526.427.75.191.256-.185-.553-.025-.064.066.2.138.4.192.608.027.1.052.209.073.314l.031.159q.065.4-.017-.154c.072.025.033.729.032.835q0,.256-.024.51l-.014.166q-.045.405.024-.153c.012,0-.189.863-.2.913-.043.144-.1.284-.143.426-.095.289-.1-.042.074-.167-.157.11-.3.573-.415.746a1.544,1.544,0,0,0-.161.229c.152-.429.236-.291.021-.059-.079.085-.16.167-.244.246-.05.048-.1.095-.154.14q-.288.24.16-.115a4.207,4.207,0,0,0-.595.378,1.794,1.794,0,0,0-.387.193l.3-.128c-.092.036-.186.07-.28.1a6.549,6.549,0,0,1-.742.2c-.192.041-.632.018,0,.019-.163,0-.338.035-.5.045a8.848,8.848,0,0,1-1.03,0c-.111-.007-.22-.019-.33-.027-.565-.038.541.125,0-.006-.249-.06-.5-.108-.746-.185a1.7,1.7,0,0,0-.421-.148q.52.227.173.067c-.065-.031-.129-.064-.192-.1a4.191,4.191,0,0,0-.66-.412c.368.1.33.29.106.069-.082-.082-.171-.157-.253-.239-.1-.1-.187-.206-.281-.309-.269-.3.118.115.118.154,0-.188-.406-.676-.5-.862-.151-.292.123.031.069.167a1.906,1.906,0,0,0-.146-.426c-.076-.249-.123-.5-.183-.755-.128-.544.032.565,0,0-.01-.168-.027-.335-.034-.5a4.117,4.117,0,0,1,.027-1s-.123.573,0,.077c.044-.182.079-.366.131-.546.044-.153.1-.3.149-.453.168-.5-.251.456.008-.006.166-.3.365-.577.527-.872s-.393.422-.035.057c.147-.149.283-.307.437-.45a2.183,2.183,0,0,1,.236-.208q-.421.315-.109.087c.086-.062.175-.12.264-.177.114-.071.229-.138.347-.2.071-.039.142-.076.215-.111q.356-.163-.125.045c.126-.172.742-.241.961-.288l.168-.033c.267-.045.227-.041-.121.01a2.02,2.02,0,0,1,.718-.037,2.4,2.4,0,1,0,0-4.8Z"/><path class="d" d="M220.463,119.843A8.609,8.609,0,0,0,212.194,126,8.9,8.9,0,0,0,215,135.335a9.52,9.52,0,0,0,9.946.684,8.917,8.917,0,0,0,1.4-13.917,8.854,8.854,0,0,0-5.885-2.259,2.4,2.4,0,0,0,0,4.8c.18,0,.36.017.54.021.594.013-.517-.118.054,0a7.929,7.929,0,0,1,.816.208l.157.054q.368.141-.118-.058a1.444,1.444,0,0,1,.291.141q.213.111.417.239c.09.056.178.115.265.176q.312.228-.109-.088c.072-.031.513.479.569.54l.1.116c.132.159.135.159.011,0l-.091-.12c.063.084.123.169.181.256.157.235.26.526.427.75.191.256-.185-.553-.025-.064.066.2.138.4.192.608.027.1.052.209.073.314l.031.159q.065.4-.017-.154c.072.025.033.729.032.835q0,.256-.024.51l-.014.166q-.045.405.024-.153c.012,0-.189.863-.2.913-.043.144-.095.284-.143.426-.095.289-.1-.042.074-.167-.157.11-.3.573-.415.746a1.544,1.544,0,0,0-.161.229c.152-.429.236-.291.021-.059-.079.085-.16.167-.244.246-.05.048-.1.095-.154.14q-.288.24.16-.115a4.207,4.207,0,0,0-.595.378,1.794,1.794,0,0,0-.387.193l.3-.128c-.092.036-.186.07-.28.1a6.549,6.549,0,0,1-.742.2c-.192.041-.632.018,0,.019-.163,0-.338.035-.5.045a8.848,8.848,0,0,1-1.03,0c-.111-.007-.22-.019-.33-.027-.565-.038.541.125,0-.006-.249-.06-.5-.108-.746-.185a1.7,1.7,0,0,0-.421-.148q.521.227.173.067c-.065-.031-.129-.064-.192-.1a4.191,4.191,0,0,0-.66-.412c.368.1.33.29.106.069-.082-.082-.171-.157-.253-.239-.1-.1-.187-.206-.281-.309-.269-.3.118.115.118.154,0-.188-.406-.676-.5-.862-.151-.292.123.031.069.167a1.906,1.906,0,0,0-.146-.426c-.076-.249-.123-.5-.183-.755-.128-.544.032.565,0,0-.01-.168-.027-.335-.034-.5a4.117,4.117,0,0,1,.027-1s-.123.573,0,.077c.044-.182.079-.366.131-.546.044-.153.1-.3.149-.453.168-.5-.251.456.008-.006.166-.3.365-.577.527-.872s-.393.422-.035.057c.147-.149.283-.307.437-.45a2.183,2.183,0,0,1,.236-.208q-.422.315-.109.087c.086-.062.175-.12.264-.177.114-.071.229-.138.347-.2.071-.039.142-.076.215-.111q.355-.163-.125.045c.126-.172.742-.241.961-.288l.168-.033c.267-.045.227-.041-.121.01a2.02,2.02,0,0,1,.718-.037,2.4,2.4,0,1,0,0-4.8Z"/></svg>