<?xml version="1.0" encoding="utf-8"?>
<!-- Uploaded to: SVG Repo, www.svgrepo.com, Generator: SVG Repo Mixer Tools -->
<svg width="800px" height="800px" viewBox="-49.47 0 445.933 445.933" xmlns="http://www.w3.org/2000/svg"><defs><style>.a{fill:#ffffff;}.b{fill:#f4b3b3;}.c{fill:#211715;}.d{fill:#b5886a;}.e{fill:#b3b3b3;}.f{fill:#655e5d;}.g{fill:#957f6e;}.h{fill:#c6c6c6;}</style></defs><path class="a" d="M316.3,47.754a4.255,4.255,0,0,1,3.4-1,4.019,4.019,0,0,1,2.889,1.92,5.671,5.671,0,0,1,.594,2.285,17.019,17.019,0,0,1-1.735,9.023,10.824,10.824,0,0,1-2.8,3.672,7.164,7.164,0,0,1-3.335,1.5l-.571.088c-.274,1.026-.582,1.888-.733,2.346-1.032,2.8-7.112,12.94-14.564,15.638a36.571,36.571,0,0,0,.59,5.553,12.6,12.6,0,0,0,.54,2.63s2.39,13.927-13.832,13.927S274.086,88.79,274.086,88.79a38.343,38.343,0,0,0,.6-6.181,25.2,25.2,0,0,1-7.91-6.512,28.929,28.929,0,0,1-5.516-10.768l-1.088-.168a7.164,7.164,0,0,1-3.335-1.5,10.824,10.824,0,0,1-2.8-3.672,17.019,17.019,0,0,1-1.736-9.023,5.688,5.688,0,0,1,.595-2.285,4.017,4.017,0,0,1,2.889-1.92,4.256,4.256,0,0,1,3.4,1s-2.449-27.522,26.884-27.522S316.3,47.754,316.3,47.754Z"/><path class="a" d="M322.544,150.365c4.951-.794,18.5-2.376,22.489-3.227-.668-4.073-1.93-22.234-2.918-26.085-.434-1.145-.851-2.3-1.32-3.441l-.926-1.531c-2.346-3.879-6.1-6.674-9.9-9.159-1.665-1.09-3.251-2.1-4.8-3.058l-11.833-6.3c-1.683-.751-3.452-1.484-5.356-2.212a21.612,21.612,0,0,0-4.483-6.129,43.383,43.383,0,0,1-12.523,8.728c-.259.118-.548.261-.632.533H286.07c-.083-.272-.536-.487-.792-.611a45.562,45.562,0,0,1-12.363-8.65,21.616,21.616,0,0,0-4.448,6.055c-2.008.767-3.867,1.537-5.632,2.327l-11.679,6.221c-1.574.965-3.179,1.992-4.867,3.1-3.792,2.485-7.55,5.28-9.9,9.159l-.925,1.531c-.469,1.136-.886,2.3-1.32,3.441-.988,3.851-2.312,20.757-2.918,26.085,3.986.851,17.537,2.433,22.489,3.227Z"/><path class="b" d="M251.073,209.976c2.333-26.606,4.463-46.689,3.916-44.762-.556-10.755-2.948-28.579-2.948-37.431,0-2.938-.95-21.716-.449-25.481,2.25-2,8.694-5.873,10.975-6.4.525,2.121,1.78,18.138,2.523,22.258,2.427.761,41.265.3,46.173-.507.589-3.478,1.442-17.885,2.309-21.274a31.476,31.476,0,0,1,10.757,5.967c.4,3.847-.686,21.908-.686,24.847,0,9.141-2.306,28.472-1.412,39.056.121,1.432.472,4.707.979,9.36L325.1,192.9l.509,4.764c3.748,35.108,9.078,89.072,7.856,110.118a1.05,1.05,0,0,1-.949.931c-7.636,1.371-32.7,1.815-42.75,1.815,0,0-37.33-.74-42.7-1.851a1.086,1.086,0,0,1-.965-1C245.139,283.809,248.254,242.129,251.073,209.976Z"/><path class="a" d="M287.3,201.964c-1.507,1.339-6.977,6.412-8.667,8.074-1.75,1.587-4.528,1.537-5.509.608a4.744,4.744,0,0,1-.756-5.318c2.386-3.564,9.278-10.008,13.047-12.987,6.019-2.878,18.563-3.665,23.653-3.261,4.818-4.3,9.518-7.234,13.315-11.8,4.211-5.059,3.232-6.818,2.825-12.991-.179-2.728-.483-8.428-.466-13.468l-.024-.783c5.038-.716,13.588-1.764,18.219-2.522.035.268.058.434.058.434,1.016,9.17,2.528,25.866,1.59,29.238-1.571,5.65-29.323,25.589-31.721,26.837-.926,1.562-5.139,2.509-6.962,3.119-1.89.632-3.983,1.1-5.938,1.6a8.3,8.3,0,0,0-5.11,3.481,19.375,19.375,0,0,1-4.445,4.333c-2.122,1.393-4.388.352-4.222-1.482-1.889,1.056-3.782.745-4.889-.851-.731-1.055-.555-4.778.667-7"/><path class="a" d="M278.273,198.715c2.195-2.145,4.534-4.241,6.363-5.743a15.465,15.465,0,0,0-4.594-2.444c-3.877-1.342-7.295-1.176-10.886-2.63l-.641-.259c-4.459-2.533-9.921-7.146-13.606-10.14-2.487-1.742-3.507-3.843-3.35-9.506.075-2.681,1.023-12.41,1.138-17.785-4.783-.712-14.386-1.872-19.39-2.691-.774,7.124-1.735,21.49-1.351,26.835a19.5,19.5,0,0,0,1.386,6.663c3.783,4.731,15.1,11.632,24.114,17.013l1.126.6a31.585,31.585,0,0,1,4.161,2.128c2.009,1.894,4.106,4.512,8.04,6.687l1.14.631a4.92,4.92,0,0,1,.447-2.748A49.294,49.294,0,0,1,278.273,198.715Z"/><path class="a" d="M243.666,436.8c-.11-.144-.214-.292-.312-.446a8.358,8.358,0,0,1-.554-7.006,22.957,22.957,0,0,1,3.6-6.273q5.2-7.107,11-13.756c1.506-1.727,3.209-3.528,5.461-3.953a3.389,3.389,0,0,0,1.684,3.553,7.95,7.95,0,0,0,4.061.917,22.543,22.543,0,0,0,15.778-6.279c-.026,4.746.021,6.325,0,11.073a9.945,9.945,0,0,1-.416,3.424c-.975,2.639-3.869,3.91-6.191,5.5-6.041,4.134-9.222,11.676-15.552,15.352a16.347,16.347,0,0,1-15.108.541A9.523,9.523,0,0,1,243.666,436.8Z"/><path class="a" d="M333.126,436.8c.11-.144.214-.292.312-.446a8.362,8.362,0,0,0,.553-7.006,22.954,22.954,0,0,0-3.595-6.273q-5.2-7.107-11-13.756c-1.507-1.727-3.209-3.528-5.462-3.953a3.388,3.388,0,0,1-1.683,3.553,7.956,7.956,0,0,1-4.062.917,22.54,22.54,0,0,1-15.777-6.279c.026,4.746-.021,6.325,0,11.073a9.993,9.993,0,0,0,.416,3.424c.976,2.639,3.87,3.91,6.192,5.5,6.04,4.134,9.222,11.676,15.552,15.352a16.345,16.345,0,0,0,15.107.541A9.518,9.518,0,0,0,333.126,436.8Z"/><path class="a" d="M263.819,408.348a3.893,3.893,0,0,0,.722.574,7.95,7.95,0,0,0,4.061.917,22.543,22.543,0,0,0,15.778-6.279l-.134-3.133a137.5,137.5,0,0,1-19.4-.131,29.068,29.068,0,0,1-1.766,6.672s-.025.062-.075.166A3.783,3.783,0,0,0,263.819,408.348Z"/><path class="a" d="M313.285,407.994a3.634,3.634,0,0,0,.5-.861,28.459,28.459,0,0,1-1.838-6.834,137.725,137.725,0,0,1-19.756.1c.113,1.644.216,3.157.216,3.157a22.54,22.54,0,0,0,15.777,6.279,7.956,7.956,0,0,0,4.062-.917A3.974,3.974,0,0,0,313.285,407.994Z"/><path class="a" d="M288.231,310.5c-5.306-.115-23.148-.532-33.733-1.144,2.263,30,3.743,60.571,6.09,90.573a143.17,143.17,0,0,0,27.822.2,143.253,143.253,0,0,0,27.838-.2c2.331-29.8,3.806-60.446,6.048-90.243-10.663.622-25.388.846-32.533.846Z"/><path class="a" d="M314.558,132.058c-1.414,0-13.812-.02-18.357-.02-.008,4-.016,6.741-.024,10.74,2.644,0,14.832-.039,18.381-.039Z"/><path class="c" d="M262.915,399.764a29.564,29.564,0,0,1-1.767,6.672,2.009,2.009,0,0,0,.2,1.541,2,2,0,0,0,2.736.718,2.31,2.31,0,0,0,.919-1.195,29.627,29.627,0,0,0,1.768-6.673,2.2,2.2,0,0,0-.2-1.541,2,2,0,0,0-2.736-.717,1.921,1.921,0,0,0-.92,1.195Z"/><path class="c" d="M245.393,435.794c-1.631-2.229-1.232-5.047-.048-7.4a52.135,52.135,0,0,1,5.49-7.931q3.031-3.952,6.267-7.745c1.712-2.015,3.554-4.809,6.287-5.424l-2.46-2.46a5.562,5.562,0,0,0,3.35,6.187c2.6,1.169,5.747.917,8.491.486a24.231,24.231,0,0,0,13.024-6.537l-3.414-1.414c-.021,4.045.156,8.12-.02,12.161-.088,2.008-1.119,3.184-2.726,4.266a56.875,56.875,0,0,0-4.73,3.255c-5.789,4.806-9.177,13.167-16.925,15.284-4.259,1.164-9.959.484-12.9-3.137a2.013,2.013,0,0,0-2.828,0,2.046,2.046,0,0,0,0,2.828c2.981,3.673,8.532,5.114,13.085,4.781a19.408,19.408,0,0,0,12.29-5.788c3.069-3.008,5.432-6.647,8.488-9.667a30.326,30.326,0,0,1,5.087-3.805,11.191,11.191,0,0,0,4.356-4.348c1.2-2.574.832-5.686.826-8.451,0-2.46-.017-4.919,0-7.379a2.022,2.022,0,0,0-3.415-1.414,20.229,20.229,0,0,1-8.821,4.982,19.441,19.441,0,0,1-5.753.705c-.946-.028-3.926-.28-3.605-1.932a2.027,2.027,0,0,0-2.46-2.46c-3.455.777-5.719,3.712-7.9,6.271q-3.8,4.453-7.336,9.115c-3.858,5.058-9.873,12.535-5.153,18.986a2.059,2.059,0,0,0,2.736.717A2.015,2.015,0,0,0,245.393,435.794Z"/><path class="c" d="M310.08,401.239a29.593,29.593,0,0,0,1.772,6.425,2.192,2.192,0,0,0,.919,1.195,2,2,0,0,0,2.737-.718,1.935,1.935,0,0,0,.2-1.541,29.626,29.626,0,0,1-1.772-6.424,2,2,0,0,0-.919-1.195,2,2,0,0,0-2.736.717,2.308,2.308,0,0,0-.2,1.541Z"/><path class="c" d="M334.853,437.813c4.721-6.451-1.3-13.928-5.153-18.986q-3.549-4.653-7.336-9.115c-2.179-2.558-4.443-5.494-7.9-6.271a2.027,2.027,0,0,0-2.46,2.46c.305,1.573-2.456,1.886-3.394,1.926a19.279,19.279,0,0,1-5.964-.7,20.233,20.233,0,0,1-8.822-4.982,2.022,2.022,0,0,0-3.414,1.414c.011,2.231,0,4.461,0,6.692a44.039,44.039,0,0,0,.183,7.082c.773,4.787,5.508,6.193,8.745,8.972,3.269,2.805,5.668,6.433,8.563,9.592,3.076,3.357,6.852,6.048,11.421,6.834,5.17.89,11.735-.224,15.218-4.515a2.059,2.059,0,0,0,0-2.828,2.014,2.014,0,0,0-2.828,0c-2.551,3.142-7.352,4.091-11.193,3.509-4-.607-7.119-2.91-9.79-5.829-2.609-2.85-4.81-6.066-7.617-8.736a29.446,29.446,0,0,0-4.739-3.566c-1.32-.827-2.968-1.735-3.616-3.241a9.944,9.944,0,0,1-.348-3.832q-.006-1.72,0-3.442c.007-2.231.013-4.461,0-6.692L291,404.974a24.231,24.231,0,0,0,13.023,6.537c2.665.419,5.7.667,8.253-.386a5.6,5.6,0,0,0,3.589-6.287l-2.46,2.46c2.669.6,4.457,3.275,6.133,5.242q3.307,3.883,6.421,7.927a54.31,54.31,0,0,1,5.392,7.742c1.242,2.395,1.735,5.282.05,7.585a2.015,2.015,0,0,0,.717,2.736A2.046,2.046,0,0,0,334.853,437.813Z"/><path class="c" d="M272.692,82.676a38.558,38.558,0,0,1-.334,4.36l.071-.532q-.118.88-.271,1.755a2.166,2.166,0,0,0,.2,1.541,2,2,0,0,0,3.656-.478,43.361,43.361,0,0,0,.677-6.646,2,2,0,1,0-4,0Z"/><path class="c" d="M297.447,83.246a40.631,40.631,0,0,0,.443,4.736c.1.693.23,1.381.331,2.074a8.5,8.5,0,0,0,.427,1.892,2.181,2.181,0,0,0,.92,1.2,2.043,2.043,0,0,0,1.541.2,2.023,2.023,0,0,0,1.4-2.461,7.853,7.853,0,0,1-.407-1.747c-.1-.688-.225-1.373-.329-2.061-.016-.107-.1-.7-.028-.177-.023-.157-.041-.315-.06-.473q-.062-.513-.108-1.028c-.065-.716-.106-1.434-.127-2.152a2,2,0,1,0-4,0Z"/><path class="c" d="M287,310.914q-.027,20-.076,39.991c-.023,13.3-.058,26.605,0,39.907.009,1.961.017,3.922.046,5.883.015.989-.184,2.661.656,3.369,1.956,1.649,4.8-1.167,2.828-2.829-.031-.026.793,1.1.57,1.329.011-.012-.009-.082-.008-.1a4.009,4.009,0,0,0-.018-.424c-.017-.48-.022-.959-.029-1.439-.024-1.67-.033-3.342-.041-5.012q-.042-8.4-.029-16.81,0-21.972.063-43.945.021-9.959.038-19.918c0-2.573-4-2.577-4,0Z"/><path class="c" d="M252.5,309.888c1.759,23.366,3.051,46.763,4.644,70.14q.678,9.952,1.447,19.9a2.066,2.066,0,0,0,2,2,154.518,154.518,0,0,0,26.484.308c2.552-.192,2.572-4.193,0-4a154.518,154.518,0,0,1-26.484-.308l2,2c-1.824-23.362-3.131-46.76-4.688-70.14q-.661-9.952-1.4-19.9c-.192-2.551-4.194-2.572-4,0Z"/><path class="c" d="M320.291,310.529c-1.735,23.164-3.019,46.357-4.6,69.531q-.676,9.936-1.445,19.866l2-2a154.528,154.528,0,0,1-26.485.308c-2.567-.193-2.555,3.808,0,4a154.528,154.528,0,0,0,26.485-.308,2.067,2.067,0,0,0,2-2c1.808-23.159,3.108-46.353,4.647-69.531q.659-9.936,1.4-19.866c.192-2.567-3.809-2.555-4,0Z"/><path class="a" d="M298.236,108.791c4.021-4,6.655-8.837,9.626-13.672a21.442,21.442,0,0,0-4.365-5.9,43.383,43.383,0,0,1-12.523,8.728c-.259.118-.548.261-.632.533a1.5,1.5,0,0,0,.271.915c.261.4,1.119,1.491,2.464,3.137C294.84,104.692,297.052,107.334,298.236,108.791Z"/><path class="a" d="M278.177,108.791c-4.022-4-6.655-8.837-9.626-13.672a21.418,21.418,0,0,1,4.364-5.9,45.562,45.562,0,0,0,12.363,8.65c.256.124.709.339.792.611.073.236-.244.839-.38,1.045-.327.491-1.01,1.361-2.355,3.007C281.573,104.692,279.36,107.334,278.177,108.791Z"/><path class="c" d="M299.65,110.206a56,56,0,0,0,7.88-10.683c.567-.934,1.128-1.87,1.7-2.8a2.833,2.833,0,0,0,.6-1.867,5.022,5.022,0,0,0-.781-1.739,22.964,22.964,0,0,0-4.133-5.306,2.036,2.036,0,0,0-2.829,0,40.657,40.657,0,0,1-6.853,5.532,42.593,42.593,0,0,1-3.8,2.181c-1.27.642-2.783,1.086-3.05,2.7a3.749,3.749,0,0,0,1,2.863c.8,1.056,1.64,2.085,2.48,3.11,1.646,2.011,3.32,4,4.96,6.015a2.015,2.015,0,0,0,2.829,0,2.047,2.047,0,0,0,0-2.829c-1.4-1.725-2.833-3.428-4.246-5.145-.751-.911-1.5-1.823-2.234-2.747-.13-.164-.261-.328-.389-.493.16.207-.156-.206-.159-.21-.072-.1-.273-.5-.28-.3l-.273,1.01q-.537.441-.085.184l.291-.134c.294-.138.587-.277.878-.421q.892-.443,1.761-.927,1.793-1,3.485-2.165a45.641,45.641,0,0,0,6.513-5.394h-2.829a20.451,20.451,0,0,1,4.052,5.492V94.109c-2.83,4.617-5.464,9.4-9.314,13.268C295,109.2,297.831,112.034,299.65,110.206Z"/><path class="c" d="M279.591,107.377c-3.849-3.869-6.484-8.651-9.313-13.268v2.019a20.426,20.426,0,0,1,4.051-5.492H271.5a44.6,44.6,0,0,0,6.619,5.423q1.671,1.131,3.432,2.121.852.478,1.721.924c.283.145.569.284.854.426l.314.154q.452.284-.1-.191l-.273-1.01c-.014-.32.156-.28-.027-.1a2.752,2.752,0,0,0-.211.322c-.082.12-.171.235-.258.352a1.591,1.591,0,0,1-.162.211c-.719.914-1.458,1.812-2.2,2.71-1.482,1.8-2.981,3.587-4.453,5.4a2.059,2.059,0,0,0,0,2.829,2.015,2.015,0,0,0,2.828,0c1.706-2.1,3.448-4.163,5.158-6.256.773-.946,1.55-1.892,2.279-2.871a4.24,4.24,0,0,0,1.042-2.6c-.057-1.668-1.668-2.26-2.921-2.906q-1.911-.984-3.731-2.135a40.341,40.341,0,0,1-7.089-5.634,2.036,2.036,0,0,0-2.828,0,22.882,22.882,0,0,0-4.051,5.164,7.361,7.361,0,0,0-.828,1.615,2.628,2.628,0,0,0,.564,2.133c.568.933,1.13,1.869,1.7,2.8a56.084,56.084,0,0,0,7.881,10.683C278.581,112.033,281.409,109.205,279.591,107.377Z"/><path class="c" d="M286.33,99.312c0,4.123-.287,8.269-.111,12.39a2,2,0,0,0,4,0c-.176-4.121.107-8.267.111-12.39a2,2,0,0,0-4,0Z"/><path class="c" d="M256.209,175.85c.279-3,.577-6.007.789-9.016a49.844,49.844,0,0,0-.42-7.509c-.51-6.148-1.175-12.281-1.731-18.425-.773-8.546-.954-17.12-1.223-25.694-.133-4.231-.561-8.687-.032-12.9l-.586,1.414a33.824,33.824,0,0,1,5.071-3.44,20.461,20.461,0,0,1,5.022-2.447l-2.461-1.4c.043.181.075.363.106.547.025.148.135.958.07.46.1.809.195,1.618.283,2.428.242,2.235.458,4.472.679,6.709.4,4.032.681,8.12,1.386,12.114a1.978,1.978,0,0,0,1.4,1.4,22.163,22.163,0,0,0,5.471.381c3.424.08,6.85.085,10.274.075,7.881-.022,15.767-.126,23.643-.422a65.55,65.55,0,0,0,7.848-.541,1.928,1.928,0,0,0,1.4-1.4c.59-3.594.774-7.27,1.094-10.9.186-2.107.375-4.215.606-6.318a27.568,27.568,0,0,1,.609-4.061l-2.461,1.4a26.915,26.915,0,0,1,9.875,5.452l-.586-1.414a84.591,84.591,0,0,1-.139,11.435c-.162,4.13-.4,8.259-.526,12.391-.319,10.538-1.385,21.043-1.608,31.585a137.046,137.046,0,0,0,1.154,17.852,2.06,2.06,0,0,0,2,2,2.013,2.013,0,0,0,2-2,137,137,0,0,1-1.146-18.2c.163-6.949.732-13.88,1.174-20.814.286-4.485.35-8.968.545-13.455.229-5.253.507-10.506.61-15.763.038-1.954.6-5.385-1.029-6.776a31.764,31.764,0,0,0-11.26-6.149,2.025,2.025,0,0,0-2.461,1.4,72.41,72.41,0,0,0-1.3,10.828c-.188,2.111-.366,4.223-.56,6.334-.081.88-.164,1.76-.26,2.639-.035.322-.072.643-.111.965-.061.512-.058-.343-.013.111a1.754,1.754,0,0,1-.062.4l1.4-1.4c-.546.087.5-.035,0,0-.161.011-.322.034-.483.05-.5.047-.994.082-1.492.115-1.295.085-2.592.144-3.889.2-3.616.147-7.236.235-10.854.305-7.559.145-15.125.235-22.684.1-1.352-.023-2.7-.052-4.054-.12-.459-.023-.917-.062-1.375-.092-.531-.035-.05-.016.034.013-.1-.034-.213-.035-.314-.065l1.4,1.4c-.053-.3-.1-.6-.144-.895-.016-.107-.076-.543-.029-.2-.028-.2-.054-.407-.079-.61-.12-.959-.228-1.919-.332-2.88-.255-2.351-.485-4.705-.717-7.059-.345-3.486-.418-7.195-1.222-10.616a2.031,2.031,0,0,0-2.461-1.4c-2.712.687-5.326,2.4-7.661,3.881a38.992,38.992,0,0,0-3.7,2.621,3.6,3.6,0,0,0-1.17,3c-.252,5.1.066,10.256.247,15.355.153,4.336.192,8.689.417,13.022.368,7.078,1.174,14.132,1.847,21.185.364,3.819.721,7.642.941,11.472.215,3.764-.395,7.6-.742,11.344a2.015,2.015,0,0,0,2,2,2.043,2.043,0,0,0,2-2Z"/><path class="c" d="M323.606,197.665c2.588,24.256,5.054,48.54,6.733,72.879.7,10.108,1.32,20.25,1.3,30.387,0,1.817-.031,3.635-.108,5.451-.009.213-.178,1.048-.059,1.207l.508-.8c-.1.019-.208.037-.313.054a3.12,3.12,0,0,0-.5.08c-.048.007-.636.089-.2.03-.2.027-.393.051-.59.074-.5.061-1.007.115-1.511.165-4.753.475-9.537.678-14.309.858-8.4.319-16.861.63-25.272.473-6.332-.117-12.663-.3-18.993-.5-7.306-.238-14.661-.379-21.936-1.142-.641-.067.329.07-.174-.022a1.692,1.692,0,0,0-.518-.088l-.074-.015q.589,1.187.483.394a4.616,4.616,0,0,0-.029-.821q-.031-.983-.055-1.965c-.059-2.518-.078-5.037-.07-7.556.018-5.611.163-11.22.373-16.826.939-25.161,3.012-50.281,5.255-75.355q.361-4.035.731-8.071a2.015,2.015,0,0,0-2-2,2.043,2.043,0,0,0-2,2q-1.686,18.391-3.145,36.8c-1.023,13.173-1.927,26.357-2.543,39.555-.522,11.168-.916,22.376-.541,33.555.052,1.552.16,3.036,1.7,3.851a5.624,5.624,0,0,0,1.945.477c1.306.175,2.619.285,3.933.38,3.818.277,7.645.439,11.47.59,7.861.312,15.726.527,23.59.705,6.822.154,13.651-.006,20.47-.183,5.458-.142,10.918-.327,16.368-.672,2.114-.134,4.229-.288,6.335-.524,2.317-.26,5.319-.321,5.6-3.3a103.568,103.568,0,0,0,.129-11.82c-.1-5.174-.338-10.346-.629-15.513-.693-12.35-1.7-24.683-2.806-37q-1.686-18.8-3.682-37.57-.43-4.107-.868-8.213a2.059,2.059,0,0,0-2-2,2.012,2.012,0,0,0-2,2Z"/><path class="c" d="M327.816,216.5c-7.549.017-15.143.161-22.685.49a3.485,3.485,0,0,0-3.079,1.61c-.608,1.055-.435,2.409-.442,3.582-.014,2.612-.019,5.226.137,7.835a24.829,24.829,0,0,0,1.211,7.376c.981,2.553,3.014,3.674,5.57,4.4a27.924,27.924,0,0,0,21.976-3.068c2.162-1.382.158-4.845-2.019-3.453a23.973,23.973,0,0,1-16.787,3.145,15.365,15.365,0,0,1-3.632-1,4.715,4.715,0,0,1-.94-.57c-.348-.317.169.322-.087-.121-.094-.163-.186-.325-.265-.5a19.823,19.823,0,0,1-1-5.741c-.164-2.418-.18-4.845-.171-7.268a14.481,14.481,0,0,0,.011-2.6v-.194q.062-.78-.738.571c.028.021.117-.012.15,0a1.99,1.99,0,0,0,.511-.01c3.54-.069,7.08-.167,10.62-.25,3.884-.092,7.771-.223,11.657-.232,2.573-.006,2.578-4.006,0-4Z"/><path class="c" d="M314.558,130.058c-6.119,0-12.238-.02-18.357-.02a2.029,2.029,0,0,0-2,2q-.01,5.37-.024,10.74a2.028,2.028,0,0,0,2,2c6.127,0,12.254-.039,18.381-.039a2.03,2.03,0,0,0,2-2V132.058c0-2.574-4-2.578-4,0v10.681l2-2c-6.127,0-12.254.039-18.381.039l2,2q.01-5.37.024-10.74l-2,2c6.119,0,12.238.019,18.357.02C317.132,134.058,317.136,130.058,314.558,130.058Z"/><path class="c" d="M341,147.953c.685,6.2,1.276,12.414,1.645,18.64.154,2.578.291,5.169.227,7.753-.011.461-.029.923-.066,1.384-.013.166-.029.331-.046.5-.032.3.065-.367.013-.1-.017.084-.023.171-.046.254-.089.317-.281.723-.055.3-.132.246-.257.493-.407.73-.165.261-.347.512-.532.759.279-.372-.067.08-.138.164-.149.178-.3.357-.452.533-.616.706-1.267,1.38-1.933,2.04-1.645,1.63-3.38,3.17-5.141,4.674-3.888,3.321-7.925,6.47-12.02,9.531-3.173,2.371-6.357,4.793-9.713,6.9-2.174,1.367-.169,4.83,2.019,3.454,2.952-1.858,5.76-3.973,8.56-6.047,4.327-3.2,8.6-6.5,12.725-9.951,3.372-2.822,6.9-5.737,9.547-9.283,2.3-3.087,1.757-7.256,1.6-10.9-.31-7.13-1-14.253-1.786-21.345a2.059,2.059,0,0,0-2-2,2.013,2.013,0,0,0-2,2Z"/><path class="c" d="M322.744,150.824c-.006,3.943.139,7.886.365,11.821.156,2.714.854,5.954.415,8.517-.545,3.179-3.411,5.869-5.653,7.958-3.159,2.945-6.695,5.454-9.944,8.3-1.941,1.7.9,4.518,2.829,2.829,3.406-2.981,7.137-5.594,10.406-8.733,2.537-2.437,5.394-5.49,6.17-9.043.656-3,0-6.2-.188-9.223-.249-4.135-.406-8.279-.4-12.422,0-2.574-4-2.578-4,0Z"/><path class="c" d="M308.859,187.064a68.266,68.266,0,0,0-14.1.78,45.728,45.728,0,0,0-7.231,1.552,14.63,14.63,0,0,0-3.121,1.218,21.853,21.853,0,0,0-2.758,2.273,68.864,68.864,0,0,0-10.594,10.846,6.639,6.639,0,0,0,.249,7.861c1.716,2.108,4.917,2.061,7.189.933,1.985-.986,3.647-3.079,5.252-4.576,1.645-1.535,3.29-3.075,4.97-4.573,1.925-1.716-.912-4.537-2.829-2.828-2.648,2.361-5.242,4.792-7.807,7.244-.865.827-2.425,2.11-3.6,1.376a3.819,3.819,0,0,1-.428-.71,2.907,2.907,0,0,1-.136-1.479,4.765,4.765,0,0,1,1.3-2.117,82.416,82.416,0,0,1,9.5-9.359,12.342,12.342,0,0,1,1.943-1.548,13.848,13.848,0,0,1,2.518-.883,47.333,47.333,0,0,1,6.29-1.321,63.272,63.272,0,0,1,13.386-.689c2.57.169,2.559-3.831,0-4Z"/><path class="c" d="M285.647,191.247a19.2,19.2,0,0,0-5.766-2.872c-2.494-.766-5.1-.983-7.629-1.595-4.344-1.052-7.958-4.264-11.381-7q-2.58-2.062-5.146-4.146a4.952,4.952,0,0,1-1.715-2.424c-.937-3.045-.4-6.535-.161-9.661.335-4.389.729-8.782.844-13.184.067-2.575-3.933-2.574-4,0-.108,4.137-.466,8.266-.783,12.391-.269,3.507-.7,7.116.013,10.6.762,3.748,3.61,5.6,6.4,7.864,1.95,1.585,3.916,3.152,5.936,4.647a29.05,29.05,0,0,0,6.066,3.839,44.542,44.542,0,0,0,8.026,1.911,18.006,18.006,0,0,1,7.281,3.086,2.014,2.014,0,0,0,2.736-.718,2.044,2.044,0,0,0-.717-2.736Z"/><path class="c" d="M271.793,205.718a30.446,30.446,0,0,1-6.58-5.336,10.157,10.157,0,0,0-2.392-1.945c-.972-.521-2-.924-2.989-1.413-2.41-1.191-4.684-2.7-6.974-4.1-2.723-1.667-5.428-3.365-8.079-5.145a79.572,79.572,0,0,1-6.437-4.693,32.5,32.5,0,0,1-2.426-2.192,4.3,4.3,0,0,1-1.445-2.806c-1.031-4.463-.62-9.316-.409-13.849.26-5.58.648-11.164,1.251-16.718a2.013,2.013,0,0,0-2-2,2.047,2.047,0,0,0-2,2c-.553,5.092-.917,10.208-1.182,15.322-.253,4.874-.563,9.84.18,14.686a14.568,14.568,0,0,0,1.167,4.2,9.938,9.938,0,0,0,2.2,2.574,57.965,57.965,0,0,0,6.333,5.037c5.171,3.675,10.613,7.027,16.094,10.217.985.574,2,1.063,3.032,1.537.643.295,1.278.6,1.9.931.013.007.651.442.288.152a8.6,8.6,0,0,1,.628.61,37.483,37.483,0,0,0,7.817,6.39c2.243,1.269,4.262-2.185,2.019-3.454Z"/><path class="c" d="M280.24,206.222c-1.2,2.318-1.9,5.572-1.066,8.127,1.133,3.478,5.179,3.915,8.025,2.461l-3.01-1.727c-.07,3.677,4.021,4.957,6.877,3.419a15.707,15.707,0,0,0,4.146-3.579,20.606,20.606,0,0,1,2.9-3.214,11.139,11.139,0,0,1,4.089-1.459c1.619-.405,3.211-.863,4.805-1.355,2.369-.73,5.516-1.3,7.191-3.3,1.641-1.962-1.175-4.806-2.829-2.829-1.143,1.367-3.648,1.736-5.3,2.238-2.579.782-5.318,1.263-7.84,2.2-2.473.917-3.915,2.627-5.572,4.582a16.2,16.2,0,0,1-2.9,2.819,2.47,2.47,0,0,1-1.457.6c-.3,0-.114.325-.106-.118a2.022,2.022,0,0,0-3.009-1.727,1.808,1.808,0,0,1-1.832.15c-.486-.314-.4-.388-.462-.92a8.037,8.037,0,0,1,.808-4.345c1.179-2.284-2.271-4.309-3.454-2.019Z"/><path class="c" d="M263.844,99.331q1-.447,2.008-.873l-.478.2q1.011-.426,2.029-.831a2.238,2.238,0,0,0,1.195-.919,2.046,2.046,0,0,0,.2-1.542,2.025,2.025,0,0,0-.92-1.195,1.94,1.94,0,0,0-1.541-.2q-2.276.906-4.514,1.905a2.01,2.01,0,0,0-.919,1.2,2.047,2.047,0,0,0,.2,1.541,2.017,2.017,0,0,0,1.195.919l.532.072a1.987,1.987,0,0,0,1.009-.273Z"/><path class="c" d="M254.25,148.436c-7.466-1.186-15.087-1.676-22.49-3.226l1.469,1.928c.638-5.663,1.064-11.349,1.664-17.017.273-2.581.5-4.957.944-7.4a17.3,17.3,0,0,1,4.453-8.474c3.343-3.588,7.734-6.145,11.875-8.694,2.189-1.347.182-4.808-2.019-3.454-7.468,4.6-15.433,9.585-17.957,18.54a46.366,46.366,0,0,0-1.055,7.276c-.378,3.339-.7,6.685-1.013,10.031-.289,3.065-.548,6.134-.892,9.193a2,2,0,0,0,1.468,1.929c7.4,1.551,15.023,2.04,22.489,3.226a2.063,2.063,0,0,0,2.461-1.4,2.016,2.016,0,0,0-1.4-2.46Z"/><path class="c" d="M314.345,95.836q-2.192-.978-4.423-1.864a2.009,2.009,0,0,0-1.541.2,2,2,0,0,0-.717,2.737l.312.4a2,2,0,0,0,.883.515q1.029.41,2.051.84l-.478-.2q.951.4,1.894.822a1.492,1.492,0,0,0,.744.237,1.512,1.512,0,0,0,.8-.035,2.043,2.043,0,0,0,1.2-.92,2.017,2.017,0,0,0,.2-1.541,1.943,1.943,0,0,0-.919-1.2Z"/><path class="c" d="M323.075,152.293c7.467-1.186,15.086-1.675,22.49-3.226a2.048,2.048,0,0,0,1.4-2.46c-.027-.167-.051-.333-.076-.5.083.556-.011-.092-.028-.237q-.1-.869-.2-1.74c-.15-1.413-.285-2.829-.418-4.245-.311-3.3-.607-6.594-.94-9.889-.278-2.755-.541-5.528-1.012-8.259a20.756,20.756,0,0,0-4.943-9.712c-3.585-4.141-8.557-7.047-13.169-9.889-2.2-1.354-4.209,2.1-2.019,3.454,6.575,4.052,14.759,8.729,16.246,17.05.411,2.3.636,4.769.9,7.356.324,3.2.612,6.407.914,9.611.252,2.687.46,5.395.887,8.062l1.4-2.46c-7.4,1.55-15.024,2.04-22.489,3.226a2.015,2.015,0,0,0-1.4,2.46,2.048,2.048,0,0,0,2.46,1.4Z"/><path class="d" d="M254.527,68.676a14.745,14.745,0,0,1,.92-6.052,8.674,8.674,0,0,0,1.072,1.034,7.164,7.164,0,0,0,3.335,1.5l1.089.168A28.926,28.926,0,0,0,266.458,76.1a25.637,25.637,0,0,0,7.388,6.241c1.427,9.025-19.879,8.466-18.7,5.467,2.393-1.356,2.938-4.662,2.29-7.335s-1.854-5.317-2.413-8.01A23.913,23.913,0,0,1,254.527,68.676Z"/><path class="c" d="M253.52,62.092c-1.874,5.072-.782,10.4.9,15.354.713,2.1,1.685,4.406,1.079,6.653a3.378,3.378,0,0,1-1.225,1.894,2.454,2.454,0,0,0-1.1,2.627c.556,2.395,3.731,2.813,5.739,3.029A25.832,25.832,0,0,0,267.894,91c3.251-.823,6.5-2.5,7.712-5.81.888-2.421-2.976-3.464-3.857-1.064.015-.04-.273.52-.347.618a8.937,8.937,0,0,1-.777.763c.128-.1-.6.4-.779.5-.245.14-.883.452-.906.461A17.935,17.935,0,0,1,263.4,87.7a25.959,25.959,0,0,1-2.8.067q-.7-.021-1.392-.085c-.073-.007-.62-.069-.427-.043s-.4-.065-.472-.079c-.326-.06-.652-.13-.971-.222-.14-.04-.277-.09-.416-.132-.456-.135.407.16,0,.006-.1-.04-.191-.117-.292-.162-.321-.139.295.317.11.08a1.643,1.643,0,0,1,.327,1.209l-.92,1.195c4.377-2.7,3.823-8.041,2.424-12.262-1.54-4.648-2.971-9.317-1.2-14.115.894-2.418-2.971-3.461-3.857-1.063Z"/><path class="d" d="M321.011,31.252c-.2-1.523-.445-2.9-.671-4-2.959-14.511-17.573-26.031-32.9-25.189-15.325-.842-29.938,10.678-32.9,25.189a41.251,41.251,0,0,0,.023,13.735l1.1,5.8a.7.7,0,0,1,.119-.025,4.267,4.267,0,0,1,3.023.7c5.53-5.149,16.685-13.229,22.031-18.452-.437,3.085-1.992,8.332-.034,7.793,8.178-2.151,16.015-6.489,20.754-13.257A71.027,71.027,0,0,0,305.427,35.3c1.764,3.433,6.9,11.387,11.386,12.077a4.252,4.252,0,0,1,2.887-.616,3.4,3.4,0,0,1,.424.089C321.938,42.605,321.666,36.151,321.011,31.252Z"/><path class="c" d="M256.5,40.45a34.4,34.4,0,0,1-.286-10.986,25.959,25.959,0,0,1,3.6-10.269A31.625,31.625,0,0,1,277.377,5.336a38.153,38.153,0,0,1,11.691-1.321,28.939,28.939,0,0,1,11.2,2.323,31.637,31.637,0,0,1,16.194,15.48,34.977,34.977,0,0,1,2.777,11.406c.433,4.3.633,9-1.04,13.075a2.014,2.014,0,0,0,1.4,2.461,2.052,2.052,0,0,0,2.461-1.4c1.637-3.994,1.626-8.643,1.3-12.88a44.694,44.694,0,0,0-2.228-11.793A35.047,35.047,0,0,0,304.619,4,34.482,34.482,0,0,0,292.114.178a57.611,57.611,0,0,0-6.478-.162,32.766,32.766,0,0,0-6.569.74A35.7,35.7,0,0,0,258,14.69a30.52,30.52,0,0,0-5.518,12.772,38,38,0,0,0,.16,14.052c.558,2.512,4.415,1.449,3.857-1.064Z"/><path class="c" d="M299.757,24.56a67.976,67.976,0,0,0,3.636,11.107,36.767,36.767,0,0,0,6.5,9.485c1.752,1.894,4.575-.94,2.828-2.829a33.373,33.373,0,0,1-5.871-8.675A64.65,64.65,0,0,1,303.614,23.5c-.642-2.49-4.5-1.435-3.857,1.064Z"/><path class="c" d="M299.92,22.416A31.279,31.279,0,0,1,286.855,32.6a39.952,39.952,0,0,1-3.934,1.493q-.936.3-1.884.57-.283.08-.569.155-.77.165.8.216l.613.755q-.073-.32-.024-.016a6.4,6.4,0,0,0,.041-1.23c.051-.484.141-.963.228-1.442.215-1.188.47-2.369.648-3.564.279-1.874-1.79-3.453-3.343-1.946C272.577,34.247,264.5,39.5,257.481,45.97c-1.9,1.749.937,4.572,2.828,2.828,7.015-6.471,15.1-11.723,21.95-18.375l-3.343-1.946c-.218,1.459-.551,2.9-.786,4.355a9.193,9.193,0,0,0-.107,4.024c1.091,3.615,5.919,1.179,8.19.308,6.8-2.607,12.937-6.721,17.161-12.729,1.483-2.111-1.983-4.112-3.454-2.019Z"/><path class="c" d="M317.71,49.168a2.181,2.181,0,0,1,3.082.406,4.681,4.681,0,0,1,.447,2.381,14.221,14.221,0,0,1-.2,2.928c-.635,3.478-2.389,7.656-6.257,8.35a2.018,2.018,0,0,0-1.4,2.46,2.044,2.044,0,0,0,2.46,1.4c6.016-1.079,8.888-7.864,9.34-13.317.235-2.824-.012-6.019-2.452-7.844a6.289,6.289,0,0,0-7.853.411,2.015,2.015,0,0,0,0,2.828,2.044,2.044,0,0,0,2.829,0Z"/><path class="c" d="M313.271,61.994a15.956,15.956,0,0,1-.931,4.3c-.063.191-.49,1.312-.22.7-.134.3-.274.6-.423.9a36.526,36.526,0,0,1-3.146,5.056c-2.722,3.734-6.422,7.693-11.084,8.787-2.5.588-1.445,4.446,1.063,3.857,5.636-1.322,10.006-5.927,13.321-10.416,2.861-3.873,5.22-8.263,5.42-13.185.1-2.574-3.9-2.57-4,0Z"/><path class="c" d="M260.608,46.34a6.29,6.29,0,0,0-7.852-.411c-2.442,1.819-2.687,5.025-2.453,7.844.453,5.452,3.325,12.238,9.34,13.317a2.057,2.057,0,0,0,2.461-1.4,2.017,2.017,0,0,0-1.4-2.46c-3.868-.694-5.623-4.873-6.258-8.35a14.126,14.126,0,0,1-.2-2.763,5.456,5.456,0,0,1,.38-2.432,2.165,2.165,0,0,1,3.152-.52,2.053,2.053,0,0,0,2.828,0,2.015,2.015,0,0,0,0-2.828Z"/><path class="c" d="M258.418,61.776a33.191,33.191,0,0,0,7.076,15.888c3.988,4.721,9.267,8.119,15.481,8.79a2.012,2.012,0,0,0,2-2,2.046,2.046,0,0,0-2-2c-5.261-.568-9.65-3.955-12.913-7.931-3.227-3.931-4.923-8.859-5.787-13.81a2.017,2.017,0,0,0-2.46-1.4,2.045,2.045,0,0,0-1.4,2.46Z"/><path class="c" d="M282.834,71.22a12.025,12.025,0,0,0,5.785,1.35,9.536,9.536,0,0,0,5.95-1.8,2,2,0,0,0,0-2.829,2.062,2.062,0,0,0-2.828,0c.691-.538-.021-.015-.239.1-.169.089-.62.229.012.014-.157.054-.31.12-.469.17-.423.137-.9.154-1.311.3.211-.075.327-.039.027-.01-.129.013-.257.024-.386.032-.311.02-.622.028-.933.026-.278,0-.557-.011-.835-.03-.127-.009-.255-.019-.382-.032-.073-.007-.145-.015-.218-.024q-.235-.028.186.025a4.754,4.754,0,0,1-1.226-.272c-.171-.052-.339-.113-.508-.171-.447-.153.423.2.017.011-.21-.1-.417-.2-.623-.311a2,2,0,0,0-2.019,3.454Z"/><path class="c" d="M287.341,57.932a25.593,25.593,0,0,1,.607,2.777l-.071-.532a1.692,1.692,0,0,1,.01.383l.071-.531a.938.938,0,0,1-.042.172l.2-.478a.707.707,0,0,1-.061.111l.313-.405a.6.6,0,0,1-.091.09l.405-.313a1.773,1.773,0,0,1-.22.116l.478-.2a1.645,1.645,0,0,1-.371.108l.532-.072a1.5,1.5,0,0,1-.348,0l.531.071c-.131-.018-.259-.05-.391-.068a1.512,1.512,0,0,0-.8-.035,1.492,1.492,0,0,0-.744.237,2,2,0,0,0-.717,2.736l.312.405a2,2,0,0,0,.883.514c.35.048.689.135,1.045.151a3.44,3.44,0,0,0,1.606-.392,2.445,2.445,0,0,0,1.317-1.6,3.769,3.769,0,0,0-.014-1.654c-.151-.894-.358-1.781-.588-2.658a2,2,0,0,0-2.46-1.4,2.017,2.017,0,0,0-1.195.919,2.1,2.1,0,0,0-.2,1.541Z"/><path class="c" d="M273.215,49.915c-.464,1.507-.161,4.974,2.693,5.269,3.773-.023,3.974-4.214,2.7-6.184C277.572,47.386,274.514,46.715,273.215,49.915Z"/><path class="c" d="M303.43,49.915c.464,1.507.162,4.974-2.693,5.269-3.773-.023-3.974-4.214-2.7-6.185C299.073,47.386,302.131,46.715,303.43,49.915Z"/><path class="e" d="M48.7,321.833c0,1.448,0,3.585,0,6.144l119.312-.629c0-2.633,0-4.829,0-6.312,0-9.42.3-31.917.3-40.423l-.16-11.629c.123-11.864-.2-34.711-.352-48.492-12.39,0-104.576-.046-118.967-.046-.082,13.706-.226,36.653-.1,48.612L48.4,281.8C48.4,290.223,48.7,312.5,48.7,321.833Z"/><path class="e" d="M48.7,327.978c0,3.761,0,8.443,0,13.257q1.764-.022,3.529-.042c38.469-.438,77.252-.456,115.789-1.149,0-4.6,0-9.057,0-12.682C127.684,327.739,88.86,327.765,48.7,327.978Z"/><path class="e" d="M147.686,365.854q10.331-.084,20.346-.212a.788.788,0,0,0-.011.158c0,3-.015,15.489-.024,26.305-36.566.016-83.586.389-119.282.406-.009-10.779-.024-23.34-.024-26.344v-.247q10.588.049,21.04.082Z"/><path class="a" d="M168.309,281.939c0-.407,0-.792,0-1.153,2.535.029,5.427.054,8.21.057v.2c0,9.2-.3,22.92-.3,33.12,0,8.98.01,41.95.01,48.47,0,4.62-.03,29.914-.03,41.376l-8.21,0c0-10.585.03-33.948.03-38.214,0-6.022-.01-36.47-.01-44.764C168.011,312.071,168.283,291.259,168.309,281.939Z"/><path class="a" d="M167.707,213.089q0-.39-.006-.746l0-.4a3.465,3.465,0,0,0,2.593,1.134h3.314a4.882,4.882,0,0,0,2.884-.743c-.066,10.761.283,42.1.413,56.788-2.938,0-5.978.013-8.754.019l0-.156C168.3,254.583,167.79,224,167.707,213.089Z"/><path class="a" d="M40.321,297.27c-.075-5.832-.15-11.541-.15-16.145,0,0,0-.1,0-.281,2.792,0,5.692-.025,8.232-.05,0,.637,0,1,0,1,0,8.425.3,30.706.3,40.035,0,8.214-.01,38.371-.01,44.334,0,4.225.03,27.366.03,37.852-2.834,0-5.642-.007-8.23-.008,0-11.462-.03-36.756-.03-41.376,0-6.52.01-39.49.01-48.47C40.471,309.064,40.4,303.105,40.321,297.27Z"/><path class="a" d="M48.891,213.858q0-.676.008-1.264a5.448,5.448,0,0,1-2.448.482H43.137a3.49,3.49,0,0,1-2.746-1.3c.065,10.782-.286,42.71-.414,57.341l8.753.023v-.083C48.583,254.863,48.813,225.187,48.891,213.858Z"/><path class="a" d="M53.474,280.739c-4.771.05-15.319.2-21.134.024a2.039,2.039,0,0,1-1.984-2.067c.016-1.157.043-2.4.072-3.6a6.131,6.131,0,0,1,6.144-5.985c5.652.013,12.266.036,16.882.042a2.051,2.051,0,0,1,2.048,2.057v7.474A2.052,2.052,0,0,1,53.474,280.739Z"/><path class="a" d="M163.218,280.739c4.77.05,15.318.2,21.133.024a2.039,2.039,0,0,0,1.984-2.067c-.012-.884-.031-1.815-.051-2.743a7,7,0,0,0-7.012-6.842c-5.455.013-11.647.034-16.034.04a2.052,2.052,0,0,0-2.049,2.057v7.474A2.052,2.052,0,0,0,163.218,280.739Z"/><path class="a" d="M174.212,204.139a4.2,4.2,0,0,1,3.794,4.266c0,2.826-1.037,4.671-4.4,4.671h-3.314c-1.935,0-3.719-1.5-3.719-4.5,0-3.318,2.236-4.465,3.373-4.465C172.38,204.116,173.646,204.035,174.212,204.139Z"/><path class="a" d="M47.057,204.139a4.2,4.2,0,0,1,3.795,4.266c0,2.826-1.038,4.671-4.4,4.671H43.137c-1.935,0-3.719-1.5-3.719-4.5,0-3.318,2.237-4.465,3.373-4.465C45.225,204.116,46.491,204.035,47.057,204.139Z"/><path class="f" d="M112.5,418.761s21.245.1,33.42.1c6.457,0,26.657-.223,32.531-.223V404.011c-15.37,0-162.164.078-108.824.051-5.178-.015-20.267-.051-30.732-.051v14.628c5.874,0,26.074.223,32.531.223,12.175,0,41.715-.1,41.923-.1"/><path class="f" d="M203.428,370.223c0-9.382-.181-56.715-.181-66.176,0-3.979-1.737-9.124-6.461-9.124-4.79,0-6.76,3.034-7.1,7.177-.65,7.9-.392,63.092-.392,68.437,0,8.854-.055,54.66-.055,64.183,0,3.622,1.026,9.186,7.034,9.186,5.742,0,7.168-5.654,7.168-9.7C203.44,428.534,203.428,371.318,203.428,370.223Z"/><path class="f" d="M13.173,370.223c0-9.382.181-56.715.181-66.176,0-3.979,1.736-9.124,6.461-9.124,4.79,0,6.76,3.034,7.1,7.177.649,7.9.392,63.092.392,68.437,0,8.854.055,54.66.055,64.183,0,3.622-1.026,9.186-7.035,9.186-5.741,0-7.167-5.654-7.167-9.7C13.161,428.534,13.173,371.318,13.173,370.223Z"/><path class="c" d="M38.171,281.125c0,11.132.3,22.261.3,33.392q0,10.551,0,21.1,0,19.558,0,39.118.014,14.638.021,29.278c0,2.574,4,2.579,4,0q0-21.805-.03-43.612,0-22.086.01-44.173c0-11.7-.295-23.4-.3-35.105,0-2.573-4-2.578-4,0Z"/><path class="c" d="M48.7,222.446q8.073,0,16.146,0L92,222.462l30.781.013,27.473.012,16.783,0h.97c2.574,0,2.578-4,0-4q-7.486,0-14.972,0l-26.551-.011-30.746-.014-28.006-.011q-8.943,0-17.887-.006H48.7c-2.574,0-2.578,4,0,4Z"/><path class="c" d="M46.9,212.59c-.093,14.878-.215,29.757-.214,44.635,0,3.944.008,7.889.048,11.833.026,2.572,4.026,2.579,4,0-.158-15.662,0-31.329.1-46.99q.032-4.74.063-9.478c.017-2.575-3.983-2.578-4,0Z"/><path class="c" d="M38.391,211.777c.088,15.145-.157,30.3-.3,45.44q-.056,5.881-.11,11.764c-.023,2.574,3.977,2.576,4,0,.14-15.824.328-31.647.4-47.47.015-3.245.029-6.49.01-9.734-.015-2.573-4.015-2.579-4,0Z"/><path class="c" d="M178.2,404.015q0-21.805.03-43.612,0-22.176-.01-44.352c0-11.669.295-23.336.3-35.006,0-2.573-4-2.578-4,0,0,11.134-.3,22.266-.3,33.4q0,10.432,0,20.866,0,19.713,0,39.426-.014,14.638-.021,29.278c0,2.574,4,2.579,4,0Z"/><path class="c" d="M48.872,330c30.818-.186,61.638-.232,92.456-.445q13.093-.09,26.185-.227c2.573-.028,2.579-4.028,0-4-30.846.328-61.7.409-92.543.541q-13.048.055-26.1.131c-2.573.016-2.579,4.016,0,4Z"/><path class="c" d="M48.948,343.229c30.906-.368,61.815-.45,92.721-.8q13.137-.15,26.273-.379c2.571-.046,2.579-4.047,0-4-30.92.552-61.846.675-92.769.926q-13.113.107-26.225.257c-2.572.031-2.579,4.031,0,4Z"/><path class="c" d="M147.686,367.854q10.128-.083,20.254-.21c2.572-.033,2.579-4.033,0-4q-10.127.127-20.254.21c-2.573.022-2.579,4.022,0,4Z"/><path class="c" d="M48.762,367.919q10.485.051,20.969.083c2.574.008,2.578-3.992,0-4q-10.485-.031-20.969-.083c-2.574-.013-2.578,3.987,0,4Z"/><path class="c" d="M49,394.512q22.633,0,45.265-.137,24.144-.114,48.287-.22,12.561-.043,25.123-.05c2.573,0,2.578-4,0-4q-22.965,0-45.929.137-24.05.113-48.1.22-12.322.043-24.646.05c-2.573,0-2.578,4,0,4Z"/><path class="c" d="M46.4,281.8c0,16.329.3,32.657.3,48.986q-.006,21.356,0,42.712.015,15.264.024,30.529c0,2.574,4,2.579,4,0q0-22.192-.029-44.386c0-15.656.086-31.315-.039-46.971-.083-10.289-.249-20.58-.252-30.87,0-2.573-4-2.578-4,0Z"/><path class="c" d="M169.991,404.015q0-22.354.029-44.709c0-15.814-.087-31.63.039-47.443.082-10.416.249-20.833.252-31.25,0-2.574-4-2.578-4,0,0,16.534-.3,33.066-.3,49.6q.006,21.55,0,43.1-.015,15.351-.024,30.7c0,2.574,4,2.579,4,0Z"/><path class="c" d="M165.7,212.343c.1,14.955.393,29.908.463,44.863.018,3.926.026,7.852-.013,11.778-.026,2.574,3.974,2.576,4,0,.158-15.734-.16-31.474-.351-47.206-.038-3.145-.078-6.29-.1-9.435-.016-2.573-4.016-2.579-4,0Z"/><path class="c" d="M174.49,212.343c-.088,15,.156,30.007.3,45.007q.057,5.88.111,11.761c.023,2.573,4.023,2.579,4,0-.138-15.681-.327-31.361-.4-47.042-.016-3.242-.029-6.484-.01-9.726.015-2.575-3.985-2.578-4,0Z"/><path class="c" d="M53.474,278.739c-4.074.043-8.148.093-12.222.1-2.177.006-4.353,0-6.53-.029q-.767-.01-1.534-.028c-.205,0-.87-.076-.762,0-.249-.18.026.111-.059-.037a4.129,4.129,0,0,1,0-.936c.013-.755.027-1.511.047-2.266a4.3,4.3,0,0,1,2.713-4.19,8.219,8.219,0,0,1,2.946-.245l4.21.011,8.182.021,1.729,0c.243,0,1.219-.02,1.19-.041.18.134.04-.131.115.127a2.072,2.072,0,0,1,0,.459c.035,1.49,0,2.985,0,4.475,0,.675.011,1.352,0,2.026a1.884,1.884,0,0,1,0,.444c-.057.189-.06.1-.028.1a2.053,2.053,0,0,0-2,2,2.015,2.015,0,0,0,2,2c2.658-.242,4.028-2.144,4.028-4.682v-5.129c0-1.856.048-3.691-1.625-4.95-1.26-.948-2.748-.827-4.242-.83q-2.461,0-4.922-.012c-3.375-.009-6.767-.121-10.141-.027a8.3,8.3,0,0,0-7.01,3.988,8.583,8.583,0,0,0-1.134,4c-.087,1.593-.355,3.56.21,5.067,1.121,2.987,4.453,2.637,7.067,2.665,5.923.062,11.846-.024,17.769-.087C56.046,282.711,56.053,278.711,53.474,278.739Z"/><path class="c" d="M163.218,282.739c5.231.056,10.463.124,15.694.1,1.23,0,2.459-.015,3.687-.037,1.459-.025,2.931.048,4.149-.889,1.358-1.044,1.6-2.5,1.573-4.116a14.28,14.28,0,0,0-.55-4.676,9.154,9.154,0,0,0-5.659-5.555,12.538,12.538,0,0,0-4.145-.453l-5.566.015c-3.124.009-6.385-.243-9.5.049-2.5.235-3.715,2.338-3.715,4.655v5.727a9.278,9.278,0,0,0,.1,1.985,4.158,4.158,0,0,0,3.931,3.194,2.016,2.016,0,0,0,2-2,2.042,2.042,0,0,0-2-2c.037,0,.015.073-.029-.068a1.443,1.443,0,0,1,0-.246c-.054-.548,0-1.13,0-1.681v-4.32a4.836,4.836,0,0,1,0-1.147c.028-.1.093-.192.013-.108.128-.134.113-.054.036-.018a3.4,3.4,0,0,1,1.071,0q3.934-.006,7.87-.019l4.019-.011a24.788,24.788,0,0,1,3.893.048,5.068,5.068,0,0,1,3.823,3.018,8.412,8.412,0,0,1,.4,3.156c.006.275.025,1.4.042,1.381-.02.023-.2.13,0,.041a3.47,3.47,0,0,1-.848.022c-2.133.049-4.266.059-6.4.059-4.629,0-9.258-.056-13.886-.105C160.643,278.711,160.641,282.711,163.218,282.739Z"/><path class="c" d="M173.68,206.068a8.863,8.863,0,0,1,1,.269c.482.153-.323-.206.088.044.122.075.252.137.373.215l.115.077q.266.192-.086-.069c.022-.012.258.239.281.262.065.067.164.235.244.277-.188-.248-.223-.286-.1-.115.032.048.063.1.092.148.048.082.087.171.137.251.213.341-.129-.45-.024-.069.056.2.122.408.177.614.078.287-.093.247,0-.133a1.244,1.244,0,0,0,.026.289,6.944,6.944,0,0,1,0,.777c0,.115-.012.23-.022.345l-.013.134c-.026.223-.02.176.02-.141-.091.076-.125.595-.165.727a1.948,1.948,0,0,0-.116.334c.025-.388.155-.293.012-.063a3.186,3.186,0,0,0-.172.286q-.18.254.115-.141c-.047.056-.1.111-.147.163a1.781,1.781,0,0,0-.159.153c-.246.3.39-.232.049-.038-.1.057-.2.117-.3.178-.358.22.443-.133.027-.005-.261.08-.518.148-.785.207-.479.107.449-.01-.067.006-.221.006-.441.024-.663.026-.73.006-1.461,0-2.192,0H170.7c-.177,0-.355,0-.531,0-.349-.014-.188-.143.044.022a2.7,2.7,0,0,0-.7-.195c.273-.028.332.159.037-.01-.071-.041-.141-.084-.21-.13q-.258-.184.106.086c.023-.044-.471-.37-.452-.458l.151.194q-.078-.112-.15-.228c-.074-.121-.132-.249-.2-.373.242.437.022.047-.018-.075-.049-.151-.09-.3-.125-.458-.018-.08-.085-.613-.038-.136-.024-.244-.038-.487-.038-.732,0-.182.016-.362.021-.543,0-.105.074-.378-.011.03.063-.3.139-.591.224-.887.129-.452-.212.361.013-.03.064-.113.12-.229.189-.339.154-.248.263-.167-.031.006.11-.064.215-.247.309-.339.029-.028.206-.224.245-.217,0,0-.435.277-.069.07.084-.048.171-.1.254-.148.421-.255-.348.092-.059.018.081-.021.16-.054.241-.076.474-.125-.144-.022-.156,0,.05-.1.942-.014,1.062-.015.7,0,1.4-.02,2.1-.025.248,0,.5,0,.743,0l.244.012c.443.012-.487-.081-.213-.035a2.049,2.049,0,0,0,2.46-1.4,2.024,2.024,0,0,0-1.4-2.461,22.906,22.906,0,0,0-3.938-.1,5.831,5.831,0,0,0-3.816,1.1,6.267,6.267,0,0,0-2.323,4.222,7.329,7.329,0,0,0,1.1,5.276,5.636,5.636,0,0,0,4.4,2.365c.942.034,1.894,0,2.837,0a7.517,7.517,0,0,0,4.8-1.246,5.6,5.6,0,0,0,2.053-3.652,7.7,7.7,0,0,0-.6-4.82,6.412,6.412,0,0,0-4.508-3.148,2,2,0,0,0-1.063,3.858Z"/><path class="c" d="M46.525,206.068a8.936,8.936,0,0,1,1,.269c.481.153-.323-.206.087.044.123.075.252.137.373.215l.115.077q.265.192-.085-.069a1.971,1.971,0,0,1,.28.262c.065.067.164.235.244.277-.188-.248-.223-.286-.1-.115.032.048.063.1.092.148.049.082.087.171.138.251.212.341-.13-.45-.025-.069.057.2.122.408.178.614.078.287-.094.247-.005-.133a1.363,1.363,0,0,0,.026.289,7.192,7.192,0,0,1,0,.777c-.006.115-.013.23-.023.345l-.013.134q-.039.335.02-.141c-.09.076-.125.595-.165.727a1.861,1.861,0,0,0-.115.334c.024-.388.154-.293.011-.063a3.186,3.186,0,0,0-.172.286c-.12.169-.081.122.115-.141-.047.056-.1.111-.147.163a1.927,1.927,0,0,0-.159.153c-.246.3.391-.232.049-.038-.1.057-.2.117-.3.178-.358.22.444-.133.027-.005-.261.08-.517.148-.784.207-.479.107.448-.01-.068.006-.221.006-.441.024-.663.026-.73.006-1.461,0-2.191,0h-.715c-.177,0-.354,0-.531,0-.349-.014-.188-.143.045.022a2.713,2.713,0,0,0-.7-.195c.274-.028.332.159.037-.01-.071-.041-.141-.084-.209-.13q-.258-.184.105.086c.023-.044-.471-.37-.451-.458l.151.194q-.079-.112-.15-.228c-.074-.121-.133-.249-.2-.373.243.437.022.047-.018-.075-.049-.151-.09-.3-.125-.458-.018-.08-.084-.613-.038-.136-.024-.244-.038-.487-.038-.732,0-.182.016-.362.021-.543,0-.105.074-.378-.011.03.063-.3.14-.591.224-.887.129-.452-.211.361.013-.03.065-.113.12-.229.189-.339.154-.248.264-.167-.031.006.11-.064.215-.247.31-.339.029-.028.2-.224.244-.217,0,0-.435.277-.069.07.085-.048.171-.1.255-.148.421-.255-.349.092-.06.018.081-.021.16-.054.242-.076.473-.125-.145-.022-.157,0,.051-.1.942-.014,1.062-.015.7,0,1.4-.02,2.1-.025.247,0,.495,0,.742,0,.082,0,.163.009.245.012.443.012-.488-.081-.214-.035a2.051,2.051,0,0,0,2.461-1.4,2.025,2.025,0,0,0-1.4-2.461,22.92,22.92,0,0,0-3.939-.1,5.831,5.831,0,0,0-3.816,1.1,6.271,6.271,0,0,0-2.323,4.222,7.329,7.329,0,0,0,1.1,5.276,5.636,5.636,0,0,0,4.4,2.365c.943.034,1.894,0,2.838,0a7.514,7.514,0,0,0,4.8-1.246,5.6,5.6,0,0,0,2.053-3.652,7.7,7.7,0,0,0-.6-4.82,6.412,6.412,0,0,0-4.507-3.148,2,2,0,0,0-1.064,3.858Z"/><path class="c" d="M112.5,420.761c17.282.082,34.562.119,51.844-.027,4.7-.039,9.405-.094,14.107-.095a2.029,2.029,0,0,0,2-2V404.011a2.028,2.028,0,0,0-2-2q-8.48,0-16.96,0l-29.563.014-33,.016-27.564.015c-4.379,0-8.8-.173-13.175.007-.059,0-.118,0-.177,0-2.572.034-2.58,4,0,4,2.306,0,4.612,0,6.918,0l4.7,0c2.573,0,2.577-3.993,0-4q-15.366-.043-30.732-.051a2.028,2.028,0,0,0-2,2v14.628a2.029,2.029,0,0,0,2,2c10.556,0,21.113.2,31.67.222,10.945.025,21.89-.035,32.835-.068,3.316-.01,6.633-.027,9.949-.032,2.574,0,2.578-4,0-4-8.389.013-16.778.053-25.168.074q-15.81.039-31.619-.071c-5.889-.049-11.778-.123-17.667-.125l2,2V404.011l-2,2q15.366,0,30.732.051v-4l-11.087.006h-.529v4c3.586-.048,7.175,0,10.761-.006l26.375-.014,32.821-.016,30.376-.014q9.5,0,19-.007h1.1l-2-2v14.628l2-2c-18.864.006-37.723.236-56.589.162q-4.682-.018-9.362-.04c-2.575-.012-2.578,3.988,0,4Z"/><path class="c" d="M106.351,413.947v3.491a2.062,2.062,0,0,0,.586,1.414,2,2,0,0,0,2.828,0,2.078,2.078,0,0,0,.586-1.414v-3.491a2.064,2.064,0,0,0-.586-1.415,2,2,0,0,0-2.828,0,2.083,2.083,0,0,0-.586,1.415Z"/><path class="c" d="M212.051,316.234v37.188q0,21.765.227,43.529c.075,8.134.071,16.278.322,24.409.079,2.568,4.079,2.579,4,0-.525-17.023-.431-34.085-.517-51.115-.062-12.41-.032-24.822-.032-37.233V316.234c0-2.574-4-2.578-4,0Z"/><path class="c" d="M205.428,370.223c0-10.87-.055-21.739-.089-32.609q-.054-16.627-.092-33.254c-.01-3.363-.82-7.248-3.482-9.559a8.7,8.7,0,0,0-11.033.178c-3.533,3.055-3.168,8.431-3.264,12.7-.262,11.667-.226,23.343-.226,35.012,0,9.171.041,18.341.051,27.511.011,10.426-.016,20.853-.027,31.279-.011,11.079-.113,22.163-.028,33.242.023,3.1.646,6.477,2.883,8.787a8.972,8.972,0,0,0,10.645,1.216c4.479-2.75,4.674-8.3,4.673-12.983q0-15.291,0-30.58l-.006-29.072v-1.865c0-2.574-4-2.578-4,0q0,10.48,0,20.961l.006,33.577c0,3.066.012,6.133,0,9.2-.008,2.318-.3,5.079-2.044,6.794a4.726,4.726,0,0,1-7.043-.873c-1.146-1.933-1.116-4.128-1.115-6.341q0-2.939,0-5.878.007-8.842.017-17.685.016-17.874.033-35.748c0-7.13-.028-14.26-.04-21.39-.019-12.1-.029-24.2.087-36.3.04-4.172.067-8.349.239-12.518.076-1.835.108-3.861,1.221-5.411a4.448,4.448,0,0,1,7.033.019c1.406,2.086,1.414,4.6,1.417,7.016q0,2.987.012,5.973.023,8.758.052,17.517.057,18.2.109,36.4.006,2.344.007,4.689C201.428,372.8,205.428,372.8,205.428,370.223Z"/><path class="c" d="M.55,316.234v37.188q0,21.765-.227,43.529C.248,405.085.252,413.229,0,421.36c-.079,2.575,3.921,2.573,4,0,.525-17.023.43-34.085.516-51.115.063-12.41.033-24.822.033-37.233V316.234c0-2.574-4-2.578-4,0Z"/><path class="c" d="M15.173,370.223c0-10.42.051-20.841.085-31.261q.053-16.725.1-33.451c0-2.442.033-5.078,1.579-7.122,1.726-2.283,5.682-1.841,7.088.57a10.955,10.955,0,0,1,1.008,5.183c.072,1.777.109,3.556.141,5.335.211,11.57.192,23.146.189,34.717,0,8.679-.041,17.358-.05,26.037-.01,9.966.015,19.933.025,29.9q.018,16.77.03,33.541c0,2.235.016,4.508-1.247,6.424a4.742,4.742,0,0,1-7.1.468c-2.392-2.62-1.858-6.876-1.857-10.184q0-15.336,0-30.672l.006-27.715v-1.769c0-2.574-4-2.578-4,0q0,11.046,0,22.092,0,17.126-.007,34.252a89.5,89.5,0,0,0,.095,9.453c.366,3.409,1.627,7.086,4.815,8.841,3.282,1.805,8.031,1.325,10.579-1.539,3.386-3.805,2.713-9.414,2.71-14.141q-.007-8.8-.016-17.6-.019-18.635-.036-37.27c0-7.534.031-15.069.042-22.6.018-12.416.032-24.833-.11-37.249-.044-3.869-.047-7.753-.274-11.617-.174-2.964-.886-6.083-3.31-8.036-3.105-2.5-8.082-2.615-11.031.181-3.976,3.769-3.27,9.915-3.281,14.9q-.021,8.821-.051,17.644-.06,18.907-.114,37.817-.006,2.435-.007,4.871C11.173,372.8,15.173,372.8,15.173,370.223Z"/><path class="a" d="M99.912,381.88c-.017-.275-.035-.5-.052-.672,0,0-.021-.216-.051-.543-5.429.2-13.456.166-18.621.1,0,1.07-.157,2.55-.221,3.13a24.665,24.665,0,0,1-.551,3.384,6.449,6.449,0,0,1-1.1,1.982l.025.416a9.354,9.354,0,0,1,1.146-.755c2.987-1.671,9-1.423,12.48-1.423a11.539,11.539,0,0,1,6.055,1.676,9.346,9.346,0,0,1,1.12.8v-1.66C100.144,387.357,100.025,383.664,99.912,381.88Z"/><path class="a" d="M118.719,382.981a7.551,7.551,0,0,1,.183-2.034c5.557.041,13.488-.2,18.592-.387,0,.095.009.148.009.148,0,1.074.157,2.6.221,3.19a24.665,24.665,0,0,0,.551,3.384,6.449,6.449,0,0,0,1.1,1.982l-.031.412a9.333,9.333,0,0,0-1.14-.751c-2.986-1.671-9-1.423-12.48-1.423a11.535,11.535,0,0,0-6.054,1.676,9.28,9.28,0,0,0-1.121.8v-1.66C118.547,387.527,118.628,384.884,118.719,382.981Z"/><path class="a" d="M85.671,412.438a24.844,24.844,0,0,1-5.617-1.242c-6.169-2.2-9.465-6.677-8.39-10.809a14.846,14.846,0,0,1,2.5-4.652q1.314-1.833,2.788-3.627a12.246,12.246,0,0,1,3.537-3.183c2.987-1.671,9-1.423,12.48-1.423a11.539,11.539,0,0,1,6.055,1.676,13.556,13.556,0,0,1,3.242,2.975c2.968,3.433,6.02,7.21,4.606,10.957a10.59,10.59,0,0,1-1.822,2.87,16.615,16.615,0,0,1-4.85,4.154C96.419,412.221,90.816,413,85.671,412.438Z"/><path class="a" d="M133.02,412.438a24.844,24.844,0,0,0,5.617-1.242c6.169-2.2,9.465-6.677,8.39-10.809a14.825,14.825,0,0,0-2.5-4.652q-1.314-1.833-2.788-3.627a12.246,12.246,0,0,0-3.537-3.183c-2.986-1.671-9-1.423-12.48-1.423a11.535,11.535,0,0,0-6.054,1.676,13.518,13.518,0,0,0-3.242,2.975c-2.969,3.433-6.021,7.21-4.607,10.957a10.59,10.59,0,0,0,1.822,2.87,16.606,16.606,0,0,0,4.851,4.154C122.272,412.221,127.875,413,133.02,412.438Z"/><path class="a" d="M124.59,287.768c-3.63.27-9.617,1.453-12.162,5.967a23.87,23.87,0,0,0-2.735,11.069c.027,8.777,1.355,43.37,1.613,48.77.4,8.29,1,18.884,1.217,26.883,1.066,1.116,28.112.012,29.9-.109,2.413-.165,2.846-1.52,3.267-4.1.921-5.65,3.579-47.082,2.637-58.634-.635-7.779-.116-15.394-5.16-22.585C139.912,290.4,136.387,286.893,124.59,287.768Z"/><path class="a" d="M91.414,287.668c3.571.18,9.481,1.214,12.093,5.664a24.2,24.2,0,0,1,2.963,11c.193,8.776-.246,43.391-.365,48.8-.183,8.3-.513,18.9-.523,26.9-1.018,1.142-27.589.73-29.343.653-2.374-.105-2.833-1.45-3.311-4.019-1.046-5.625-4.712-47-4.075-58.572.428-7.792-.271-15.392,4.5-22.706C76.432,290.672,79.805,287.084,91.414,287.668Z"/><path class="g" d="M90.037,198.733l-2.407-2.686a153.137,153.137,0,0,0-27.385,11.774,34.152,34.152,0,0,0-4.608,3.515c-3.235,2.339-6.935,9.76-9.164,15.578l-.208.678c-1.581,5.145-3.447,13.447-4.938,18.877-1.516,5.524-3.325,17.756-.877,22.257,3.487,6.413,22.609,25.57,28.654,29.408,2.341-3.08,9.547-11.963,13.9-15.776l.885.457c1.01.73,4.99,1.58,6.26,1.85,2.87.62,5.82.73,8.67,1.38,4.033.924,6.414.622,10.172,4.923a11.024,11.024,0,0,1,1.758-2.223c2.41-2.37,4.36-2.32,7.28-3.1,2.5-.67,5.11-.8,7.63-1.44a15.934,15.934,0,0,0,4.44-2.07l.563-.437c4,3.755,12.05,12.216,14.261,15.75-1.457,1.714,26.434-21.578,30.319-28.722,2.448-4.5.639-16.733-.877-22.257-1.491-5.43-3.357-13.732-4.938-18.877l-.208-.678c-2.229-5.818-5.93-13.239-9.165-15.578a34.027,34.027,0,0,0-4.608-3.515,153.1,153.1,0,0,0-27.384-11.774L116.69,208.61c-1.71,2.014-7.043,7.953-8.69,9.949-1.689-1.839-7.472-7.935-9.164-10Z"/><path class="a" d="M136.16,153.679a4.223,4.223,0,0,1,3.379-.988,3.984,3.984,0,0,1,2.867,1.906,5.62,5.62,0,0,1,.59,2.268,16.9,16.9,0,0,1-1.722,8.956,10.742,10.742,0,0,1-2.777,3.644,7.111,7.111,0,0,1-3.311,1.492l-.54.083c-.279,1.061-.6,1.957-.754,2.426a37.873,37.873,0,0,1-9.847,13.119c0,1.733,0,3.419,0,3.419a45.985,45.985,0,0,1-13.266,9.246c-.275.124-.581.276-.669.565h-4.526c-.089-.289-.395-.441-.67-.565A45.985,45.985,0,0,1,91.646,190v-3.538a31.675,31.675,0,0,1-4.635-4.561,28.831,28.831,0,0,1-5.534-10.9l-1.021-.05a7.111,7.111,0,0,1-3.311-1.492,10.742,10.742,0,0,1-2.777-3.644,16.9,16.9,0,0,1-1.722-8.956,5.62,5.62,0,0,1,.59-2.268,3.984,3.984,0,0,1,2.867-1.906,4.223,4.223,0,0,1,3.379.988s-4.105-33.51,27.45-33.51C140.265,120.169,136.16,153.679,136.16,153.679Z"/><path class="h" d="M140.609,138.585a36.89,36.89,0,0,0-4.984-15.527c-2.9-4.912-10.111-11.778-22.333-14.223-4.846-.969-15-1.111-22.227,3.991a23.954,23.954,0,0,1-2.7,1.9c-.36.163-1.539.717-1.921.814-5.711,2.341-8.765,8.344-10.558,15.521-1.879,7.525-2.115,16.354-.318,21.647a4.17,4.17,0,0,1,3.387.974l2.518-6.007c-.013-3.759,2.6-14.21,9.553-19.1,2.63-1.852,14.715-3.823,16.934-3.664,5.186.37,8.685.669,15.24,3.669,7.4,2.661,9.719,13.823,10.11,19.093l2.322,6.007a4.226,4.226,0,0,1,3.38-.988,3.938,3.938,0,0,1,.515.112A44.982,44.982,0,0,0,140.609,138.585Z"/><path class="c" d="M79.188,380.708c0,.721-.055,1.441-.118,2.158q-.04.444-.087.886c-.016.156-.034.312-.052.468-.012.107-.025.214-.038.321-.007.06-.064.515-.025.213.035-.272-.012.077-.02.127-.015.1-.03.205-.046.307q-.047.3-.1.589a9.063,9.063,0,0,1-.242,1.068,1.051,1.051,0,0,0-.073.2c0-.077.188-.4.059-.152-.077.15-.152.3-.236.447s-.187.317-.29.47c-.04.06-.089.119-.126.182-.12.2.324-.4.11-.145a2,2,0,0,0,2.828,2.828,8.982,8.982,0,0,0,1.469-2.46,10.265,10.265,0,0,0,.527-2.43,37.772,37.772,0,0,0,.46-5.08,2,2,0,0,0-4,0Z"/><path class="c" d="M97.86,381.208c.117,1.2.144,2.408.189,3.609.044,1.167.093,2.335.095,3.5a2,2,0,0,0,4,0c0-1.167-.051-2.335-.095-3.5-.045-1.2-.072-2.411-.189-3.609a2.153,2.153,0,0,0-.585-1.414,2,2,0,0,0-3.415,1.414Z"/><path class="c" d="M85.671,410.438a19.31,19.31,0,0,1-8.52-2.9c-1.691-1.129-3.359-2.863-3.655-4.963-.364-2.58,1.765-5.009,3.2-6.924,1.52-2.031,3.244-4.629,5.8-5.405a25.513,25.513,0,0,1,7.3-.753c2.589-.012,5.242-.179,7.606,1.067,2.553,1.347,4.643,4.136,6.211,6.5a8.669,8.669,0,0,1,1.595,3.586,5.273,5.273,0,0,1-1.572,3.921c-4.4,5.415-11.331,6.542-17.965,5.872a2.014,2.014,0,0,0-2,2,2.045,2.045,0,0,0,2,2c7.306.738,15.275-.747,20.312-6.478,2.567-2.92,4.106-6.213,2.586-10.054a20.108,20.108,0,0,0-3.135-5.069,30.45,30.45,0,0,0-3.632-4.068c-2.817-2.459-6.2-3.248-9.856-3.271a43.459,43.459,0,0,0-9.431.605c-3.525.76-5.837,3.108-7.989,5.851-2.219,2.83-4.93,6.014-5.06,9.789-.113,3.3,1.882,6.313,4.382,8.3a22.858,22.858,0,0,0,11.823,4.4,2.012,2.012,0,0,0,2-2A2.047,2.047,0,0,0,85.671,410.438Z"/><path class="c" d="M135.5,380.708a37.936,37.936,0,0,0,.46,5.08,10.545,10.545,0,0,0,.506,2.376,8.843,8.843,0,0,0,1.49,2.514,2.008,2.008,0,0,0,2.828,0,2.052,2.052,0,0,0,0-2.828c-.162-.193.132.169.141.188a1.531,1.531,0,0,0-.125-.177c-.1-.151-.2-.306-.291-.463s-.165-.3-.239-.446c-.03-.061-.149-.333-.024-.035s.018.044,0-.022c-.1-.345-.179-.694-.245-1.047-.037-.194-.07-.389-.1-.584-.016-.1-.032-.2-.047-.306-.009-.059-.072-.5-.03-.2.037.273-.01-.083-.016-.133-.014-.107-.026-.214-.039-.321-.02-.17-.039-.339-.057-.509-.031-.288-.059-.575-.085-.863-.066-.738-.12-1.478-.124-2.22a2,2,0,0,0-4,0Z"/><path class="c" d="M116.831,381.208c-.117,1.2-.144,2.408-.189,3.609-.043,1.167-.093,2.335-.095,3.5a2,2,0,0,0,4,0c0-1.167.052-2.335.095-3.5.045-1.2.072-2.411.189-3.609a2,2,0,0,0-.586-1.414,2.033,2.033,0,0,0-1.414-.586,2.055,2.055,0,0,0-2,2Z"/><path class="c" d="M133.02,414.438c6.195-.722,14.422-3.577,15.978-10.532.787-3.522-.867-6.578-2.876-9.364-2.066-2.863-4.32-6.249-7.672-7.7-2.9-1.259-6.266-1.325-9.379-1.346-3.405-.022-6.7-.02-9.8,1.612a14.617,14.617,0,0,0-4.135,3.492,42.036,42.036,0,0,0-3.63,4.627c-2.082,3.215-2.842,6.99-.647,10.361a18.978,18.978,0,0,0,9.5,7.548,29.294,29.294,0,0,0,12.665,1.307,2.058,2.058,0,0,0,2-2,2.013,2.013,0,0,0-2-2c-5.808.587-12.418-.111-16.709-4.471a12.634,12.634,0,0,1-2.428-3.127,4.438,4.438,0,0,1,.139-3.948,23.77,23.77,0,0,1,5.547-7.159c2.071-1.876,4.651-2.219,7.33-2.237a42.527,42.527,0,0,1,7.552.336c2.764.484,4.425,1.9,6.167,4.049.949,1.17,1.864,2.373,2.712,3.618a9.4,9.4,0,0,1,1.88,3.972c.255,2.223-1.284,4.21-2.921,5.522a18.2,18.2,0,0,1-9.269,3.445,2.061,2.061,0,0,0-2,2A2.012,2.012,0,0,0,133.02,414.438Z"/><path class="a" d="M105.582,199.815a1.067,1.067,0,0,1-.153.749,42.964,42.964,0,0,1-2.744,3.543c-1.2,1.462-2.586,3.136-3.761,4.556,1.787,2.153,7.413,8.086,9.076,9.9,1.647-2,6.98-7.935,8.7-9.966-1.159-1.405-2.524-3.047-3.7-4.486a42.964,42.964,0,0,1-2.744-3.543,1.062,1.062,0,0,1-.153-.749"/><path class="a" d="M118.469,210.734c4.26-4.233,7.05-9.361,10.2-14.484A22.69,22.69,0,0,0,124.043,190a45.985,45.985,0,0,1-13.266,9.246c-.275.124-.581.276-.669.565a1.062,1.062,0,0,0,.153.749,42.964,42.964,0,0,0,2.744,3.543C114.872,206.391,117.216,209.191,118.469,210.734Z"/><path class="a" d="M97.22,210.734c-4.26-4.233-7.05-9.361-10.2-14.484A22.731,22.731,0,0,1,91.646,190a45.985,45.985,0,0,0,13.266,9.246c.275.124.581.276.67.565a1.067,1.067,0,0,1-.153.749,42.964,42.964,0,0,1-2.744,3.543C100.818,206.391,98.474,209.191,97.22,210.734Z"/><path class="c" d="M119.883,212.148a59.2,59.2,0,0,0,8.33-11.292c.6-.989,1.194-1.981,1.8-2.969a2.891,2.891,0,0,0,.621-1.9,5.194,5.194,0,0,0-.813-1.8,24.186,24.186,0,0,0-4.36-5.6,2.035,2.035,0,0,0-2.828,0,43.249,43.249,0,0,1-7.131,5.78c-1.253.812-2.544,1.566-3.87,2.25-1.262.652-3.023,1.114-3.449,2.663a3.618,3.618,0,0,0,.943,3.134c.862,1.143,1.771,2.252,2.678,3.36,1.744,2.13,3.517,4.236,5.255,6.371a2.012,2.012,0,0,0,2.828,0,2.046,2.046,0,0,0,0-2.828c-1.45-1.782-2.926-3.543-4.388-5.316-.823-1-1.645-2-2.45-3.011-.227-.285-.455-.568-.67-.862-.094-.129-.183-.286-.287-.407-.179-.208.046-.248.02.091l-.274,1.009q-.5.412-.048.153l.309-.142c.311-.147.622-.294.93-.446q.945-.47,1.866-.983,1.9-1.059,3.691-2.293a48.067,48.067,0,0,0,6.875-5.695h-2.828a21.741,21.741,0,0,1,4.31,5.842v-2.019c-3,4.9-5.8,9.973-9.884,14.079C115.237,211.147,118.064,213.976,119.883,212.148Z"/><path class="c" d="M98.634,209.32c-4.084-4.106-6.881-9.18-9.884-14.079v2.019a21.723,21.723,0,0,1,4.311-5.842H90.232a48.32,48.32,0,0,0,6.876,5.695q1.79,1.231,3.691,2.293.844.471,1.71.905.462.231.93.451c.154.073.309.144.464.215.3.173.285.122-.048-.153l-.273-1.009c-.023-.292.217-.321.02-.091-.086.1-.154.222-.231.329-.231.322-.48.631-.726.94-.806,1.013-1.628,2.012-2.451,3.011-1.461,1.773-2.938,3.534-4.388,5.316a2.058,2.058,0,0,0,0,2.828,2.014,2.014,0,0,0,2.828,0c1.7-2.092,3.439-4.155,5.149-6.241.919-1.12,1.835-2.243,2.713-3.4a3.71,3.71,0,0,0,1.014-3.228c-.414-1.5-2.064-1.955-3.293-2.583q-1.99-1.017-3.872-2.231a43.227,43.227,0,0,1-7.284-5.879,2.037,2.037,0,0,0-2.829,0,24.15,24.15,0,0,0-4.273,5.446,7.677,7.677,0,0,0-.864,1.683,2.671,2.671,0,0,0,.585,2.168c.6.988,1.2,1.98,1.8,2.969a59.239,59.239,0,0,0,8.329,11.292C97.624,213.976,100.453,211.148,98.634,209.32Z"/><path class="c" d="M83.805,147.672q.039-.518.094-1.033c.022-.2.046-.4.07-.6A1.015,1.015,0,0,1,84,145.84c.12-.792.255-1.581.419-2.365A34.173,34.173,0,0,1,86.03,138a21.408,21.408,0,0,1,1.122-2.342,17.87,17.87,0,0,1,1.388-2.129,11.636,11.636,0,0,1,1.943-1.937,12.784,12.784,0,0,1,1.963-1.086,2.055,2.055,0,0,0,1.4-2.46,2.016,2.016,0,0,0-2.46-1.4c-8.161,3.042-10.974,13.161-11.578,21.022a2.017,2.017,0,0,0,2,2,2.04,2.04,0,0,0,2-2Z"/><path class="c" d="M123.079,130.3a20.594,20.594,0,0,1,6.56,9,32,32,0,0,1,1.554,4.971c.082.37.158.741.225,1.114.031.173.059.347.088.521.019.112.081.624.021.124a14.283,14.283,0,0,1,.114,1.64c.009,2.573,4.009,2.578,4,0a26.708,26.708,0,0,0-2.329-9.881,24.791,24.791,0,0,0-8.214-10.944,2.017,2.017,0,0,0-2.737.717,2.045,2.045,0,0,0,.718,2.737Z"/><path class="c" d="M102.656,126.134q.093-.263.2-.519l-.2.478a9.036,9.036,0,0,1,1.128-1.912l-.313.4a9.342,9.342,0,0,1,1.629-1.624l-.405.313a9.018,9.018,0,0,1,1.916-1.121l-.478.2c.123-.052.246-.1.37-.147a2.149,2.149,0,0,0,1.2-.919,2.043,2.043,0,0,0,.2-1.541,2.017,2.017,0,0,0-.919-1.2,1.968,1.968,0,0,0-1.541-.2,10.838,10.838,0,0,0-6.641,6.72,2,2,0,0,0,2.938,2.258,2.23,2.23,0,0,0,.919-1.195Z"/><path class="c" d="M109.98,127.462A14.86,14.86,0,0,1,112,126.234c.188-.095.379-.18.569-.271.206-.09.192-.085-.044.015.1-.04.195-.078.293-.116q.552-.213,1.118-.381t1.145-.291q.309-.066.619-.118l.312-.049q-.369.048-.142.021a17.259,17.259,0,0,1,2.438-.081,2.014,2.014,0,0,0,2-2,2.044,2.044,0,0,0-2-2,16.573,16.573,0,0,0-10.343,3.045,2.046,2.046,0,0,0-.717,2.736,2.023,2.023,0,0,0,2.736.718Z"/><path class="c" d="M97.422,209.968c2.87,3.489,6.107,6.682,9.164,10.005a2.009,2.009,0,0,0,2.828,0c2.809-3.391,5.837-6.6,8.69-9.949a2.053,2.053,0,0,0,0-2.829,2.017,2.017,0,0,0-2.828,0c-2.853,3.353-5.882,6.558-8.69,9.95h2.828c-3.056-3.323-6.293-6.517-9.163-10.005a2.014,2.014,0,0,0-2.829,0,2.046,2.046,0,0,0,0,2.828Z"/><path class="c" d="M124.59,285.768c-4.945.39-10.309,1.86-13.335,6.1-3.012,4.218-3.619,9.842-3.542,14.872.12,7.907.421,15.813.7,23.717.257,7.3.52,14.6.838,21.9.222,5.069.509,10.136.754,15.205.158,3.26.306,6.52.421,9.782.046,1.292-.305,3.526.683,4.526a2.852,2.852,0,0,0,1.36.695c2.514.654,5.474.388,8.038.385,3.869-.006,7.739-.1,11.606-.212,2.994-.089,5.988-.191,8.981-.326a10.276,10.276,0,0,0,3.217-.435c2.3-.873,2.98-3.116,3.325-5.343.914-5.894,1.125-11.948,1.5-17.891.574-8.972,1.041-17.956,1.272-26.943a165.472,165.472,0,0,0-.849-24.486c-1.161-9.4-6.254-19.63-16.474-21.282a36.9,36.9,0,0,0-8.5-.266c-2.554.179-2.573,4.181,0,4a28.226,28.226,0,0,1,9.441.554,11.362,11.362,0,0,1,4.988,2.8c4.374,4.252,6.285,10.464,6.793,16.644a236.487,236.487,0,0,1,.388,28.587c-.387,10.043-.951,20.086-1.746,30.106-.129,1.623-.264,3.246-.424,4.867-.058.588-.118,1.176-.188,1.762-.015.123-.031.245-.045.367-.043.383.04-.27.023-.16-.05.311-.094.623-.151.933a9.289,9.289,0,0,1-.368,1.568c-.039.094-.367.512-.161.324a.91.91,0,0,1-.372.169,5,5,0,0,1-1.087.1c-1.359.066-2.72.118-4.08.169-4.418.166-8.839.3-13.261.362a91.958,91.958,0,0,1-10.747-.187c.388.04.183-.085-.132-.037-.06.009-.127-.055-.185-.051a1.852,1.852,0,0,1,.662.4l.585,1.414c-.362-13.212-1.23-26.409-1.73-39.617-.441-11.656-.963-23.324-1.092-34.988-.044-3.957.5-8.811,3.058-12.027,2.268-2.852,6.377-3.784,9.831-4.057C127.139,289.568,127.161,285.566,124.59,285.768Z"/><path class="c" d="M91.414,289.668c3.018.166,6.379.808,8.761,2.8,3.069,2.564,4.126,7.668,4.283,11.468.2,4.826.064,9.684.037,14.513-.063,11.214-.165,22.43-.37,33.642-.169,9.314-.525,18.624-.543,27.94l.586-1.414s.524-.382.281-.23c.673-.42.414-.123.23-.115a4.155,4.155,0,0,0-.6.121c-.389.079.239-.027.082-.01s-.3.035-.454.05c-.326.033-.653.059-.98.083-1.852.135-3.71.186-5.566.227-4.514.1-9.031.091-13.545.054q-2.58-.023-5.158-.064a7.663,7.663,0,0,1-2.85-.173,4.115,4.115,0,0,1-.256-.395,8.835,8.835,0,0,1-.5-2.066c-.074-.411-.131-.823-.192-1.236a2.607,2.607,0,0,1-.045-.334c-.042-.335-.085-.671-.125-1.007q-.139-1.156-.266-2.314c-1.043-9.484-1.814-19-2.47-28.52a254.267,254.267,0,0,1-.8-26.715,74.231,74.231,0,0,1,.775-10.941,24.365,24.365,0,0,1,4.036-9.64,13.713,13.713,0,0,1,3.625-3.655,14.775,14.775,0,0,1,6.58-2,40.309,40.309,0,0,1,5.451-.067c2.573.119,2.567-3.882,0-4-4.85-.223-10.278.033-14.432,2.863-3.555,2.422-6.084,6.415-7.656,10.339-2.442,6.1-2.163,12.779-2.473,19.221-.141,2.918-.066,5.845.034,8.763.3,8.687.929,17.366,1.632,26.028.579,7.129,1.162,14.274,2.059,21.372.377,2.977.584,7.1,3.968,8.162,2.134.67,4.886.335,7.083.359,7.04.079,14.154.259,21.181-.267a13.679,13.679,0,0,0,3.027-.409c2.507-.781,1.751-4.335,1.776-6.4.078-6.456.262-12.909.417-19.363.162-6.711.235-13.424.31-20.136.1-8.578.185-17.157.178-25.735a55.8,55.8,0,0,0-.579-10.748,20.42,20.42,0,0,0-3.583-8.643A13.632,13.632,0,0,0,97.9,286.81a24.335,24.335,0,0,0-6.486-1.142C88.842,285.527,88.85,289.527,91.414,289.668Z"/><path class="c" d="M153.114,298.741c1.651,5.025,3.16,10.157,3.25,15.485.075,4.476-2.673,7.5-6.046,10.035A2.063,2.063,0,0,0,149.6,327a2.014,2.014,0,0,0,2.737.717c4.1-3.084,7.823-6.925,8.029-12.4.225-6.006-1.542-12-3.4-17.639-.8-2.435-4.663-1.392-3.857,1.063Z"/><path class="c" d="M59.967,299.662c-1.759,5.07-3.247,10.354-3.1,15.783.146,5.383,4.013,9.257,8.017,12.269A2.012,2.012,0,0,0,67.621,327a2.048,2.048,0,0,0-.717-2.736c-3.434-2.583-6.195-5.643-5.992-10.2a46.542,46.542,0,0,1,2.912-13.335c.846-2.437-3.017-3.485-3.857-1.064Z"/><path class="a" d="M130.1,282.135a15.934,15.934,0,0,1-4.44,2.07c-2.52.64-5.13.77-7.63,1.44-2.92.78-4.87.73-7.28,3.1-2.55,2.51-3.57,5.57-2,8.79,1.37,2.82,4.06,8.97,7.05,7.77,4.1-1.28,8.33-3.15,10.66-3.29,4.72-.29,10.54.44,13.28-4.79a14.388,14.388,0,0,1,2.52-3.28"/><path class="c" d="M117.9,306.724c2.673-.918,5.446-2.271,8.263-2.676,2.076-.3,4.221-.1,6.312-.35a12.483,12.483,0,0,0,6.4-2.346c2.053-1.61,3.022-4.112,4.8-5.992s-1.056-4.705-2.828-2.829a19.835,19.835,0,0,0-2.415,2.963,9.943,9.943,0,0,1-1.944,2.677,9.229,9.229,0,0,1-5.251,1.647,54.926,54.926,0,0,0-6.286.4,60.448,60.448,0,0,0-8.112,2.647c-2.42.831-1.38,4.7,1.064,3.857Z"/><path class="c" d="M110.8,291.845a7.844,7.844,0,0,1,3.8-3.274,38.566,38.566,0,0,1,5.662-1.379c3.961-.752,7.949-1.07,11.25-3.642a2.011,2.011,0,0,0,0-2.829,2.052,2.052,0,0,0-2.828,0c.222-.173-.156.081-.228.121-.195.106-.384.221-.582.324-.355.186-.719.363-1.087.522a12.478,12.478,0,0,1-2.229.724c-2.393.54-4.842.74-7.222,1.347a25.874,25.874,0,0,0-5.288,1.576,12.355,12.355,0,0,0-4.707,4.491c-1.39,2.176,2.071,4.184,3.454,2.019Z"/><path class="c" d="M149.652,234.907c-.031,8.331-1.351,16.636-1.387,24.966-.011,2.574,3.989,2.577,4,0,.036-8.33,1.356-16.635,1.387-24.966.01-2.574-3.99-2.578-4,0Z"/><path class="c" d="M62.041,234.907c.026,4.316.7,8.688,1.112,12.978.408,4.205,1.085,8.5,1.112,12.728.017,2.573,4.017,2.579,4,0-.027-4.231-.7-8.523-1.112-12.728-.416-4.29-1.086-8.662-1.112-12.978-.015-2.573-4.015-2.579-4,0Z"/><path class="c" d="M137.574,155.093a2.149,2.149,0,0,1,3.036.4,4.622,4.622,0,0,1,.442,2.355,14.174,14.174,0,0,1-.2,2.9c-.629,3.447-2.367,7.59-6.2,8.278a2.018,2.018,0,0,0-1.4,2.46,2.045,2.045,0,0,0,2.461,1.4c5.978-1.072,8.832-7.814,9.281-13.233.234-2.808-.015-5.983-2.441-7.8a6.257,6.257,0,0,0-7.813.41,2.016,2.016,0,0,0,0,2.828,2.044,2.044,0,0,0,2.829,0Z"/><path class="c" d="M80.9,152.265a6.261,6.261,0,0,0-7.813-.41c-2.429,1.809-2.674,5-2.441,7.8.449,5.419,3.3,12.161,9.281,13.233a2.057,2.057,0,0,0,2.461-1.4,2.017,2.017,0,0,0-1.4-2.46c-3.835-.688-5.572-4.831-6.2-8.278a14.031,14.031,0,0,1-.2-2.738,5.417,5.417,0,0,1,.375-2.407,2.133,2.133,0,0,1,3.105-.513,2.055,2.055,0,0,0,2.829,0,2.016,2.016,0,0,0,0-2.828Z"/><path class="c" d="M133.143,167.906a15.843,15.843,0,0,1-.924,4.266c-.117.357-.238.711-.373,1.061.231-.6-.186.377-.265.534a37.685,37.685,0,0,1-3.128,5.117c-2.683,3.754-6.337,7.824-11.007,8.922-2.5.588-1.445,4.446,1.063,3.857,5.639-1.325,9.978-6.033,13.245-10.547,2.815-3.89,5.19-8.3,5.389-13.21.1-2.574-3.9-2.569-4,0Z"/><path class="c" d="M78.237,164.463c.719,5.852,2.228,11.641,5.614,16.561,3.878,5.633,9.838,10.653,16.771,11.718a2.066,2.066,0,0,0,2.461-1.4,2.016,2.016,0,0,0-1.4-2.461c-6.058-.93-11.29-5.223-14.618-10.229a33.227,33.227,0,0,1-4.831-14.192,2.063,2.063,0,0,0-2-2,2.012,2.012,0,0,0-2,2Z"/><path class="c" d="M141.71,152.157c1.956-9.692,1.171-19.708-3.482-28.539-3.431-6.511-9.418-11.274-16.122-14.133a36.763,36.763,0,0,0-24.572-1.861,26.276,26.276,0,0,0-6.194,2.64c-1.721,1.03-3.15,2.424-5.019,3.2a17.713,17.713,0,0,0-8.885,7.9,42.031,42.031,0,0,0-4.605,15.2c-.7,5.289-.872,10.941.628,16.116.715,2.468,4.576,1.418,3.857-1.063a34.174,34.174,0,0,1-.776-12.473,44.749,44.749,0,0,1,3.051-13.115c1.351-3.25,3.383-6.391,6.535-8.125,1.428-.786,3.029-1.184,4.38-2.169a27.311,27.311,0,0,1,5.432-3.33c6.886-2.9,14.776-2.633,21.7-.354,6.146,2.022,12.3,5.9,15.821,11.315,5.311,8.167,6.286,18.351,4.393,27.733-.507,2.513,3.348,3.589,3.857,1.063Z"/><path class="a" d="M83.891,282.815c1.01.73,4.99,1.58,6.26,1.85,2.87.62,5.82.73,8.67,1.38,3.32.76,5.52.69,8.29,3.04,2.93,2.49,5.49,5.2,8.17,7.91,1.47,1.48,3.14,2.44,3.51,4.99.1.69-2.02,5-6.01,6.03-3.7.95-9.03-1.41-9.9-1.93,1.15,1.51-.1,2.98-1.73,2.95s-3.01-1.32-4.15-2.31c-2.02-1.76-4.84-4.12-7.47-4.24-5.35-.25-11.93.53-15.12-4.68a26.674,26.674,0,0,0-2.44-3.31"/><path class="c" d="M82.882,284.542a14.764,14.764,0,0,0,4.577,1.568,55.52,55.52,0,0,0,5.622,1.05c2.384.319,4.718.744,7.079,1.2a12.051,12.051,0,0,1,5.287,1.937,54.724,54.724,0,0,1,5.6,5.247c1.539,1.554,3.162,3.044,4.675,4.62a4.383,4.383,0,0,1,.654.828c.18.31.226.891.421,1.139-.288-.367.3-.489-.016-.195-.026.025-.151.406.029-.035a4.189,4.189,0,0,1-.214.436,8.081,8.081,0,0,1-2.708,3.033c-2.892,1.817-7.326.523-9.994-1.007-1.673-.96-3.86,1.014-2.736,2.736.534.818.182-.251.277-.12.028.037-.342.06-.381.047a5.141,5.141,0,0,1-1.807-1c-1.209-.975-2.338-2.034-3.589-2.961a13.015,13.015,0,0,0-4.555-2.352,20.172,20.172,0,0,0-4.324-.3c-2.536-.049-5.262-.026-7.636-1.049a6.541,6.541,0,0,1-2.81-2.269c-.949-1.378-1.881-2.718-2.944-4.015-1.633-1.992-4.448.853-2.828,2.829,1.229,1.5,2.155,3.259,3.471,4.676a10.972,10.972,0,0,0,4.293,2.735c3.2,1.18,6.741,1.035,10.092,1.125,4,.108,6.24,3.34,9.311,5.416a5.438,5.438,0,0,0,5.693.593,3.723,3.723,0,0,0,1.191-5.379l-2.736,2.736c3.206,1.84,7.8,3.059,11.441,2.132,3.2-.817,6.7-3.927,7.4-7.279.45-2.15-1.153-4.38-2.616-5.771-1.95-1.855-3.811-3.8-5.732-5.682-1.943-1.907-4-4.125-6.477-5.33a28.1,28.1,0,0,0-6.538-1.765c-2.983-.643-6.04-.815-9.024-1.456-1.736-.372-4.048-.672-5.429-1.572-2.162-1.411-4.169,2.051-2.018,3.453Z"/><path class="c" d="M110.375,299.59c-2.079-2.079-4.409-3.892-6.531-5.924a2,2,0,0,0-2.829,2.829c2.122,2.032,4.453,3.845,6.531,5.923a2,2,0,1,0,2.829-2.828Z"/><path class="c" d="M149.444,258.014a116.164,116.164,0,0,1-9.323,9.041q-5.208,4.762-10.521,9.408c-.786.689-1.552,1.428-2.378,2.069-1.09.845-.54,2.506.4,3.142.465.312-.264-.259.132.1.237.214.485.416.722.63.609.548,1.2,1.115,1.79,1.685,1.631,1.581,3.22,3.206,4.785,4.852,2.86,3.009,6.019,6.174,8.143,9.519l.312-2.423a2.033,2.033,0,0,0,2.49,3.174,16.506,16.506,0,0,0,1.952-1.5c2.446-1.965,4.831-4.009,7.2-6.065a199.626,199.626,0,0,0,18.3-17.317c2.312-2.585,4.22-5.051,4.718-8.584.762-5.407-.018-11.089-1.081-16.406-1.127-5.643-2.76-11.239-4.208-16.809a61.716,61.716,0,0,0-2.592-8.3,63.851,63.851,0,0,0-4.521-9.085,26.1,26.1,0,0,0-2.914-3.96,31.987,31.987,0,0,0-3.291-2.856c-2.973-2.458-6.514-4.105-9.962-5.794a175.167,175.167,0,0,0-21-8.417c-2.444-.826-3.492,3.036-1.063,3.857a172.933,172.933,0,0,1,17.3,6.706c5.241,2.425,10.964,4.932,14.992,9.119a28.306,28.306,0,0,1,4.413,6.8,47.536,47.536,0,0,1,3.355,7.824c1.652,5.47,2.873,11.065,4.316,16.592a71.665,71.665,0,0,1,2.465,14.167,25.3,25.3,0,0,1-.295,6.833,7.913,7.913,0,0,1-1.586,3.258,2.26,2.26,0,0,1-.287.368c-.227.278-.453.555-.685.829-.5.586-1.01,1.159-1.53,1.725-1.187,1.291-2.416,2.544-3.662,3.778-2.909,2.879-5.917,5.659-8.962,8.394s-6.119,5.414-9.247,8.043c-1.053.884-2.11,1.765-3.185,2.624-.169.134-.339.266-.507.4-.293.234.4-.3.121-.093a1.116,1.116,0,0,0-.238.179c-.425.619-.5-.093.563.015l1.414.586,0,0,.586,1.414a1.742,1.742,0,0,1-.531,1.329,2.066,2.066,0,0,0,.312-2.424c-2.4-3.779-5.7-7.1-8.767-10.328-1.592-1.675-3.209-3.328-4.87-4.935a25.628,25.628,0,0,0-3.369-2.955l.405,3.141c2.24-1.737,4.308-3.762,6.424-5.644,3.818-3.4,7.62-6.815,11.318-10.342,1.535-1.464,3.084-2.934,4.48-4.533,1.687-1.931-1.131-4.772-2.828-2.828Z"/><path class="c" d="M87.1,194.118c-5.6,1.893-11.145,3.926-16.545,6.332-5.211,2.321-10.676,4.728-15.062,8.419a24.493,24.493,0,0,0-4.866,5.194,51.9,51.9,0,0,0-4.046,7.468,86.941,86.941,0,0,0-4.843,15.253c-2.292,9.169-5.49,18.85-4.281,28.429a12.541,12.541,0,0,0,1.552,5.018,35.522,35.522,0,0,0,2.564,3.57c2.431,3.1,5.1,6.013,7.8,8.87,3.358,3.546,6.824,7,10.411,10.313a62.042,62.042,0,0,0,8.311,6.877,2.053,2.053,0,0,0,2.736-.718c.375-.492.093-.128.406-.527q.384-.489.77-.977.933-1.175,1.885-2.333,2.3-2.811,4.707-5.537c1.5-1.7,3.039-3.374,4.676-4.944.557-.535,1.414-1.315,1.841-1.644-.01.008.5-.342.677-.461.113-.075.236-.132.354-.2.148-.083-.464.152-.017.019,1.33-.395,2.093-2.344.883-3.343-2.042-1.686-3.834-3.81-5.7-5.681Q76.153,268.358,71,263.193q-2.216-2.22-4.432-4.438c-1.823-1.823-4.652,1-2.829,2.828q9.174,9.175,18.34,18.36c.689.688,1.352,1.463,2.105,2.084l.882-3.342a11.424,11.424,0,0,0-4.18,2.894c-1.734,1.613-3.341,3.366-4.914,5.134-2.991,3.36-5.87,6.833-8.6,10.411l2.736-.717a23.627,23.627,0,0,1-2.686-2.01c-1.3-1.067-2.554-2.178-3.8-3.307-3.035-2.758-5.971-5.626-8.839-8.556s-5.657-5.9-8.3-9.015c-1.6-1.883-3.768-4.135-4.544-6.323-1.357-3.83-.722-8.56-.2-12.487a112.065,112.065,0,0,1,2.786-12.6c1.227-4.878,2.23-9.9,3.873-14.662a53.756,53.756,0,0,1,3.43-7.564,27.839,27.839,0,0,1,3.839-5.869c3.949-4.3,9.774-6.816,15.02-9.253a172.267,172.267,0,0,1,17.471-6.785c2.425-.82,1.385-4.685-1.064-3.857Z"/><path class="c" d="M117.927,173.066a4.467,4.467,0,0,1,.761.763l-.313-.405a4.519,4.519,0,0,1,.581,1l-.2-.478a4.489,4.489,0,0,1,.215.659,2.238,2.238,0,0,0,.919,1.195,1.477,1.477,0,0,0,.743.238,1.526,1.526,0,0,0,.8-.036,2.021,2.021,0,0,0,1.195-.919,2.138,2.138,0,0,0,.2-1.541,7.173,7.173,0,0,0-.424-1.155,4.479,4.479,0,0,0-.351-.664,7.643,7.643,0,0,0-.732-.957,4.367,4.367,0,0,0-.563-.525,2.056,2.056,0,0,0-2.829,0,2.014,2.014,0,0,0-.586,1.414l.072.532a2,2,0,0,0,.514.882Z"/><path class="c" d="M101.808,177.357c1.732,1.7,4.433,2.223,6.766,2.222s5.034-.525,6.767-2.222a2,2,0,1,0-2.829-2.828c-.076.075-.4.339-.084.093s-.1.06-.2.12c-.138.086-.281.164-.427.237a2.307,2.307,0,0,0-.3.14c.131-.094.4-.153.091-.045a9.979,9.979,0,0,1-1.423.389c-.072.013-.605.084-.117.028-.146.017-.291.033-.437.045q-.522.043-1.045.043c-.319,0-.639-.011-.957-.035-.176-.014-.351-.032-.527-.053.272.032.17.023-.039-.014a8.753,8.753,0,0,1-1.442-.382c-.193-.07-.367-.239.033.024a2.253,2.253,0,0,0-.249-.116c-.162-.08-.321-.166-.474-.261-.116-.071-.224-.167-.343-.232.546.3.239.194.061.019a2,2,0,1,0-2.829,2.828Z"/><path class="c" d="M107.406,164.722a25.493,25.493,0,0,1,.6,2.756l-.071-.532a1.676,1.676,0,0,1,.01.381l.072-.532a.909.909,0,0,1-.042.171l.2-.478a.651.651,0,0,1-.06.11l.313-.4a.624.624,0,0,1-.09.088l.405-.312a1.827,1.827,0,0,1-.219.115l.478-.2a1.618,1.618,0,0,1-.368.107l.532-.072a1.483,1.483,0,0,1-.346,0l.532.071c-.13-.018-.258-.05-.388-.067a1.526,1.526,0,0,0-.8-.036,1.477,1.477,0,0,0-.743.238,2,2,0,0,0-.718,2.736l.313.405a2,2,0,0,0,.882.514c.349.047.687.134,1.042.15a3.419,3.419,0,0,0,1.6-.391,2.44,2.44,0,0,0,1.314-1.592,3.766,3.766,0,0,0-.013-1.65c-.15-.888-.356-1.768-.584-2.638a2.063,2.063,0,0,0-.919-1.2,2.04,2.04,0,0,0-1.541-.2,2.017,2.017,0,0,0-1.195.919,2.1,2.1,0,0,0-.2,1.541Z"/><path class="c" d="M95.316,161.625a29.655,29.655,0,0,0,2.843-1.173l-.478.2c.318-.135.639-.259.969-.362a2.1,2.1,0,0,0,1.195-.92,2.038,2.038,0,0,0,.2-1.541,2,2,0,0,0-2.46-1.4c-.978.308-1.9.778-2.84,1.177l.478-.2c-.319.133-.641.256-.971.358a2.094,2.094,0,0,0-1.195.919,2,2,0,0,0,2.258,2.938Z"/><path class="c" d="M122.461,157.768c-.33-.1-.653-.225-.971-.358l.478.2c-.943-.4-1.862-.869-2.84-1.177a2,2,0,0,0-2.461,1.4,2.027,2.027,0,0,0,.2,1.541,2.152,2.152,0,0,0,1.195.92c.33.1.651.227.969.362l-.478-.2a29.655,29.655,0,0,0,2.843,1.173,2,2,0,0,0,2.46-1.4,2.027,2.027,0,0,0-.2-1.541,2.138,2.138,0,0,0-1.2-.919Z"/></svg>