<?xml version="1.0" encoding="utf-8"?>
<!-- Uploaded to: SVG Repo, www.svgrepo.com, Generator: SVG Repo Mixer Tools -->
<svg width="800px" height="800px" viewBox="0 -22.61 349.005 349.005" xmlns="http://www.w3.org/2000/svg"><defs><style>.a{fill:#ffffff;}.b{fill:#bdbdbd;}.c{fill:#a095c1;}.d{fill:#211715;}</style></defs><path class="a" d="M180.875,230.7c6.57,20.873,15.194,48.351,19.891,63.375a5.634,5.634,0,0,1-2.574,6.575l-.537.308.567-.236c12.083-5.042,51.207-22.425,58.625-25.834l-4.46-9.952S191.777,234.53,180.875,230.7Z"/><path class="a" d="M236.777,236.511c-4.274,2.988-9.973,2.044-15.094,1.228q-4.473-.714-8.982-1.175a25.142,25.142,0,0,0-4.748-.16,18.318,18.318,0,0,0-10.235,4.813c-3.858,3.39-6.692,7.808-9.819,11.816,3.588,11.424,7.192,22.912,10.093,32.175q4.074-4.121,8.15-8.24l2.763-2.793c2.711-2.741,4.5-4.763,6.786-7.175-1.878,3.871-2.914,5.543-5.442,11.069-.464,1.015-.279,3.5,1,4.492,1.953,1.5,4.485-.184,5.1-.827,4.3-4.482,7.438-9.012,11.591-12.351l.335-.091a46.017,46.017,0,0,0,16.549-5.114c.668-.363,2.685-2.15,3.312-2.579a21.758,21.758,0,0,1,2.589-1.533C247.731,250.8,242.486,241.1,236.777,236.511Z"/><path class="a" d="M183.971,240.538c-3.5-11.136-6.72-21.354-8.924-28.323a8.77,8.77,0,0,0-3.328-4.543c.615-2.634,1.147-4.9,1.147-4.9a195.766,195.766,0,0,0,3.4-28.751c-3.523-.727-11.211-1.666-18.387-2.457.05-.918.14-1.816.25-2.674.87-6.54,1.54-14.81,2.96-21.28,1.454-6.666,2.478-13.6,3.345-20.524l2.407,2.457a18.022,18.022,0,0,0,5.07,3.61c4.45,2.15,9.54,2.63,14.47,2.34,10.825-.637,20.6-4.733,29.289-10.674-2.542,11.717-3.276,23.05-1.139,35.37,2.267,13.07,5.195,26.041,6.8,39.208.75,6.157,2.5,30.577,3.073,36.989l.161,1.8c-.974-.134-1.94-.29-2.887-.44q-4.473-.714-8.982-1.175a25.142,25.142,0,0,0-4.748-.16,18.318,18.318,0,0,0-10.235,4.813c-3.859,3.39-6.692,7.808-9.82,11.816C186.575,248.821,185.254,244.618,183.971,240.538Z"/><path class="b" d="M145.54,21.337c-4.863,5.991-7.586,13.683-8.79,21.33-1.011,6.41.071,18.536,1.892,26.874,0,0,18.608,29.391,33.527,35.325,14.667,5.833,29.056,7.166,44.389,5.5,12.153-1.321,19.375-5.623,19.375-5.623,9.432-4.493,7.38-14.6,5.032-19.334-2.057-4.127-3.031-13.963-2.566-21.258.755-11.839-.2-22.22-2.748-28.43-3.093-7.534-5.505-11.829-12.29-18.578C208.6,3.186,193.183,1.711,182.877,2.522c-15.368,1.21-28.324,6.364-38.184,19.868"/><path class="a" d="M191.091,57.538c-7.978,1-10.8,1.506-20.545-1.722a49.668,49.668,0,0,1-19.88-12.551l-1.547-1.59c-2.672,2.064-4.705,5.844-7.225,11.713-1.61,3.747-3.011,11.1-2.479,17.924,0,0,.06.768.136,1.719,1.093,5.54,2.013,11.037,2.967,16.15,1.95,10.445,5.88,19.73,13.717,25.214a38.1,38.1,0,0,0,9.147,4.8q-.418,3.635-.868,7.3a17.151,17.151,0,0,0,7.4,6.65c4.45,2.15,9.54,2.63,14.47,2.34,10.827-.637,20.6-4.735,29.294-10.677,1.082-5.025,2.5-10.119,4.174-15.392a9.8,9.8,0,0,1-3.088-3.707,17.7,17.7,0,0,1-.96-3.656l-.35-2.341c.752-1.157,1.463-2.329,2.146-3.525,0,0,1.681-3.08,2.359-4.818l.526-.951a12.9,12.9,0,0,0,6.046-1.926,17.563,17.563,0,0,0,6.03-8.287c1.381-3.4,1.694-8.974-.007-12.082a6.054,6.054,0,0,0-5.274-3.08,6.705,6.705,0,0,0-4.75,1.427l-10.382-.469A101.28,101.28,0,0,1,196,56.966C194.145,57.16,192.534,57.357,191.091,57.538Z"/><path class="c" d="M140.529,130.03c-6.107,7.26-9.3,17.021-10.624,23.429-.61,3-2.643,11.141-4.666,20.142-1.427,6.352-2.85,13.131-3.764,18.828a25.738,25.738,0,0,0,.77,12.79l.241.645c18.221.083,34.574.147,44.233.211a8.8,8.8,0,0,1,5.152,1.706l.4-1.964a196.658,196.658,0,0,0,4-31.8c-3.524-.727-11.214-1.666-18.393-2.462.06-.918.145-1.811.256-2.669.87-6.54,1.54-14.81,2.96-21.28,2.18-9.993,3.392-20.586,4.573-30.843-2.164.65-4.194,1.275-4.871,1.576-7.55,2.6-15.89,6.61-20,11.38C140.706,129.822,140.617,129.926,140.529,130.03Z"/><path class="d" d="M160.283,171.566c.269-4.377.965-8.776,1.5-13.129.514-4.208,1.269-8.336,2.109-12.488,1.93-9.544,3.031-19.237,4.144-28.9a2.415,2.415,0,0,0-2.4-2.4,2.456,2.456,0,0,0-2.4,2.4c-1.1,9.553-2.2,19.125-4.162,28.547-.887,4.259-1.563,8.525-2.091,12.844-.532,4.353-1.228,8.752-1.5,13.129-.191,3.085,4.61,3.073,4.8,0Z"/><path class="c" d="M277.939,161.691c-2.8-8.811-6.612-18.876-11.252-25.574-8.656-12.494-20.778-17.346-36-21.791l-11.073-4.158c-5.4,17.274-8.089,32.668-5.079,50.017,2.267,13.07,5.195,26.041,6.8,39.208.75,6.157,2.5,30.577,3.073,36.989l.161,1.8c4.3.593,8.738.774,12.225-1.673,6.733,5.41,12.835,17.994,15.346,28.518,7.878-2.952,20.059-8.307,27.906-14.607a28.758,28.758,0,0,0,10-14.868c.869-2.779,1.394-9.653,1.305-12.723-.111-3.833-1.827-14.193-2.75-19.291-1.684-9.813-4.071-18.4-6.361-26.874C281.333,173.3,279.878,167.794,277.939,161.691Z"/><path class="d" d="M209.64,110.628a55.65,55.65,0,0,0,12.634-18.617,2.415,2.415,0,0,0-1.676-2.952,2.457,2.457,0,0,0-2.952,1.676c-.23.577.128-.281-.033.083-.075.172-.152.342-.231.512-.165.358-.337.713-.512,1.067q-.466.942-.96,1.871c-.645,1.218-1.356,2.4-2.092,3.564a52.409,52.409,0,0,1-7.572,9.4c-2.2,2.173,1.192,5.567,3.394,3.394Z"/><path class="d" d="M198.386,112.174c-10.247,5.67-22.266,8.778-33.557,4.263a29.509,29.509,0,0,1-12.849-9.518,40.928,40.928,0,0,1-6.4-14.855c-1.787-7.461-2.751-15.123-4.315-22.635-.63-3.022-5.258-1.743-4.629,1.276,1.485,7.129,2.48,14.363,4.048,21.472a46.637,46.637,0,0,0,6.736,16.58c7.1,10.23,20.045,15.67,32.323,14.53a53.76,53.76,0,0,0,21.067-6.968c2.7-1.5.285-5.643-2.423-4.145Z"/><path class="d" d="M224.228,68.171a4.8,4.8,0,0,1,4.328-.45,3.934,3.934,0,0,1,1.2.676c.081.075.662.772.352.344a5.258,5.258,0,0,1,.3.458c1.432,2.47,1.084,6.169.355,8.841a16.132,16.132,0,0,1-4.609,7.7c-2.087,1.867-5.429,2.9-8.123,1.906a2.421,2.421,0,0,0-2.952,1.677,2.45,2.45,0,0,0,1.676,2.952c3.324,1.228,7.44.341,10.45-1.373a17.436,17.436,0,0,0,6.71-7.808,21.626,21.626,0,0,0,2.2-9.957c-.1-2.956-.8-6.278-3.143-8.3a9.622,9.622,0,0,0-12.13-.061,2.413,2.413,0,0,0,0,3.394,2.462,2.462,0,0,0,3.394,0Z"/><path class="d" d="M192.272,72.331c.807,2.083.728,7.012-3.276,7.715-5.334.347-6.039-5.555-4.443-8.467C185.861,69.195,190.114,67.94,192.272,72.331Z"/><path class="d" d="M160.127,73.688c.751,2.024.7,6.8-2.967,7.465-4.894.309-5.571-5.418-4.121-8.234C154.226,70.614,158.124,69.418,160.127,73.688Z"/><path class="d" d="M168.647,82.866c-.691,1.389-1.336,2.806-1.9,4.25a4.418,4.418,0,0,0-.342,1.632,3.243,3.243,0,0,0,.414,1.575,3.71,3.71,0,0,0,1.172,1.18,3.794,3.794,0,0,0,1.539.665,13.279,13.279,0,0,0,1.4.123,2.4,2.4,0,0,0,1.7-4.1,2.653,2.653,0,0,0-1.7-.7c-.254-.018-.508,0-.761-.037l.638.086a2.217,2.217,0,0,1-.491-.139l.574.241a2.689,2.689,0,0,1-.475-.284l.486.375a1.573,1.573,0,0,1-.273-.255l.375.486a.716.716,0,0,1-.07-.131l.242.573a1.093,1.093,0,0,1-.05-.218l.086.638a1.63,1.63,0,0,1,.013-.32l-.085.638a6.937,6.937,0,0,1,.507-1.423l-.242.573c.432-1.015.9-2.018,1.39-3a2.563,2.563,0,0,0,.242-1.85,2.4,2.4,0,0,0-2.953-1.676,2.387,2.387,0,0,0-1.434,1.1Z"/><path class="d" d="M213.491,102.7a14.769,14.769,0,0,0,1.655,5.093,13.874,13.874,0,0,0,4.13,4.164,32.6,32.6,0,0,0,4.348,2.39c1.836.886,3.712,1.7,5.626,2.4a2.412,2.412,0,0,0,2.952-1.676,2.464,2.464,0,0,0-1.676-2.953,42.9,42.9,0,0,1-8.462-4.066c-.307-.2-.61-.407-.9-.628.38.288-.173-.153-.2-.175-.138-.118-.273-.241-.406-.366-.29-.274-.558-.566-.823-.865-.286-.323.047.108-.089-.111-.094-.153-.2-.3-.3-.449-.114-.183-.222-.371-.321-.564-.032-.062-.262-.608-.141-.283s-.068-.219-.088-.281c-.067-.206-.127-.414-.184-.622-.205-.753-.354-1.521-.494-2.288a2.413,2.413,0,0,0-2.952-1.677,2.464,2.464,0,0,0-1.676,2.953Z"/><path class="d" d="M171.111,103.84c.178-.1.358-.185.54-.274.295-.144-.028.053-.136.057a1.336,1.336,0,0,0,.306-.114,11.733,11.733,0,0,1,1.4-.4c.233-.051.468-.1.7-.136.065-.01.472-.072.131-.024s.069-.005.134-.012a15.217,15.217,0,0,1,1.554-.083c.479,0,.954.03,1.431.071.333.029,0,.037-.122-.02a1.6,1.6,0,0,0,.335.055c.216.04.432.086.645.141a14.7,14.7,0,0,1,1.427.485c.335.124-.334-.16,0,0,.128.061.259.117.387.178.3.141.587.292.875.45a2.4,2.4,0,0,0,2.423-4.145,15.168,15.168,0,0,0-7.4-2.015,14.82,14.82,0,0,0-7.057,1.637,2.423,2.423,0,0,0-.861,3.284,2.449,2.449,0,0,0,3.283.861Z"/><path class="d" d="M198.159,64.826a6.367,6.367,0,0,1-.717-.051l.638.086a6.336,6.336,0,0,1-1.523-.412l.573.242a6.415,6.415,0,0,1-1.367-.788l.486.376a6.166,6.166,0,0,1-.935-.892,2.418,2.418,0,0,0-1.7-.7,2.443,2.443,0,0,0-1.7.7,2.414,2.414,0,0,0-.7,1.7l.086.638a2.387,2.387,0,0,0,.617,1.059A7.524,7.524,0,0,0,193.1,67.86a7.257,7.257,0,0,0,1.38.874,8.885,8.885,0,0,0,3.682.892,2.466,2.466,0,0,0,1.7-.7,2.4,2.4,0,0,0,0-3.394,2.519,2.519,0,0,0-1.7-.7Z"/><path class="d" d="M143.843,19.64a46.4,46.4,0,0,0-9.041,20.3c-1.209,6.216-.926,12.556-.258,18.821a108.856,108.856,0,0,0,1.784,11.415c.652,3.018,5.28,1.741,4.629-1.276-3.315-15.351-4.081-32.936,6.28-45.869a2.474,2.474,0,0,0,0-3.394,2.417,2.417,0,0,0-3.394,0Z"/><path class="d" d="M148.969,44.962a52.645,52.645,0,0,0,14.047,10.319c6.012,3,13.1,5.44,19.9,5.416a89.688,89.688,0,0,0,10.3-1.018,2.475,2.475,0,0,0,2.4-2.4,2.413,2.413,0,0,0-2.4-2.4c-5.538.663-10.919,1.553-16.33.279a50.979,50.979,0,0,1-18.564-8.367,48.048,48.048,0,0,1-5.952-5.224c-2.163-2.213-5.556,1.183-3.394,3.4Z"/><path class="d" d="M185.219,50.293c7.009,8.136,16.157,13.218,25.718,17.785a2.467,2.467,0,0,0,3.284-.861,2.421,2.421,0,0,0-.861-3.284A119.688,119.688,0,0,1,199.85,56.7a52.061,52.061,0,0,1-11.237-9.8,2.421,2.421,0,0,0-3.394,0,2.447,2.447,0,0,0,0,3.394Z"/><path class="d" d="M147.454,39.954a18.37,18.37,0,0,0-4.331,5.373,56.022,56.022,0,0,0-3.855,8.2,42.974,42.974,0,0,0-2.253,17.784,2.459,2.459,0,0,0,2.4,2.4,2.419,2.419,0,0,0,2.4-2.4,40.035,40.035,0,0,1,1.979-16.23,47.082,47.082,0,0,1,3.295-7.019,15.232,15.232,0,0,1,3.759-4.715,2.414,2.414,0,0,0,0-3.394,2.459,2.459,0,0,0-3.394,0Z"/><path class="d" d="M188.329,101.183a2.7,2.7,0,0,1,.352.381l-.375-.486a6.4,6.4,0,0,1,.789,1.383l-.242-.573a5.129,5.129,0,0,1,.363,1.216,2.473,2.473,0,0,0,2.952,1.677,2.426,2.426,0,0,0,1.434-1.1l.242-.574a2.423,2.423,0,0,0,0-1.276,4.655,4.655,0,0,0-.228-.875,11.743,11.743,0,0,0-.61-1.412,6.175,6.175,0,0,0-.453-.748,5.653,5.653,0,0,0-.83-1,2.468,2.468,0,0,0-3.394,0,2.412,2.412,0,0,0-.7,1.7,2.375,2.375,0,0,0,.7,1.7Z"/><path class="d" d="M288.131,246.011q9.887,0,19.771-.024l31.024-.039q3.88,0,7.761-.009c3.088,0,3.094-4.8,0-4.8q-10.14,0-20.28.025l-30.882.038q-3.7,0-7.394.009c-3.088,0-3.093,4.8,0,4.8Z"/><path class="d" d="M2.318,246.019q17.78-.007,35.557-.07,2.814-.006,5.628-.01c3.088,0,3.093-4.8,0-4.8q-17.982,0-35.963.07-2.611,0-5.222.01c-3.088,0-3.093,4.8,0,4.8Z"/><path class="d" d="M235.385,234.569c-3.409,2.177-7.641,1.691-11.453,1.109-4.716-.72-9.536-1.661-14.317-1.728-9.748-.135-16.148,7.638-21.445,14.767a2.416,2.416,0,0,0,.861,3.284,2.457,2.457,0,0,0,3.284-.861c2.5-3.367,5.094-6.931,8.553-9.387a16.556,16.556,0,0,1,5.31-2.607,17.47,17.47,0,0,1,6.286-.2c4.454.442,8.845,1.278,13.287,1.789,4.128.475,8.457.282,12.057-2.016,2.6-1.658.191-5.814-2.423-4.145Z"/><path class="d" d="M198.327,252.044l-7.34,7.276a2.4,2.4,0,0,0,3.394,3.394l7.34-7.276a2.4,2.4,0,1,0-3.394-3.394Z"/><path class="d" d="M199.006,272.926c3.7-4.325,7.756-8.348,11.8-12.347a2.4,2.4,0,0,0-3.394-3.394c-4.048,4-8.1,8.022-11.8,12.347a2.4,2.4,0,0,0,3.394,3.394Z"/><path class="d" d="M204.367,282.174c2.726-2.756,5.487-5.482,8.162-8.287,2.363-2.479,4.653-5.025,7.06-7.462a2.4,2.4,0,1,0-3.4-3.394c-2.406,2.437-4.7,4.983-7.059,7.461-2.675,2.806-5.436,5.532-8.162,8.288a2.4,2.4,0,0,0,3.394,3.394Z"/><path class="d" d="M228.283,271.7a52.612,52.612,0,0,0,14.051-3.663,22.311,22.311,0,0,0,5.425-3.065c.331-.266.657-.538.985-.808l.405-.332c.04-.033.434-.334.18-.148s.3-.2.361-.239c.209-.139.421-.276.635-.408.526-.326,1.069-.62,1.619-.905,2.743-1.422.319-5.566-2.423-4.145a24.958,24.958,0,0,0-4.386,2.96,12.2,12.2,0,0,1-1.39,1.088,24.494,24.494,0,0,1-3.052,1.518,44.639,44.639,0,0,1-12.41,3.347,2.478,2.478,0,0,0-2.4,2.4,2.414,2.414,0,0,0,2.4,2.4Z"/><path class="d" d="M212.9,267.248c-.981,1.959-2,3.9-2.96,5.867a40.618,40.618,0,0,0-2.032,4.383,6.959,6.959,0,0,0-.033,3.9,5.48,5.48,0,0,0,7.5,3.708c2.884-1.146,4.784-3.929,6.747-6.209a61.177,61.177,0,0,1,7.526-7.816,2.417,2.417,0,0,0,0-3.394,2.455,2.455,0,0,0-3.394,0c-4.423,3.6-7.649,8.356-11.631,12.39-.062.063-.405.326-.136.131.288-.209-.313.184-.38.222-.112.064-.57.27-.219.133-.14.055-.712.218-.583.195a.582.582,0,0,1-.609-.109c.232.136-.134-.228.081.1a3.576,3.576,0,0,1-.211-.371c.111.221.045.153,0-.039-.05-.217-.116-.427-.154-.648.079.456.016-.171.009-.324-.005-.1.02-.2.011-.3,0,.053-.119.4-.026.177.032-.074.031-.17.057-.247.119-.352-.109.214.075-.177.532-1.13,1.055-2.264,1.6-3.386.943-1.932,1.944-3.834,2.907-5.756a2.46,2.46,0,0,0-.861-3.284,2.425,2.425,0,0,0-3.284.861Z"/><path class="d" d="M198.86,303.032c7.83-3.269,15.592-6.7,23.358-10.12q13.451-5.917,26.866-11.912c3-1.339,5.993-2.674,8.974-4.043a2.419,2.419,0,0,0,.861-3.284,2.456,2.456,0,0,0-3.283-.861c-15.65,7.186-31.447,14.073-47.236,20.945q-3.173,1.38-6.351,2.748-1.328.572-2.658,1.137c-.2.084-1.359.574-.761.323l-1.046.439a2.48,2.48,0,0,0-1.676,2.952,2.414,2.414,0,0,0,2.952,1.676Z"/><path class="a" d="M40.551,205.236c30.788.512,101.072.671,126.168.839a8.789,8.789,0,0,1,8.328,6.14c5.972,18.886,19.4,61.642,25.719,81.856a5.633,5.633,0,0,1-5.4,7.317c-27.195-.1-100.463-.36-128.632-.931a5.62,5.62,0,0,1-5.264-3.963c-5.555-17.963-19.819-63.231-26.391-83.911A5.639,5.639,0,0,1,40.551,205.236Z"/><path class="d" d="M40.551,207.636c14.38.238,28.762.33,43.143.423q25.2.162,50.4.257,10.6.047,21.2.1,4.14.02,8.28.043c3.068.019,6.221-.167,8.25,2.622a14.966,14.966,0,0,1,1.752,4.442q.708,2.239,1.414,4.479,1.686,5.346,3.369,10.692,3.911,12.425,7.813,24.852,3.846,12.244,7.685,24.491,1.62,5.164,3.236,10.329c.776,2.48,3.053,6.784-.324,8.328-1.138.52-2.6.293-3.829.289l-3.975-.014-9.171-.035q-10.962-.042-21.926-.092-24.94-.114-49.881-.3c-13.491-.1-26.983-.206-40.472-.469-1.5-.029-2.927-.387-3.616-1.89a31.9,31.9,0,0,1-1.2-3.822q-1.446-4.653-2.9-9.3-3.63-11.618-7.285-23.227-7.175-22.818-14.4-45.62c-.421-1.327-1.2-2.86-.773-4.241a3.287,3.287,0,0,1,3.211-2.334c3.086-.04,3.095-4.84,0-4.8a8.134,8.134,0,0,0-7.955,9.717,46.816,46.816,0,0,0,1.424,4.62q.786,2.478,1.571,4.957,3.755,11.854,7.491,23.714,7.405,23.493,14.747,47.007c1.1,3.547,1.849,7.463,5.562,9.211,2.807,1.322,6.541.858,9.591.906q10.267.16,20.537.249,25.368.245,50.736.355,22.467.117,44.935.194l4.052.014a13.2,13.2,0,0,0,5.08-.562,8.139,8.139,0,0,0,4.779-5.2c.652-2.147.116-4.153-.528-6.211q-3.467-11.084-6.945-22.163-7.822-24.934-15.674-49.858c-1.014-3.215-1.781-6.721-3.215-9.777-2.032-4.329-6.346-6.313-10.931-6.343q-8.968-.057-17.936-.092-24.9-.112-49.8-.233c-16.191-.088-32.383-.183-48.574-.381q-4.476-.056-8.952-.127C37.461,202.785,37.46,207.585,40.551,207.636Z"/><path class="d" d="M124.559,204.581c-2.388-6.554-.471-13.784.855-20.364,1.387-6.881,2.974-13.72,4.588-20.55,1.107-4.684,2.008-9.468,3.335-14.094,1.944-6.78,5-14.074,10.064-19.133a36.516,36.516,0,0,1,10.332-6.681,86.887,86.887,0,0,1,12.12-4.546c2.949-.891,1.692-5.526-1.276-4.629-7.742,2.34-15.694,5.348-22.135,10.352-6.19,4.81-9.989,12.4-12.55,19.656-1.755,4.97-2.714,10.175-3.926,15.295-1.639,6.924-3.272,13.851-4.722,20.817-.874,4.2-1.765,8.431-2.312,12.689a26.853,26.853,0,0,0,1,12.464,2.465,2.465,0,0,0,2.953,1.676,2.42,2.42,0,0,0,1.676-2.952Z"/><path class="d" d="M288.845,92.8c3.163.925,6.738,1.787,9.97.654a8.525,8.525,0,0,0,5.579-5.942c1.45-6.747-7.276-10.054-12.472-10.849-1.434-.22-3.042-.509-4.4.177a3.572,3.572,0,0,0-1.895,4.187c.863,3.11,4.666,4.316,7.364,5.248,5.1,1.763,11.371,2.808,16.389.213A8.167,8.167,0,0,0,313.706,81a9.715,9.715,0,0,0-3.129-8.753c-2.207-2.1-5.029-3.438-7.733-4.771a45.476,45.476,0,0,0-7.886-3.187,29.28,29.28,0,0,0-7.94-1.022c-2.869.016-7.367.071-7.5,3.965-.111,3.166,2.968,4.959,5.373,6.258a64.445,64.445,0,0,0,7.7,3.548,60.541,60.541,0,0,0,16.321,3.413,14.413,14.413,0,0,0,8.312-1.346,8.692,8.692,0,0,0,4.633-6.984c.335-5.771-5.736-10.1-10.108-12.637a74.632,74.632,0,0,0-16.573-7.063c-4.272-1.226-10.253-2.7-14.356-.187-1.645,1.006-3.043,2.952-2.5,4.948a6.35,6.35,0,0,0,2.646,3.266c2.827,2.056,6.405,3.211,9.7,4.27a129.493,129.493,0,0,0,13.863,3.535A136.016,136.016,0,0,0,318.9,70.478c4.654.435,10.839-2.323,11.639-7.407.4-2.58-1.011-4.873-2.575-6.8a25.182,25.182,0,0,0-5.651-5.025,59.526,59.526,0,0,0-8.357-4.3,69.258,69.258,0,0,0-9.1-3.456,47.829,47.829,0,0,0-8.908-1.691,2.417,2.417,0,0,0-2.4,2.4,2.452,2.452,0,0,0,2.4,2.4,48.174,48.174,0,0,1,14.114,3.844c4.2,1.781,8.784,3.719,12.2,6.813a12.646,12.646,0,0,1,3.434,4.268,3.927,3.927,0,0,0,.164.649c-.078-.222,0-.026-.055.2a3.323,3.323,0,0,1-1.136,1.656c-2.67,2.287-6.1,1.676-9.282,1.247a137.955,137.955,0,0,1-23.015-5.039,36.7,36.7,0,0,1-7.772-3.14c-.245-.141-.486-.287-.722-.442-.072-.048-.67-.479-.379-.254s-.25-.219-.333-.3-.5-.586-.247-.241c.259.363-.066-.129-.111-.235,0-.009.227.619.136.289-.06-.215.048-.228.035.357.006-.3-.038-.426-.161.628a1.472,1.472,0,0,1,.212-.363c-.233.163.2-.146.2-.15a3.474,3.474,0,0,1,1.439-.506,12.417,12.417,0,0,1,2.279-.1,27.291,27.291,0,0,1,5.979,1.015A71.32,71.32,0,0,1,306.277,62c3.568,1.773,7.55,3.863,9.8,7.272,1.08,1.634,1.428,3.373-.121,4.873a6.892,6.892,0,0,1-4.687,1.645,48.281,48.281,0,0,1-13.219-2A54.113,54.113,0,0,1,286,68.619a7.094,7.094,0,0,1-1.053-.653c-.027-.023-.631-.68-.633-.68l0,.041a1.3,1.3,0,0,1-.461.9c.036.028.147-.033.178-.015.324.194,1.776-.116,2.171-.128a25.069,25.069,0,0,1,6.118.495A44.238,44.238,0,0,1,304.423,73.7c1.88,1.071,3.817,2.42,4.483,4.589a3.117,3.117,0,0,1-1.178,3.6c-3.117,2.228-7.853,1.342-11.277.423a31.627,31.627,0,0,1-3.465-1.142q-.772-.3-1.519-.668c-.069-.033-1.3-.86-1.275-.865-.108.026-.152,1.122-.279,1.283-.513.649-.765.17-.235.286.445.1.94.078,1.394.15a20.6,20.6,0,0,1,3.753.987c1.51.548,4.35,1.577,4.86,3.314.442,1.506-1.231,2.86-2.485,3.276-2.268.753-4.895-.125-7.079-.764-2.971-.868-4.24,3.763-1.276,4.629Z"/><path class="d" d="M165.148,131.236c6.536,6.51,16.222,7.434,24.947,6.3a61.06,61.06,0,0,0,24.441-9.1c2.612-1.636.205-5.791-2.423-4.145a57.028,57.028,0,0,1-21.795,8.408c-7.423,1.107-16.147.754-21.776-4.852-2.192-2.183-5.587,1.21-3.394,3.394Z"/><path class="d" d="M234.951,238.088c3.829,2.86,6.639,7.45,8.872,11.673a68.056,68.056,0,0,1,6,15.9c.722,3,5.351,1.731,4.629-1.276a73.183,73.183,0,0,0-6.668-17.4c-2.631-4.908-5.9-9.678-10.4-13.041a2.417,2.417,0,0,0-3.284.861,2.459,2.459,0,0,0,.861,3.284Z"/><path class="d" d="M250.434,268.192a142.847,142.847,0,0,0,20.583-9.069c7.294-3.972,14.591-8.865,18.634-16.353,6.555-12.139,3.694-26.259,1.4-39.123-1.639-9.195-3.946-18.2-6.383-27.207-1.6-5.918-3.225-11.827-5.149-17.651A109.7,109.7,0,0,0,270.714,138a47.538,47.538,0,0,0-15.39-16.1c-6.473-4.167-13.834-6.806-21.158-9.041-4.26-1.3-8.391-2.931-12.561-4.5l-1.353-.508a2.421,2.421,0,0,0-2.953,1.676,2.455,2.455,0,0,0,1.677,2.953l10.476,3.933c2.672,1,5.48,1.677,8.186,2.595a80.606,80.606,0,0,1,9.986,4.051,44.145,44.145,0,0,1,16.106,13.032c4.183,5.662,6.981,12.26,9.381,18.838,2.267,6.215,4.151,12.563,5.891,18.943,2.065,7.57,4.174,15.138,5.831,22.81,1.539,7.127,2.792,14.384,3.7,21.62a44.66,44.66,0,0,1,.345,8.065,35.678,35.678,0,0,1-1.331,9.129,26.645,26.645,0,0,1-4.67,8.808,38.509,38.509,0,0,1-9.2,7.692,117.385,117.385,0,0,1-20.441,10.048q-2.028.789-4.079,1.516a2.461,2.461,0,0,0-1.677,2.952,2.422,2.422,0,0,0,2.953,1.677Z"/><path class="d" d="M217.3,109.53c-3.052,9.794-5.484,19.821-6.2,30.082a85.239,85.239,0,0,0,.252,14.96c.57,5.349,1.64,10.638,2.642,15.919,1.876,9.893,3.961,19.8,5.05,29.824.62,5.707,1.023,11.441,1.473,17.164.495,6.3.934,12.608,1.495,18.9a2.464,2.464,0,0,0,2.4,2.4,2.417,2.417,0,0,0,2.4-2.4c-1.024-11.484-1.685-23-2.805-34.474-.882-9.036-2.586-17.988-4.281-26.9-1.948-10.244-4.224-20.428-4.027-30.914.213-11.374,2.862-22.476,6.232-33.289.921-2.955-3.711-4.22-4.629-1.276Z"/><path class="d" d="M146.765,23.6A44.494,44.494,0,0,1,160.018,11.48a48.947,48.947,0,0,1,16.195-5.721c10.451-1.873,21.325-1.265,31.053,3.228a53.745,53.745,0,0,1,17.132,12.7,48.01,48.01,0,0,1,8.938,14.674c4.979,12.341,1.628,25.828,2.9,38.646a40.766,40.766,0,0,0,1.842,9.666c.847,2.373,1.633,3.46,2.171,6.07a12.785,12.785,0,0,1-.283,6.554,9.84,9.84,0,0,1-5.243,5.376,2.425,2.425,0,0,0-.861,3.284,2.45,2.45,0,0,0,3.284.861,14.363,14.363,0,0,0,8.192-13.506,21.081,21.081,0,0,0-1.317-6.823A39.569,39.569,0,0,1,241.785,80c-1.436-6.86-.947-13.692-.772-20.629.179-7.045-.1-14.384-2-21.21a48.535,48.535,0,0,0-8.025-16.044A58.684,58.684,0,0,0,213.91,7.038C203.5,1,191.591-.971,179.726.431A60.019,60.019,0,0,0,161.291,5.4,46.814,46.814,0,0,0,145.97,16.975c-1.183,1.347-2.287,2.76-3.349,4.2a2.417,2.417,0,0,0,.861,3.284,2.455,2.455,0,0,0,3.283-.861Z"/><path class="a" d="M176.622,144a6.174,6.174,0,0,0-1.582-.977l.917-2.315a4.767,4.767,0,0,0-1.027-4.439,4.935,4.935,0,0,0-3.427-1.389l.991-2.073a5.446,5.446,0,0,0,0-3.734,4.842,4.842,0,0,0-1.189-1.645,5.938,5.938,0,0,0-3.093-.4,51.47,51.47,0,0,0-12.7,2.709,28.879,28.879,0,0,1,1.511-3.13,8.509,8.509,0,0,1,3.51-2.78c2.49-1.39,5.04-2.9,7.42-4.47a3.1,3.1,0,0,0,.99-4.43,3.327,3.327,0,0,0-2.34-1.71c-2.2-.532-5,.33-7.515,1.33-2.48.99-6.155,2.33-8.155,4.2-2.39,2.23-3.33,5.22-4.43,8.14-.61,1.61-1.9,6.18-2.43,7.83l-.65,3.843a7.847,7.847,0,0,0,.141,3.271q2.4,9.276,4.782,18.566a66.188,66.188,0,0,1,1.65,7.74l.047,2.59c5.644.577,13.28,1.4,19.185,2.187.167-.914.292-1.622.308-1.767.17-1.39.32-3.72.38-5.11.071-1.8.064-4.672.05-7.456l.359.424a3.524,3.524,0,0,0,4.763,2.26,4.935,4.935,0,0,0,2.352-3.127,18.84,18.84,0,0,0,.563-4.181c.1-2.393.087-4.07.094-6.62A4.311,4.311,0,0,0,176.622,144Z"/><path class="d" d="M146.389,135.357c.827-2.6,1.492-5.264,2.43-7.83,1.188-3.252,2.351-6.448,5.5-8.25a36.7,36.7,0,0,1,4.789-2.17,17.845,17.845,0,0,1,5.745-1.643c.884-.029,2.628.31,2.214,1.492a4.615,4.615,0,0,1-1.084.824q-1.344.867-2.715,1.691c-1.99,1.2-4.174,2.195-6.053,3.563-1.939,1.411-2.828,3.362-3.776,5.493a2.476,2.476,0,0,0,.861,3.284,2.419,2.419,0,0,0,3.284-.861c.411-.923.807-1.848,1.289-2.738a5,5,0,0,1,2.209-1.944c2.208-1.25,4.412-2.5,6.557-3.854,2.1-1.328,4.107-2.74,4.228-5.458A6.185,6.185,0,0,0,168.8,111.5c-4.279-2.39-9.92.468-13.935,2.188a19.768,19.768,0,0,0-5.508,3.251,15.743,15.743,0,0,0-3.795,5.752c-1.566,3.707-2.59,7.562-3.806,11.388-.937,2.95,3.7,4.213,4.629,1.276Z"/><path class="d" d="M148.53,135.71a45.527,45.527,0,0,1,13.683-5.37,33.989,33.989,0,0,1,6.8-.947,10.074,10.074,0,0,0,1.216.137c-.263.066-.247-.289-.318-.138a5.9,5.9,0,0,0,.372.6,3.044,3.044,0,0,1-.1,2.179,2.415,2.415,0,0,0,1.676,2.952,2.459,2.459,0,0,0,2.952-1.676c1.058-2.6.213-6.556-2.292-8.089-2.45-1.5-6.142-.567-8.762-.158a50.145,50.145,0,0,0-17.647,6.369c-2.664,1.56-.251,5.711,2.423,4.145Z"/><path class="d" d="M155.869,140.68a55,55,0,0,1,12.587-3.192c1.284-.21,3.07-.455,4.158.028a1.657,1.657,0,0,1,.88.838c.087.19.246.8.244.787a1.213,1.213,0,0,1-.1.927,2.4,2.4,0,0,0,4.629,1.276,7.063,7.063,0,0,0-1.644-6.774,8.264,8.264,0,0,0-6.685-2.073,60.529,60.529,0,0,0-7.6,1.237,41.6,41.6,0,0,0-7.751,2.318A2.48,2.48,0,0,0,152.917,139a2.414,2.414,0,0,0,2.952,1.676Z"/><path class="d" d="M158.965,147.471c3.405-.739,6.815-1.453,10.248-2.052a14.119,14.119,0,0,1,4.02-.46,3.559,3.559,0,0,1,1.687.732,1.561,1.561,0,0,1,.6,1.007,18.134,18.134,0,0,1,.16,4.436,40.607,40.607,0,0,1-.223,4.769,5.308,5.308,0,0,1-1.093,3c-.429.353-.708.287-1.214.125a1.4,1.4,0,0,1-.512-.656,2.469,2.469,0,0,0-2.952-1.676,2.417,2.417,0,0,0-1.676,2.952,6.2,6.2,0,0,0,3.6,3.916,5.74,5.74,0,0,0,5.4-.69c3.019-2.236,3.3-6.207,3.419-9.664.06-1.745.1-3.5.064-5.248a8.464,8.464,0,0,0-1.28-4.6,7.764,7.764,0,0,0-4.42-2.96,12.98,12.98,0,0,0-5.46.156c-3.905.652-7.781,1.451-11.649,2.291a2.4,2.4,0,1,0,1.276,4.628Z"/><path class="d" d="M171.622,173.147a52.414,52.414,0,0,0,.753-10.524c.014-3.355-.053-6.71-.017-10.064.033-3.09-4.767-3.092-4.8,0-.035,3.263.027,6.527.018,9.79a47.494,47.494,0,0,1-.582,9.522,2.457,2.457,0,0,0,1.676,2.952,2.425,2.425,0,0,0,2.952-1.676Z"/><path class="d" d="M146.107,131.566a10.674,10.674,0,0,0-4.993,6.765c-.594,3.372.875,6.978,1.706,10.206q1.3,5.07,2.606,10.14a89.79,89.79,0,0,1,2.258,10.1,2.414,2.414,0,0,0,2.952,1.676,2.465,2.465,0,0,0,1.676-2.952c-.83-6.042-2.742-11.986-4.258-17.883-.74-2.881-1.764-5.825-2.219-8.765a5.112,5.112,0,0,1,2.694-5.142c2.6-1.65.2-5.806-2.422-4.145Z"/><path class="d" d="M143,172.435c8.72.81,17.928,1.759,26.281,2.887,2.124.287,4.253.581,6.354,1.009l-1.762-2.314a234.871,234.871,0,0,1-3.318,28.113,2.463,2.463,0,0,0,1.676,2.952,2.423,2.423,0,0,0,2.953-1.676,245.842,245.842,0,0,0,3.489-29.389,2.41,2.41,0,0,0-1.762-2.315c-4.406-.9-8.915-1.369-13.376-1.9-5.1-.6-10.2-1.146-15.308-1.659q-2.613-.263-5.227-.51a2.418,2.418,0,0,0-2.4,2.4,2.451,2.451,0,0,0,2.4,2.4Z"/><path class="d" d="M236.969,230.405c4.926-2.089,9.661-4.524,14.473-6.855a2.412,2.412,0,0,0,.861-3.283,2.463,2.463,0,0,0-3.284-.861c-4.812,2.331-9.546,4.765-14.473,6.855a2.4,2.4,0,0,0-.861,3.283,2.477,2.477,0,0,0,3.284.861Z"/><path class="d" d="M240.152,185.187l7.317,26.786c.813,2.976,5.445,1.713,4.629-1.276l-7.318-26.786c-.813-2.976-5.445-1.713-4.628,1.276Z"/></svg>